{
.appVersion = "919";
DisplayStrings = (
"llllll/Placeholder zllllll\012nnnzznnn\012ooo/Placeholder zooo",
"HH/Placeholder ZHH\012IIIIIZZIIIIII\012OO/Placeholder ZOO\012",
"n /Placeholder znn\012n Zzlll \012n /Placeholder zoo",
"llll\U00BA/Placeholder \U00BAllll\012nnn\U00BAz\U00BAnn\012ooo\U00BA/Placeholder \U00BAooo",
"HH\U00AA/Placeholder \U00AAHH\012IIII\U00BAZ\U00BAIIII\012OO\U00BA/Placeholder \U00BAOO",
"llll-/Placeholder -llll\012IIII-\U00BA-IIII\012IIII/Placeholder -/Placeholder IIII",

glyphs = (
{
glyphname = A;
lastChange = "2016-08-31 09:23:23 +0000";
layers = (
{
anchors = (
{
name = bottom;
position = "{355, 0}";
},
{
name = ogonek;
position = "{678, 10}";
},
{
name = top;
position = "{355, 705}";
}
);
layerId = "9E718F8A-2CEA-4931-B05D-987794BD97DA";
paths = (
{
closed = 1;
nodes = (
"369 666 LINE",
"341 666 LINE",
"629 12 LINE SMOOTH",
"643 -20 OFFCURVE",
"691 -2 OFFCURVE",
"678 28 CURVE SMOOTH",
"385 691 LINE SMOOTH",
"375 716 OFFCURVE",
"336 718 OFFCURVE",
"325 691 CURVE SMOOTH",
"32 28 LINE SMOOTH",
"19 -2 OFFCURVE",
"67 -20 OFFCURVE",
"81 12 CURVE SMOOTH"
);
},
{
closed = 1;
nodes = (
"562 191 LINE",
"545 239 LINE",
"167 239 LINE",
"151 191 LINE"
);
}
);
width = 710;
},
{
anchors = (
{
name = bottom;
position = "{376, 0}";
},
{
name = ogonek;
position = "{705, 10}";
},
{
name = top;
position = "{375, 705}";
}
);
layerId = "E1B555A7-F4E1-459C-9C1A-AE952106EEF9";
paths = (
{
closed = 1;
nodes = (
"394 571 LINE",
"360 571 LINE",
"598 39 LINE SMOOTH",
"638 -48 OFFCURVE",
"770 11 OFFCURVE",
"728 98 CURVE SMOOTH",
"459 661 LINE SMOOTH",
"427 727 OFFCURVE",
"324 729 OFFCURVE",
"292 661 CURVE SMOOTH",
"23 98 LINE SMOOTH",
"-19 11 OFFCURVE",
"115 -48 OFFCURVE",
"155 39 CURVE SMOOTH"
);
},
{
closed = 1;
nodes = (
"608 154 LINE",
"547 276 LINE",
"195 276 LINE",
"134 154 LINE"
);
}
);
width = 751;
}
);
leftKerningGroup = A;
rightKerningGroup = A;
unicode = 0041;
userData = {
anchors = (
);
b = {
};
com.typemytype.robofont.layerData = {
b = {
anchors = (
);
components = (
);
contours = (
{
points = (
{
segmentType = line;
smooth = 0;
x = 403;
y = 502;
},
{
segmentType = line;
smooth = 0;
x = 703;
y = 1275;
},
{
segmentType = line;
smooth = 0;
x = 705;
y = 1275;
},
{
segmentType = line;
smooth = 0;
x = 1004;
y = 502;
}
);
},
{
points = (
{
segmentType = curve;
smooth = 1;
x = 150;
y = 0;
},
{
smooth = 0;
x = 181;
y = 0;
},
{
smooth = 0;
x = 214;
y = 15;
},
{
segmentType = curve;
smooth = 1;
x = 229;
y = 53;
},
{
segmentType = line;
smooth = 0;
x = 356;
y = 373;
},
{
segmentType = line;
smooth = 0;
x = 1051;
y = 373;
},
{
segmentType = line;
smooth = 1;
x = 1179;
y = 53;
},
{
smooth = 0;
x = 1193;
y = 17;
},
{
smooth = 0;
x = 1228;
y = 0;
},
{
segmentType = curve;
smooth = 1;
x = 1260;
y = 0;
},
{
smooth = 0;
x = 1306;
y = 0;
},
{
smooth = 0;
x = 1354;
y = 31;
},
{
segmentType = curve;
smooth = 1;
x = 1354;
y = 80;
},
{
smooth = 0;
x = 1354;
y = 87;
},
{
smooth = 0;
x = 1352;
y = 97;
},
{
segmentType = curve;
smooth = 0;
x = 1349;
y = 108;
},
{
segmentType = line;
smooth = 1;
x = 871;
y = 1288;
},
{
smooth = 0;
x = 817;
y = 1420;
},
{
smooth = 0;
x = 777;
y = 1430;
},
{
segmentType = curve;
smooth = 1;
x = 710;
y = 1430;
},
{
smooth = 0;
x = 644;
y = 1430;
},
{
smooth = 0;
x = 596;
y = 1413;
},
{
segmentType = curve;
smooth = 1;
x = 542;
y = 1280;
},
{
segmentType = line;
smooth = 1;
x = 66;
y = 108;
},
{
smooth = 0;
x = 62;
y = 97;
},
{
smooth = 0;
x = 60;
y = 87;
},
{
segmentType = curve;
smooth = 1;
x = 60;
y = 78;
},
{
smooth = 0;
x = 60;
y = 32;
},
{
smooth = 0;
x = 106;
y = 0;
}
);
}
);
lib = {
};
name = A;
unicodes = (
);
width = 1414;
};
};
components = (
);
contours = {
};
lib = {
};
name = A;
points = {
};
segmentType = line;
unicodes = (
);
width = 1445;
x = 718;
y = 1232;
};
},
{
glyphname = Aogonek;
lastChange = "2016-08-29 19:31:13 +0000";
layers = (
{
background = {
paths = (
{
closed = 1;
nodes = (
"369 666 LINE",
"341 666 LINE",
"629 12 LINE SMOOTH",
"643 -20 OFFCURVE",
"691 -2 OFFCURVE",
"678 28 CURVE SMOOTH",
"385 691 LINE SMOOTH",
"374 716 OFFCURVE",
"337 718 OFFCURVE",
"325 691 CURVE SMOOTH",
"32 28 LINE SMOOTH",
"19 -2 OFFCURVE",
"67 -20 OFFCURVE",
"81 12 CURVE SMOOTH"
);
},
{
closed = 1;
nodes = (
"562 191 LINE",
"545 239 LINE",
"167 239 LINE",
"151 191 LINE"
);
},
{
closed = 1;
nodes = (
"674 -191 OFFCURVE",
"697 -186 OFFCURVE",
"718 -174 CURVE SMOOTH",
"742 -160 OFFCURVE",
"733 -119 OFFCURVE",
"702 -135 CURVE SMOOTH",
"684 -144 OFFCURVE",
"666 -148 OFFCURVE",
"654 -148 CURVE SMOOTH",
"614 -148 OFFCURVE",
"586 -125 OFFCURVE",
"586 -82 CURVE SMOOTH",
"586 -38 OFFCURVE",
"614 -2 OFFCURVE",
"678 10 CURVE",
"666 41 LINE",
"582 27 OFFCURVE",
"536 -24 OFFCURVE",
"536 -88 CURVE SMOOTH",
"536 -148 OFFCURVE",
"581 -191 OFFCURVE",
"649 -191 CURVE SMOOTH"
);
}
);
};
layerId = "9E718F8A-2CEA-4931-B05D-987794BD97DA";
paths = (
{
closed = 1;
nodes = (
"562 191 LINE",
"545 239 LINE",
"167 239 LINE",
"151 191 LINE"
);
},
{
closed = 1;
nodes = (
"684 -144 OFFCURVE",
"666 -148 OFFCURVE",
"654 -148 CURVE SMOOTH",
"614 -148 OFFCURVE",
"586 -125 OFFCURVE",
"586 -82 CURVE SMOOTH",
"586 -41 OFFCURVE",
"612 -11 OFFCURVE",
"662 -3 CURVE SMOOTH",
"674 -1 OFFCURVE",
"685 12 OFFCURVE",
"678 28 CURVE SMOOTH",
"385 691 LINE",
"375 716 OFFCURVE",
"336 718 OFFCURVE",
"325 691 CURVE SMOOTH",
"32 28 LINE SMOOTH",
"19 -2 OFFCURVE",
"67 -20 OFFCURVE",
"81 12 CURVE SMOOTH",
"369 666 LINE",
"341 666 LINE",
"629 12 LINE SMOOTH",
"631 7 OFFCURVE",
"635 2 OFFCURVE",
"640 -1 CURVE",
"666 41 LINE",
"582 27 OFFCURVE",
"536 -24 OFFCURVE",
"536 -86 CURVE SMOOTH",
"536 -148 OFFCURVE",
"581 -191 OFFCURVE",
"649 -191 CURVE SMOOTH",
"674 -191 OFFCURVE",
"697 -186 OFFCURVE",
"718 -174 CURVE SMOOTH",
"742 -160 OFFCURVE",
"733 -119 OFFCURVE",
"702 -135 CURVE SMOOTH"
);
}
);
width = 710;
},
{
background = {
paths = (
{
closed = 1;
nodes = (
"394 571 LINE",
"360 571 LINE",
"598 39 LINE SMOOTH",
"637 -48 OFFCURVE",
"770 11 OFFCURVE",
"728 98 CURVE SMOOTH",
"459 661 LINE SMOOTH",
"427 727 OFFCURVE",
"324 729 OFFCURVE",
"292 661 CURVE SMOOTH",
"23 98 LINE SMOOTH",
"-19 11 OFFCURVE",
"116 -48 OFFCURVE",
"155 39 CURVE SMOOTH"
);
},
{
closed = 1;
nodes = (
"608 154 LINE",
"547 276 LINE",
"195 276 LINE",
"134 154 LINE"
);
},
{
closed = 1;
nodes = (
"698 -197 OFFCURVE",
"727 -191 OFFCURVE",
"756 -174 CURVE SMOOTH",
"789 -155 OFFCURVE",
"774 -98 OFFCURVE",
"738 -109 CURVE SMOOTH",
"716 -116 OFFCURVE",
"705 -117 OFFCURVE",
"690 -117 CURVE SMOOTH",
"662 -117 OFFCURVE",
"638 -99 OFFCURVE",
"638 -64 CURVE SMOOTH",
"638 -27 OFFCURVE",
"662 -3 OFFCURVE",
"707 10 CURVE",
"690 46 LINE",
"589 33 OFFCURVE",
"539 -22 OFFCURVE",
"539 -87 CURVE SMOOTH",
"539 -154 OFFCURVE",
"595 -197 OFFCURVE",
"667 -197 CURVE SMOOTH"
);
},
{
closed = 1;
nodes = (
"-84 -116 OFFCURVE",
"-95 -117 OFFCURVE",
"-110 -117 CURVE SMOOTH",
"-138 -117 OFFCURVE",
"-162 -99 OFFCURVE",
"-162 -64 CURVE SMOOTH",
"-162 -27 OFFCURVE",
"-132 -9 OFFCURVE",
"-105 4 CURVE SMOOTH",
"-77 17 OFFCURVE",
"-69 40 OFFCURVE",
"-69 66 CURVE SMOOTH",
"-69 289 LINE SMOOTH",
"-69 439 OFFCURVE",
"-143 501 OFFCURVE",
"-283 501 CURVE SMOOTH",
"-354 501 OFFCURVE",
"-426 482 OFFCURVE",
"-469 460 CURVE SMOOTH",
"-497 446 OFFCURVE",
"-507 429 OFFCURVE",
"-507 403 CURVE SMOOTH",
"-507 373 OFFCURVE",
"-491 345 OFFCURVE",
"-458 345 CURVE SMOOTH",
"-447 345 OFFCURVE",
"-434 349 OFFCURVE",
"-419 355 CURVE SMOOTH",
"-387 368 OFFCURVE",
"-339 385 OFFCURVE",
"-295 385 CURVE SMOOTH",
"-242 385 OFFCURVE",
"-217 367 OFFCURVE",
"-217 310 CURVE SMOOTH",
"-217 202 LINE SMOOTH",
"-217 137 OFFCURVE",
"-262 101 OFFCURVE",
"-312 101 CURVE SMOOTH",
"-348 101 OFFCURVE",
"-375 126 OFFCURVE",
"-375 161 CURVE SMOOTH",
"-375 199 OFFCURVE",
"-348 218 OFFCURVE",
"-234 218 CURVE SMOOTH",
"-201 218 LINE",
"-201 293 LINE",
"-243 293 LINE SMOOTH",
"-455 293 OFFCURVE",
"-525 252 OFFCURVE",
"-525 150 CURVE SMOOTH",
"-525 67 OFFCURVE",
"-456 -6 OFFCURVE",
"-345 -6 CURVE SMOOTH",
"-277 -6 OFFCURVE",
"-221 31 OFFCURVE",
"-208 100 CURVE",
"-216 103 LINE",
"-216 66 LINE SMOOTH",
"-216 33 OFFCURVE",
"-199 13 OFFCURVE",
"-180 2 CURVE",
"-167 37 LINE",
"-231 11 OFFCURVE",
"-261 -35 OFFCURVE",
"-261 -84 CURVE SMOOTH",
"-261 -154 OFFCURVE",
"-205 -197 OFFCURVE",
"-133 -197 CURVE SMOOTH",
"-102 -197 OFFCURVE",
"-73 -191 OFFCURVE",
"-44 -174 CURVE SMOOTH",
"-11 -155 OFFCURVE",
"-26 -98 OFFCURVE",
"-62 -109 CURVE SMOOTH"
);
}
);
};
layerId = "E1B555A7-F4E1-459C-9C1A-AE952106EEF9";
paths = (
{
closed = 1;
nodes = (
"608 154 LINE",
"547 276 LINE",
"195 276 LINE",
"134 154 LINE"
);
},
{
closed = 1;
nodes = (
"716 -116 OFFCURVE",
"705 -117 OFFCURVE",
"690 -117 CURVE SMOOTH",
"662 -117 OFFCURVE",
"638 -99 OFFCURVE",
"638 -64 CURVE SMOOTH",
"638 -27 OFFCURVE",
"668 -9 OFFCURVE",
"695 4 CURVE SMOOTH",
"725 18 OFFCURVE",
"749 53 OFFCURVE",
"728 98 CURVE SMOOTH",
"459 661 LINE SMOOTH",
"427 727 OFFCURVE",
"324 729 OFFCURVE",
"292 661 CURVE SMOOTH",
"23 98 LINE SMOOTH",
"-19 11 OFFCURVE",
"116 -48 OFFCURVE",
"155 39 CURVE SMOOTH",
"394 571 LINE",
"360 571 LINE",
"598 39 LINE SMOOTH",
"606 20 OFFCURVE",
"619 10 OFFCURVE",
"627 5 CURVE",
"633 37 LINE",
"569 11 OFFCURVE",
"539 -35 OFFCURVE",
"539 -84 CURVE SMOOTH",
"539 -151 OFFCURVE",
"595 -197 OFFCURVE",
"667 -197 CURVE SMOOTH",
"698 -197 OFFCURVE",
"727 -191 OFFCURVE",
"756 -174 CURVE SMOOTH",
"789 -155 OFFCURVE",
"774 -98 OFFCURVE",
"738 -109 CURVE SMOOTH"
);
}
);
width = 751;
}
);
leftKerningGroup = A;
leftMetricsKey = A;
widthMetricsKey = A;
rightKerningGroup = A;
unicode = 0104;
},
{
glyphname = Aring;
lastChange = "2016-08-29 19:31:13 +0000";
layers = (
{
layerId = "9E718F8A-2CEA-4931-B05D-987794BD97DA";
paths = (
{
closed = 1;
nodes = (
"369 666 LINE",
"341 666 LINE",
"629 12 LINE SMOOTH",
"643 -20 OFFCURVE",
"691 -2 OFFCURVE",
"678 28 CURVE SMOOTH",
"385 691 LINE",
"325 691 LINE",
"32 28 LINE SMOOTH",
"19 -2 OFFCURVE",
"67 -20 OFFCURVE",
"81 12 CURVE SMOOTH"
);
},
{
closed = 1;
nodes = (
"562 191 LINE",
"545 239 LINE",
"167 239 LINE",
"151 191 LINE"
);
},
{
closed = 1;
nodes = (
"409 675 OFFCURVE",
"453 717 OFFCURVE",
"453 771 CURVE SMOOTH",
"453 825 OFFCURVE",
"409 867 OFFCURVE",
"355 867 CURVE SMOOTH",
"301 867 OFFCURVE",
"257 825 OFFCURVE",
"257 771 CURVE SMOOTH",
"257 717 OFFCURVE",
"301 675 OFFCURVE",
"355 675 CURVE SMOOTH"
);
},
{
closed = 1;
nodes = (
"326 719 OFFCURVE",
"305 742 OFFCURVE",
"305 771 CURVE SMOOTH",
"305 800 OFFCURVE",
"326 823 OFFCURVE",
"355 823 CURVE SMOOTH",
"384 823 OFFCURVE",
"405 800 OFFCURVE",
"405 771 CURVE SMOOTH",
"405 742 OFFCURVE",
"384 719 OFFCURVE",
"355 719 CURVE SMOOTH"
);
}
);
width = 710;
},
{
layerId = "E1B555A7-F4E1-459C-9C1A-AE952106EEF9";
paths = (
{
closed = 1;
nodes = (
"394 571 LINE",
"360 571 LINE",
"598 39 LINE SMOOTH",
"638 -48 OFFCURVE",
"770 10 OFFCURVE",
"728 98 CURVE SMOOTH",
"439 703 LINE",
"312 703 LINE",
"23 98 LINE SMOOTH",
"-19 10 OFFCURVE",
"115 -48 OFFCURVE",
"155 39 CURVE SMOOTH"
);
},
{
closed = 1;
nodes = (
"608 154 LINE",
"547 276 LINE",
"195 276 LINE",
"134 154 LINE"
);
},
{
closed = 1;
nodes = (
"437 670 OFFCURVE",
"486 717 OFFCURVE",
"486 778 CURVE SMOOTH",
"486 839 OFFCURVE",
"437 886 OFFCURVE",
"376 886 CURVE SMOOTH",
"315 886 OFFCURVE",
"266 839 OFFCURVE",
"266 778 CURVE SMOOTH",
"266 717 OFFCURVE",
"315 670 OFFCURVE",
"376 670 CURVE SMOOTH"
);
},
{
closed = 1;
nodes = (
"351 733 OFFCURVE",
"333 753 OFFCURVE",
"333 778 CURVE SMOOTH",
"333 803 OFFCURVE",
"351 823 OFFCURVE",
"376 823 CURVE SMOOTH",
"401 823 OFFCURVE",
"419 803 OFFCURVE",
"419 778 CURVE SMOOTH",
"419 753 OFFCURVE",
"401 733 OFFCURVE",
"376 733 CURVE SMOOTH"
);
}
);
width = 751;
}
);
leftKerningGroup = A;
leftMetricsKey = A;
widthMetricsKey = A;
rightKerningGroup = A;
unicode = 00C5;
},
{
glyphname = Aringacute;
lastChange = "2016-08-29 19:31:13 +0000";
layers = (
{
background = {
paths = (
{
closed = 1;
nodes = (
"551 879 LINE SMOOTH",
"600 905 OFFCURVE",
"556 968 OFFCURVE",
"515 934 CURVE SMOOTH",
"397 836 LINE SMOOTH",
"380 822 OFFCURVE",
"397 799 OFFCURVE",
"416 809 CURVE SMOOTH"
);
},
{
closed = 1;
nodes = (
"409 675 OFFCURVE",
"453 717 OFFCURVE",
"453 771 CURVE SMOOTH",
"453 825 OFFCURVE",
"409 867 OFFCURVE",
"355 867 CURVE SMOOTH",
"301 867 OFFCURVE",
"257 825 OFFCURVE",
"257 771 CURVE SMOOTH",
"257 717 OFFCURVE",
"301 675 OFFCURVE",
"355 675 CURVE SMOOTH"
);
},
{
closed = 1;
nodes = (
"326 719 OFFCURVE",
"305 742 OFFCURVE",
"305 771 CURVE SMOOTH",
"305 800 OFFCURVE",
"326 823 OFFCURVE",
"355 823 CURVE SMOOTH",
"384 823 OFFCURVE",
"405 800 OFFCURVE",
"405 771 CURVE SMOOTH",
"405 742 OFFCURVE",
"384 719 OFFCURVE",
"355 719 CURVE SMOOTH"
);
},
{
closed = 1;
nodes = (
"369 666 LINE",
"341 666 LINE",
"629 12 LINE SMOOTH",
"643 -20 OFFCURVE",
"691 -2 OFFCURVE",
"678 28 CURVE SMOOTH",
"385 691 LINE SMOOTH",
"375 716 OFFCURVE",
"336 718 OFFCURVE",
"325 691 CURVE SMOOTH",
"32 28 LINE SMOOTH",
"19 -2 OFFCURVE",
"67 -20 OFFCURVE",
"81 12 CURVE SMOOTH"
);
},
{
closed = 1;
nodes = (
"562 191 LINE",
"545 239 LINE",
"167 239 LINE",
"151 191 LINE"
);
}
);
};
layerId = "9E718F8A-2CEA-4931-B05D-987794BD97DA";
paths = (
{
closed = 1;
nodes = (
"369 666 LINE",
"341 666 LINE",
"629 12 LINE SMOOTH",
"643 -20 OFFCURVE",
"691 -2 OFFCURVE",
"678 28 CURVE SMOOTH",
"385 691 LINE",
"325 691 LINE",
"32 28 LINE SMOOTH",
"19 -2 OFFCURVE",
"67 -20 OFFCURVE",
"81 12 CURVE SMOOTH"
);
},
{
closed = 1;
nodes = (
"562 191 LINE",
"545 239 LINE",
"167 239 LINE",
"151 191 LINE"
);
},
{
closed = 1;
nodes = (
"409 675 OFFCURVE",
"453 717 OFFCURVE",
"453 771 CURVE SMOOTH",
"453 825 OFFCURVE",
"409 867 OFFCURVE",
"355 867 CURVE SMOOTH",
"301 867 OFFCURVE",
"257 825 OFFCURVE",
"257 771 CURVE SMOOTH",
"257 717 OFFCURVE",
"301 675 OFFCURVE",
"355 675 CURVE SMOOTH"
);
},
{
closed = 1;
nodes = (
"326 719 OFFCURVE",
"305 742 OFFCURVE",
"305 771 CURVE SMOOTH",
"305 800 OFFCURVE",
"326 823 OFFCURVE",
"355 823 CURVE SMOOTH",
"384 823 OFFCURVE",
"405 800 OFFCURVE",
"405 771 CURVE SMOOTH",
"405 742 OFFCURVE",
"384 719 OFFCURVE",
"355 719 CURVE SMOOTH"
);
},
{
closed = 1;
nodes = (
"551 879 LINE SMOOTH",
"600 905 OFFCURVE",
"556 968 OFFCURVE",
"515 934 CURVE SMOOTH",
"397 836 LINE SMOOTH",
"380 822 OFFCURVE",
"397 799 OFFCURVE",
"416 809 CURVE SMOOTH"
);
}
);
width = 710;
},
{
background = {
paths = (
{
closed = 1;
nodes = (
"567 839 LINE SMOOTH",
"666 867 OFFCURVE",
"602 994 OFFCURVE",
"517 936 CURVE SMOOTH",
"419 869 LINE SMOOTH",
"381 843 OFFCURVE",
"410 794 OFFCURVE",
"451 806 CURVE SMOOTH"
);
},
{
closed = 1;
nodes = (
"437 670 OFFCURVE",
"486 717 OFFCURVE",
"486 778 CURVE SMOOTH",
"486 839 OFFCURVE",
"437 886 OFFCURVE",
"376 886 CURVE SMOOTH",
"315 886 OFFCURVE",
"266 839 OFFCURVE",
"266 778 CURVE SMOOTH",
"266 717 OFFCURVE",
"315 670 OFFCURVE",
"376 670 CURVE SMOOTH"
);
},
{
closed = 1;
nodes = (
"351 733 OFFCURVE",
"333 753 OFFCURVE",
"333 778 CURVE SMOOTH",
"333 803 OFFCURVE",
"351 823 OFFCURVE",
"376 823 CURVE SMOOTH",
"401 823 OFFCURVE",
"419 803 OFFCURVE",
"419 778 CURVE SMOOTH",
"419 753 OFFCURVE",
"401 733 OFFCURVE",
"376 733 CURVE SMOOTH"
);
},
{
closed = 1;
nodes = (
"394 571 LINE",
"360 571 LINE",
"598 39 LINE SMOOTH",
"638 -48 OFFCURVE",
"770 11 OFFCURVE",
"728 98 CURVE SMOOTH",
"459 661 LINE SMOOTH",
"427 727 OFFCURVE",
"324 729 OFFCURVE",
"292 661 CURVE SMOOTH",
"23 98 LINE SMOOTH",
"-19 11 OFFCURVE",
"115 -48 OFFCURVE",
"155 39 CURVE SMOOTH"
);
},
{
closed = 1;
nodes = (
"608 154 LINE",
"547 276 LINE",
"195 276 LINE",
"134 154 LINE"
);
}
);
};
layerId = "E1B555A7-F4E1-459C-9C1A-AE952106EEF9";
paths = (
{
closed = 1;
nodes = (
"394 571 LINE",
"360 571 LINE",
"598 39 LINE SMOOTH",
"638 -48 OFFCURVE",
"770 10 OFFCURVE",
"728 98 CURVE SMOOTH",
"439 703 LINE",
"312 703 LINE",
"23 98 LINE SMOOTH",
"-19 10 OFFCURVE",
"115 -48 OFFCURVE",
"155 39 CURVE SMOOTH"
);
},
{
closed = 1;
nodes = (
"608 154 LINE",
"547 276 LINE",
"195 276 LINE",
"134 154 LINE"
);
},
{
closed = 1;
nodes = (
"437 670 OFFCURVE",
"486 717 OFFCURVE",
"486 778 CURVE SMOOTH",
"486 839 OFFCURVE",
"437 886 OFFCURVE",
"376 886 CURVE SMOOTH",
"315 886 OFFCURVE",
"266 839 OFFCURVE",
"266 778 CURVE SMOOTH",
"266 717 OFFCURVE",
"315 670 OFFCURVE",
"376 670 CURVE SMOOTH"
);
},
{
closed = 1;
nodes = (
"351 733 OFFCURVE",
"333 753 OFFCURVE",
"333 778 CURVE SMOOTH",
"333 803 OFFCURVE",
"351 823 OFFCURVE",
"376 823 CURVE SMOOTH",
"401 823 OFFCURVE",
"419 803 OFFCURVE",
"419 778 CURVE SMOOTH",
"419 753 OFFCURVE",
"401 733 OFFCURVE",
"376 733 CURVE SMOOTH"
);
},
{
closed = 1;
nodes = (
"567 839 LINE SMOOTH",
"666 867 OFFCURVE",
"602 994 OFFCURVE",
"517 936 CURVE SMOOTH",
"419 869 LINE SMOOTH",
"381 843 OFFCURVE",
"410 794 OFFCURVE",
"451 806 CURVE SMOOTH"
);
}
);
width = 751;
}
);
leftKerningGroup = A;
leftMetricsKey = A;
widthMetricsKey = A;
rightKerningGroup = A;
unicode = 01FA;
},
{
glyphname = AE;
lastChange = "2016-08-29 19:31:13 +0000";
layers = (
{
anchors = (
{
name = bottom;
position = "{497, 0}";
},
{
name = top;
position = "{496, 705}";
}
);
layerId = "9E718F8A-2CEA-4931-B05D-987794BD97DA";
paths = (
{
closed = 1;
nodes = (
"915 0 LINE SMOOTH",
"929 0 OFFCURVE",
"939 10 OFFCURVE",
"939 25 CURVE SMOOTH",
"939 41 OFFCURVE",
"929 51 OFFCURVE",
"915 51 CURVE SMOOTH",
"616 51 LINE",
"482 682 LINE",
"475 654 LINE",
"915 654 LINE SMOOTH",
"929 654 OFFCURVE",
"939 664 OFFCURVE",
"939 680 CURVE SMOOTH",
"939 695 OFFCURVE",
"929 705 OFFCURVE",
"915 705 CURVE SMOOTH",
"455 705 LINE SMOOTH",
"443 705 OFFCURVE",
"431 703 OFFCURVE",
"423 691 CURVE SMOOTH",
"19 28 LINE SMOOTH",
"0 -3 OFFCURVE",
"48 -21 OFFCURVE",
"67 12 CURVE SMOOTH",
"463 665 LINE",
"437 665 LINE",
"571 30 LINE SMOOTH",
"575 14 OFFCURVE",
"584 0 OFFCURVE",
"601 0 CURVE SMOOTH"
);
},
{
closed = 1;
nodes = (
"559 191 LINE",
"540 239 LINE",
"162 239 LINE",
"146 191 LINE"
);
},
{
closed = 1;
nodes = (
"895 333 LINE SMOOTH",
"909 333 OFFCURVE",
"919 343 OFFCURVE",
"919 358 CURVE SMOOTH",
"919 373 OFFCURVE",
"909 383 OFFCURVE",
"895 383 CURVE SMOOTH",
"538 383 LINE",
"538 333 LINE"
);
}
);
width = 975;
},
{
anchors = (
{
name = bottom;
position = "{505, 0}";
},
{
name = top;
position = "{505, 705}";
}
);
layerId = "E1B555A7-F4E1-459C-9C1A-AE952106EEF9";
paths = (
{
closed = 1;
nodes = (
"904 0 LINE SMOOTH",
"957 0 OFFCURVE",
"980 23 OFFCURVE",
"980 61 CURVE SMOOTH",
"980 100 OFFCURVE",
"957 123 OFFCURVE",
"904 123 CURVE SMOOTH",
"681 123 LINE",
"570 617 LINE",
"539 582 LINE",
"904 582 LINE SMOOTH",
"957 582 OFFCURVE",
"980 606 OFFCURVE",
"980 644 CURVE SMOOTH",
"980 682 OFFCURVE",
"957 705 OFFCURVE",
"904 705 CURVE SMOOTH",
"473 705 LINE SMOOTH",
"439 705 OFFCURVE",
"403 691 OFFCURVE",
"383 661 CURVE SMOOTH",
"18 98 LINE SMOOTH",
"-41 9 OFFCURVE",
"93 -51 OFFCURVE",
"149 39 CURVE SMOOTH",
"480 571 LINE",
"437 571 LINE",
"553 45 LINE SMOOTH",
"560 16 OFFCURVE",
"588 0 OFFCURVE",
"624 0 CURVE SMOOTH"
);
},
{
closed = 1;
nodes = (
"586 154 LINE",
"550 276 LINE",
"198 276 LINE",
"136 154 LINE"
);
},
{
closed = 1;
nodes = (
"884 295 LINE SMOOTH",
"937 295 OFFCURVE",
"960 318 OFFCURVE",
"960 356 CURVE SMOOTH",
"960 395 OFFCURVE",
"937 418 OFFCURVE",
"884 418 CURVE SMOOTH",
"567 418 LINE",
"567 295 LINE"
);
}
);
width = 998;
}
);
leftKerningGroup = A;
rightKerningGroup = E;
rightMetricsKey = E;
unicode = 00C6;
userData = {
com.typemytype.robofont.layerData = {
b = {
anchors = (
);
components = (
);
contours = (
);
lib = {
};
name = AE;
unicodes = (
);
width = 1976;
};
};
};
},
{
glyphname = B;
lastChange = "2016-08-31 09:23:38 +0000";
layers = (
{
anchors = (
{
name = bottom;
position = "{331, 0}";
},
{
name = top;
position = "{330, 705}";
}
);
background = {
paths = (
{
closed = 1;
nodes = (
"364 0 LINE SMOOTH",
"499 0 OFFCURVE",
"594 61 OFFCURVE",
"594 191 CURVE SMOOTH",
"594 291 OFFCURVE",
"537 349 OFFCURVE",
"455 364 CURVE",
"455 356 LINE",
"522 376 OFFCURVE",
"578 426 OFFCURVE",
"578 520 CURVE SMOOTH",
"578 643 OFFCURVE",
"483 705 OFFCURVE",
"347 705 CURVE SMOOTH",
"116 705 LINE SMOOTH",
"99 705 OFFCURVE",
"86 693 OFFCURVE",
"86 677 CURVE SMOOTH",
"86 28 LINE SMOOTH",
"86 13 OFFCURVE",
"99 0 OFFCURVE",
"116 0 CURVE SMOOTH"
);
},
{
closed = 1;
nodes = (
"141 333 LINE",
"361 333 LINE SMOOTH",
"468 333 OFFCURVE",
"538 293 OFFCURVE",
"538 190 CURVE SMOOTH",
"538 86 OFFCURVE",
"468 51 OFFCURVE",
"361 51 CURVE SMOOTH",
"141 51 LINE"
);
},
{
closed = 1;
nodes = (
"141 654 LINE",
"346 654 LINE SMOOTH",
"452 654 OFFCURVE",
"522 619 OFFCURVE",
"522 522 CURVE SMOOTH",
"522 423 OFFCURVE",
"452 383 OFFCURVE",
"346 383 CURVE SMOOTH",
"141 383 LINE"
);
}
);
};
layerId = "9E718F8A-2CEA-4931-B05D-987794BD97DA";
paths = (
{
closed = 1;
nodes = (
"364 0 LINE SMOOTH",
"499 0 OFFCURVE",
"594 61 OFFCURVE",
"594 191 CURVE SMOOTH",
"594 291 OFFCURVE",
"537 349 OFFCURVE",
"455 364 CURVE",
"455 356 LINE",
"522 376 OFFCURVE",
"578 426 OFFCURVE",
"578 520 CURVE SMOOTH",
"578 643 OFFCURVE",
"483 705 OFFCURVE",
"347 705 CURVE SMOOTH",
"116 705 LINE SMOOTH",
"99 705 OFFCURVE",
"86 693 OFFCURVE",
"86 677 CURVE SMOOTH",
"86 28 LINE SMOOTH",
"86 13 OFFCURVE",
"99 0 OFFCURVE",
"116 0 CURVE SMOOTH"
);
},
{
closed = 1;
nodes = (
"140 333 LINE",
"361 333 LINE SMOOTH",
"468 333 OFFCURVE",
"538 293 OFFCURVE",
"538 190 CURVE SMOOTH",
"538 86 OFFCURVE",
"468 50 OFFCURVE",
"361 50 CURVE SMOOTH",
"140 50 LINE"
);
},
{
closed = 1;
nodes = (
"140 655 LINE",
"346 655 LINE SMOOTH",
"452 655 OFFCURVE",
"522 619 OFFCURVE",
"522 522 CURVE SMOOTH",
"522 423 OFFCURVE",
"452 383 OFFCURVE",
"346 383 CURVE SMOOTH",
"140 383 LINE"
);
}
);
width = 655;
},
{
anchors = (
{
name = bottom;
position = "{346, 0}";
},
{
name = top;
position = "{346, 705}";
}
);
layerId = "E1B555A7-F4E1-459C-9C1A-AE952106EEF9";
paths = (
{
closed = 1;
nodes = (
"404 0 LINE SMOOTH",
"561 0 OFFCURVE",
"651 77 OFFCURVE",
"651 193 CURVE SMOOTH",
"651 288 OFFCURVE",
"596 349 OFFCURVE",
"509 368 CURVE",
"509 360 LINE",
"583 382 OFFCURVE",
"633 440 OFFCURVE",
"633 522 CURVE SMOOTH",
"633 627 OFFCURVE",
"551 705 OFFCURVE",
"394 705 CURVE SMOOTH",
"141 705 LINE SMOOTH",
"93 705 OFFCURVE",
"66 678 OFFCURVE",
"66 630 CURVE SMOOTH",
"66 75 LINE SMOOTH",
"66 27 OFFCURVE",
"93 0 OFFCURVE",
"141 0 CURVE SMOOTH"
);
},
{
closed = 1;
nodes = (
"223 296 LINE",
"380 296 LINE SMOOTH",
"462 296 OFFCURVE",
"499 271 OFFCURVE",
"499 209 CURVE SMOOTH",
"499 149 OFFCURVE",
"462 123 OFFCURVE",
"380 123 CURVE SMOOTH",
"223 123 LINE"
);
},
{
closed = 1;
nodes = (
"223 582 LINE",
"362 582 LINE SMOOTH",
"443 582 OFFCURVE",
"480 556 OFFCURVE",
"480 500 CURVE SMOOTH",
"480 447 OFFCURVE",
"443 421 OFFCURVE",
"362 421 CURVE SMOOTH",
"223 421 LINE"
);
}
);
width = 682;
}
);
leftKerningGroup = H;
leftMetricsKey = H;
rightKerningGroup = B;
unicode = 0042;
userData = {
anchors = (
);
b = {
};
com.typemytype.robofont.layerData = {
b = {
anchors = (
);
components = (
);
contours = (
{
points = (
{
segmentType = curve;
smooth = 1;
x = 266;
y = 0;
},
{
segmentType = line;
smooth = 1;
x = 1035;
y = 0;
},
{
smooth = 0;
x = 1084;
y = 0;
},
{
smooth = 0;
x = 1108;
y = 36;
},
{
segmentType = curve;
smooth = 1;
x = 1108;
y = 73;
},
{
smooth = 0;
x = 1108;
y = 109;
},
{
smooth = 0;
x = 1084;
y = 145;
},
{
segmentType = curve;
smooth = 1;
x = 1035;
y = 145;
},
{
segmentType = line;
smooth = 0;
x = 353;
y = 145;
},
{
segmentType = line;
smooth = 0;
x = 353;
y = 662;
},
{
segmentType = line;
smooth = 1;
x = 975;
y = 662;
},
{
smooth = 0;
x = 1024;
y = 662;
},
{
smooth = 0;
x = 1049;
y = 698;
},
{
segmentType = curve;
smooth = 1;
x = 1049;
y = 734;
},
{
smooth = 0;
x = 1049;
y = 770;
},
{
smooth = 0;
x = 1026;
y = 806;
},
{
segmentType = curve;
smooth = 1;
x = 975;
y = 806;
},
{
segmentType = line;
smooth = 0;
x = 353;
y = 806;
},
{
segmentType = line;
smooth = 0;
x = 353;
y = 1281;
},
{
segmentType = line;
smooth = 1;
x = 1007;
y = 1281;
},
{
smooth = 0;
x = 1056;
y = 1281;
},
{
smooth = 0;
x = 1080;
y = 1317;
},
{
segmentType = curve;
smooth = 1;
x = 1080;
y = 1354;
},
{
smooth = 0;
x = 1080;
y = 1390;
},
{
smooth = 0;
x = 1056;
y = 1426;
},
{
segmentType = curve;
smooth = 1;
x = 1007;
y = 1426;
},
{
segmentType = line;
smooth = 1;
x = 261;
y = 1426;
},
{
smooth = 0;
x = 213;
y = 1426;
},
{
smooth = 0;
x = 178;
y = 1383;
},
{
segmentType = curve;
smooth = 1;
x = 178;
y = 1340;
},
{
segmentType = line;
smooth = 1;
x = 178;
y = 86;
},
{
smooth = 0;
x = 178;
y = 41;
},
{
smooth = 0;
x = 222;
y = 0;
}
);
}
);
lib = {
};
name = B;
unicodes = (
);
width = 1292;
};
};
components = (
);
contours = {
};
lib = {
};
name = B;
points = {
};
segmentType = curve;
unicodes = (
);
width = 1395;
x = 676;
y = 1260;
};
},
{
glyphname = C;
lastChange = "2016-08-31 09:23:44 +0000";
layers = (
{
anchors = (
{
name = bottom;
position = "{376, 0}";
},
{
name = top;
position = "{377, 705}";
}
);
layerId = "9E718F8A-2CEA-4931-B05D-987794BD97DA";
paths = (
{
closed = 1;
nodes = (
"463 -6 OFFCURVE",
"550 24 OFFCURVE",
"608 80 CURVE SMOOTH",
"616 89 OFFCURVE",
"620 98 OFFCURVE",
"620 107 CURVE SMOOTH",
"620 120 OFFCURVE",
"613 131 OFFCURVE",
"602 131 CURVE SMOOTH",
"595 131 OFFCURVE",
"589 128 OFFCURVE",
"581 122 CURVE SMOOTH",
"518 72 OFFCURVE",
"467 43 OFFCURVE",
"376 43 CURVE SMOOTH",
"208 43 OFFCURVE",
"116 161 OFFCURVE",
"116 353 CURVE SMOOTH",
"116 544 OFFCURVE",
"208 662 OFFCURVE",
"376 662 CURVE SMOOTH",
"467 662 OFFCURVE",
"518 633 OFFCURVE",
"581 583 CURVE SMOOTH",
"589 577 OFFCURVE",
"595 574 OFFCURVE",
"602 574 CURVE SMOOTH",
"612 574 OFFCURVE",
"620 585 OFFCURVE",
"620 598 CURVE SMOOTH",
"620 607 OFFCURVE",
"616 616 OFFCURVE",
"608 625 CURVE SMOOTH",
"550 681 OFFCURVE",
"463 711 OFFCURVE",
"377 711 CURVE SMOOTH",
"185 711 OFFCURVE",
"59 579 OFFCURVE",
"59 353 CURVE SMOOTH",
"59 126 OFFCURVE",
"185 -6 OFFCURVE",
"377 -6 CURVE SMOOTH"
);
}
);
width = 665;
},
{
anchors = (
{
name = bottom;
position = "{392, 0}";
},
{
name = top;
position = "{392, 705}";
}
);
layerId = "E1B555A7-F4E1-459C-9C1A-AE952106EEF9";
paths = (
{
closed = 1;
nodes = (
"487 -7 OFFCURVE",
"560 20 OFFCURVE",
"617 64 CURVE SMOOTH",
"639 80 OFFCURVE",
"645 97 OFFCURVE",
"645 120 CURVE SMOOTH",
"645 149 OFFCURVE",
"627 185 OFFCURVE",
"593 185 CURVE SMOOTH",
"574 185 OFFCURVE",
"562 178 OFFCURVE",
"544 168 CURVE SMOOTH",
"506 144 OFFCURVE",
"464 121 OFFCURVE",
"400 121 CURVE SMOOTH",
"276 121 OFFCURVE",
"210 197 OFFCURVE",
"210 353 CURVE SMOOTH",
"210 508 OFFCURVE",
"276 584 OFFCURVE",
"400 584 CURVE SMOOTH",
"464 584 OFFCURVE",
"506 561 OFFCURVE",
"544 537 CURVE SMOOTH",
"562 527 OFFCURVE",
"574 520 OFFCURVE",
"593 520 CURVE SMOOTH",
"627 520 OFFCURVE",
"645 556 OFFCURVE",
"645 585 CURVE SMOOTH",
"645 608 OFFCURVE",
"639 625 OFFCURVE",
"617 641 CURVE SMOOTH",
"560 685 OFFCURVE",
"487 712 OFFCURVE",
"392 712 CURVE SMOOTH",
"182 712 OFFCURVE",
"46 573 OFFCURVE",
"46 353 CURVE SMOOTH",
"46 132 OFFCURVE",
"182 -7 OFFCURVE",
"392 -7 CURVE SMOOTH"
);
}
);
width = 673;
}
);
leftKerningGroup = O;
leftMetricsKey = O;
rightKerningGroup = C;
unicode = 0043;
userData = {
anchors = (
);
b = {
};
com.typemytype.robofont.layerData = {
b = {
anchors = (
);
components = (
);
contours = (
);
lib = {
};
name = C;
unicodes = (
);
width = 1353.8900;
};
};
components = (
);
contours = (
);
lib = {
};
name = C;
unicodes = (
);
width = 1354;
};
},
{
glyphname = D;
lastChange = "2016-08-31 09:22:53 +0000";
layers = (
{
anchors = (
{
name = bottom;
position = "{358, 0}";
},
{
name = center;
position = "{358, 353}";
},
{
name = top;
position = "{357, 705}";
}
);
layerId = "9E718F8A-2CEA-4931-B05D-987794BD97DA";
paths = (
{
closed = 1;
nodes = (
"309 0 LINE SMOOTH",
"530 0 OFFCURVE",
"657 126 OFFCURVE",
"657 353 CURVE SMOOTH",
"657 581 OFFCURVE",
"530 705 OFFCURVE",
"309 705 CURVE SMOOTH",
"116 705 LINE SMOOTH",
"99 705 OFFCURVE",
"86 693 OFFCURVE",
"86 677 CURVE SMOOTH",
"86 28 LINE SMOOTH",
"86 13 OFFCURVE",
"99 0 OFFCURVE",
"116 0 CURVE SMOOTH"
);
},
{
closed = 1;
nodes = (
"140 655 LINE",
"307 655 LINE SMOOTH",
"511 655 OFFCURVE",
"600 545 OFFCURVE",
"600 353 CURVE SMOOTH",
"600 161 OFFCURVE",
"511 50 OFFCURVE",
"307 50 CURVE SMOOTH",
"140 50 LINE"
);
}
);
width = 716;
},
{
anchors = (
{
name = bottom;
position = "{379, 0}";
},
{
name = center;
position = "{379, 353}";
},
{
name = top;
position = "{379, 705}";
}
);
layerId = "E1B555A7-F4E1-459C-9C1A-AE952106EEF9";
paths = (
{
closed = 1;
nodes = (
"342 0 LINE SMOOTH",
"577 0 OFFCURVE",
"713 132 OFFCURVE",
"713 353 CURVE SMOOTH",
"713 573 OFFCURVE",
"577 705 OFFCURVE",
"342 705 CURVE SMOOTH",
"141 705 LINE SMOOTH",
"93 705 OFFCURVE",
"66 678 OFFCURVE",
"66 630 CURVE SMOOTH",
"66 75 LINE SMOOTH",
"66 27 OFFCURVE",
"93 0 OFFCURVE",
"141 0 CURVE SMOOTH"
);
},
{
closed = 1;
nodes = (
"227 575 LINE",
"331 575 LINE SMOOTH",
"472 575 OFFCURVE",
"552 509 OFFCURVE",
"552 353 CURVE SMOOTH",
"552 197 OFFCURVE",
"472 130 OFFCURVE",
"331 130 CURVE SMOOTH",
"227 130 LINE"
);
}
);
width = 759;
}
);
leftKerningGroup = H;
leftMetricsKey = I;
rightKerningGroup = O;
rightMetricsKey = O;
unicode = 0044;
userData = {
anchors = (
);
b = {
};
com.typemytype.robofont.layerData = {
b = {
anchors = (
);
components = (
);
contours = (
{
points = (
{
segmentType = curve;
smooth = 1;
x = 266;
y = 0;
},
{
segmentType = line;
smooth = 1;
x = 1035;
y = 0;
},
{
smooth = 0;
x = 1084;
y = 0;
},
{
smooth = 0;
x = 1108;
y = 34;
},
{
segmentType = curve;
smooth = 1;
x = 1108;
y = 71;
},
{
smooth = 0;
x = 1108;
y = 107;
},
{
smooth = 0;
x = 1084;
y = 141;
},
{
segmentType = curve;
smooth = 1;
x = 1035;
y = 141;
},
{
segmentType = line;
smooth = 0;
x = 356;
y = 141;
},
{
segmentType = line;
smooth = 0;
x = 356;
y = 665;
},
{
segmentType = line;
smooth = 1;
x = 975;
y = 665;
},
{
smooth = 0;
x = 1024;
y = 665;
},
{
smooth = 0;
x = 1049;
y = 698;
},
{
segmentType = curve;
smooth = 1;
x = 1049;
y = 734;
},
{
smooth = 0;
x = 1049;
y = 770;
},
{
smooth = 0;
x = 1026;
y = 803;
},
{
segmentType = curve;
smooth = 1;
x = 975;
y = 803;
},
{
segmentType = line;
smooth = 0;
x = 356;
y = 803;
},
{
segmentType = line;
smooth = 0;
x = 356;
y = 1285;
},
{
segmentType = line;
smooth = 1;
x = 1007;
y = 1285;
},
{
smooth = 0;
x = 1056;
y = 1285;
},
{
smooth = 0;
x = 1080;
y = 1319;
},
{
segmentType = curve;
smooth = 1;
x = 1080;
y = 1356;
},
{
smooth = 0;
x = 1080;
y = 1392;
},
{
smooth = 0;
x = 1056;
y = 1426;
},
{
segmentType = curve;
smooth = 1;
x = 1007;
y = 1426;
},
{
segmentType = line;
smooth = 1;
x = 261;
y = 1426;
},
{
smooth = 0;
x = 213;
y = 1426;
},
{
smooth = 0;
x = 178;
y = 1383;
},
{
segmentType = curve;
smooth = 1;
x = 178;
y = 1340;
},
{
segmentType = line;
smooth = 1;
x = 178;
y = 86;
},
{
smooth = 0;
x = 178;
y = 41;
},
{
smooth = 0;
x = 222;
y = 0;
}
);
}
);
lib = {
};
name = D;
unicodes = (
);
width = 1499;
};
};
components = (
);
contours = (
);
lib = {
};
name = D;
unicodes = (
);
width = 1535;
};
},
{
glyphname = Eth;
lastChange = "2016-08-29 20:47:28 +0000";
layers = (
{
background = {
components = (
{
name = D;
transform = "{1, 0, 0, 1, 13, 0}";
},
{
name = hyphen;
transform = "{1, 0, 0, 1, -8, 95}";
}
);
};
layerId = "9E718F8A-2CEA-4931-B05D-987794BD97DA";
paths = (
{
closed = 1;
nodes = (
"323 0 LINE SMOOTH",
"544 0 OFFCURVE",
"671 126 OFFCURVE",
"671 353 CURVE SMOOTH",
"671 581 OFFCURVE",
"544 705 OFFCURVE",
"323 705 CURVE SMOOTH",
"130 705 LINE SMOOTH",
"113 705 OFFCURVE",
"100 693 OFFCURVE",
"100 677 CURVE SMOOTH",
"100 28 LINE SMOOTH",
"100 13 OFFCURVE",
"113 0 OFFCURVE",
"130 0 CURVE SMOOTH"
);
},
{
closed = 1;
nodes = (
"331 335 LINE SMOOTH",
"345 335 OFFCURVE",
"354 343 OFFCURVE",
"354 358 CURVE SMOOTH",
"354 373 OFFCURVE",
"345 381 OFFCURVE",
"331 381 CURVE SMOOTH",
"25 381 LINE SMOOTH",
"11 381 OFFCURVE",
"0 373 OFFCURVE",
"0 358 CURVE SMOOTH",
"0 343 OFFCURVE",
"11 335 OFFCURVE",
"25 335 CURVE SMOOTH"
);
},
{
closed = 1;
nodes = (
"154 655 LINE",
"321 655 LINE SMOOTH",
"525 655 OFFCURVE",
"614 545 OFFCURVE",
"614 353 CURVE SMOOTH",
"614 161 OFFCURVE",
"525 50 OFFCURVE",
"321 50 CURVE SMOOTH",
"154 50 LINE"
);
}
);
width = 730;
},
{
background = {
components = (
{
name = D;
transform = "{1, 0, 0, 1, 32, 0}";
},
{
name = hyphen;
transform = "{1, 0, 0, 1, 7, 98}";
}
);
};
layerId = "E1B555A7-F4E1-459C-9C1A-AE952106EEF9";
paths = (
{
closed = 1;
nodes = (
"376 0 LINE SMOOTH",
"611 0 OFFCURVE",
"747 132 OFFCURVE",
"747 353 CURVE SMOOTH",
"747 573 OFFCURVE",
"611 705 OFFCURVE",
"376 705 CURVE SMOOTH",
"175 705 LINE SMOOTH",
"127 705 OFFCURVE",
"100 678 OFFCURVE",
"100 630 CURVE SMOOTH",
"100 75 LINE SMOOTH",
"100 27 OFFCURVE",
"127 0 OFFCURVE",
"175 0 CURVE SMOOTH"
);
},
{
closed = 1;
nodes = (
"389 295 LINE SMOOTH",
"437 295 OFFCURVE",
"461 319 OFFCURVE",
"461 356 CURVE SMOOTH",
"461 393 OFFCURVE",
"437 417 OFFCURVE",
"389 417 CURVE SMOOTH",
"72 417 LINE SMOOTH",
"24 417 OFFCURVE",
"0 393 OFFCURVE",
"0 356 CURVE SMOOTH",
"0 319 OFFCURVE",
"24 295 OFFCURVE",
"72 295 CURVE SMOOTH"
);
},
{
closed = 1;
nodes = (
"261 575 LINE",
"365 575 LINE SMOOTH",
"506 575 OFFCURVE",
"586 509 OFFCURVE",
"586 353 CURVE SMOOTH",
"586 197 OFFCURVE",
"506 130 OFFCURVE",
"365 130 CURVE SMOOTH",
"261 130 LINE"
);
}
);
width = 793;
}
);
leftKerningGroup = H;
rightKerningGroup = O;
rightMetricsKey = O;
unicode = 00D0;
},
{
glyphname = E;
lastChange = "2016-08-31 09:19:29 +0000";
layers = (
{
anchors = (
{
name = bottom;
position = "{314, 0}";
},
{
name = ogonek;
position = "{498, 10}";
},
{
name = top;
position = "{314, 705}";
},
{
name = topleft;
position = "{19, 705}";
}
);
guideLines = (
{
angle = 90;
position = "{522, 247}";
}
);
layerId = "9E718F8A-2CEA-4931-B05D-987794BD97DA";
paths = (
{
closed = 1;
nodes = (
"498 0 LINE SMOOTH",
"512 0 OFFCURVE",
"522 10 OFFCURVE",
"522 25 CURVE SMOOTH",
"522 41 OFFCURVE",
"512 50 OFFCURVE",
"498 50 CURVE SMOOTH",
"140 50 LINE",
"140 333 LINE",
"478 333 LINE SMOOTH",
"492 333 OFFCURVE",
"502 343 OFFCURVE",
"502 358 CURVE SMOOTH",
"502 373 OFFCURVE",
"492 383 OFFCURVE",
"478 383 CURVE SMOOTH",
"140 383 LINE",
"140 655 LINE",
"498 655 LINE SMOOTH",
"512 655 OFFCURVE",
"522 664 OFFCURVE",
"522 680 CURVE SMOOTH",
"522 695 OFFCURVE",
"512 705 OFFCURVE",
"498 705 CURVE SMOOTH",
"116 705 LINE SMOOTH",
"99 705 OFFCURVE",
"86 693 OFFCURVE",
"86 677 CURVE SMOOTH",
"86 28 LINE SMOOTH",
"86 13 OFFCURVE",
"99 0 OFFCURVE",
"116 0 CURVE SMOOTH"
);
}
);
width = 558;
},
{
anchors = (
{
name = bottom;
position = "{328, 0}";
},
{
name = ogonek;
position = "{533, 10}";
},
{
name = top;
position = "{328, 705}";
},
{
name = topleft;
position = "{18, 705}";
}
);
guideLines = (
{
angle = 90;
position = "{570, 247}";
}
);
layerId = "E1B555A7-F4E1-459C-9C1A-AE952106EEF9";
paths = (
{
closed = 1;
nodes = (
"494 0 LINE SMOOTH",
"547 0 OFFCURVE",
"570 23 OFFCURVE",
"570 61 CURVE SMOOTH",
"570 100 OFFCURVE",
"547 123 OFFCURVE",
"494 123 CURVE SMOOTH",
"223 123 LINE",
"223 297 LINE",
"474 297 LINE SMOOTH",
"527 297 OFFCURVE",
"550 320 OFFCURVE",
"550 358 CURVE SMOOTH",
"550 397 OFFCURVE",
"527 420 OFFCURVE",
"474 420 CURVE SMOOTH",
"223 420 LINE",
"223 582 LINE",
"494 582 LINE SMOOTH",
"547 582 OFFCURVE",
"570 605 OFFCURVE",
"570 644 CURVE SMOOTH",
"570 682 OFFCURVE",
"547 705 OFFCURVE",
"494 705 CURVE SMOOTH",
"141 705 LINE SMOOTH",
"93 705 OFFCURVE",
"66 678 OFFCURVE",
"66 630 CURVE SMOOTH",
"66 75 LINE SMOOTH",
"66 27 OFFCURVE",
"93 0 OFFCURVE",
"141 0 CURVE SMOOTH"
);
}
);
width = 588;
}
);
leftKerningGroup = H;
leftMetricsKey = H;
rightKerningGroup = E;
unicode = 0045;
userData = {
anchors = (
);
b = {
};
com.typemytype.robofont.layerData = {
b = {
anchors = (
);
components = (
);
contours = (
);
lib = {
};
name = E;
unicodes = (
);
width = 1234;
};
};
components = (
);
contours = (
);
lib = {
};
name = E;
unicodes = (
);
width = 1258;
};
},
{
glyphname = Eogonek;
lastChange = "2016-08-29 19:31:13 +0000";
layers = (
{
anchors = (
{
name = top;
position = "{314, 705}";
}
);
background = {
paths = (
{
closed = 1;
nodes = (
"498 0 LINE SMOOTH",
"512 0 OFFCURVE",
"522 10 OFFCURVE",
"522 25 CURVE SMOOTH",
"522 41 OFFCURVE",
"512 50 OFFCURVE",
"498 50 CURVE SMOOTH",
"140 50 LINE",
"140 333 LINE",
"478 333 LINE SMOOTH",
"492 333 OFFCURVE",
"502 343 OFFCURVE",
"502 358 CURVE SMOOTH",
"502 373 OFFCURVE",
"492 383 OFFCURVE",
"478 383 CURVE SMOOTH",
"140 383 LINE",
"140 655 LINE",
"498 655 LINE SMOOTH",
"512 655 OFFCURVE",
"522 664 OFFCURVE",
"522 680 CURVE SMOOTH",
"522 695 OFFCURVE",
"512 705 OFFCURVE",
"498 705 CURVE SMOOTH",
"116 705 LINE SMOOTH",
"99 705 OFFCURVE",
"86 693 OFFCURVE",
"86 677 CURVE SMOOTH",
"86 28 LINE SMOOTH",
"86 13 OFFCURVE",
"99 0 OFFCURVE",
"116 0 CURVE SMOOTH"
);
},
{
closed = 1;
nodes = (
"494 -191 OFFCURVE",
"517 -186 OFFCURVE",
"538 -174 CURVE SMOOTH",
"562 -160 OFFCURVE",
"553 -119 OFFCURVE",
"522 -135 CURVE SMOOTH",
"504 -144 OFFCURVE",
"486 -148 OFFCURVE",
"474 -148 CURVE SMOOTH",
"434 -148 OFFCURVE",
"406 -125 OFFCURVE",
"406 -82 CURVE SMOOTH",
"406 -38 OFFCURVE",
"434 -2 OFFCURVE",
"498 10 CURVE",
"486 41 LINE",
"402 27 OFFCURVE",
"356 -24 OFFCURVE",
"356 -88 CURVE SMOOTH",
"356 -148 OFFCURVE",
"401 -191 OFFCURVE",
"469 -191 CURVE SMOOTH"
);
}
);
};
layerId = "9E718F8A-2CEA-4931-B05D-987794BD97DA";
paths = (
{
closed = 1;
nodes = (
"504 -144 OFFCURVE",
"486 -148 OFFCURVE",
"474 -148 CURVE SMOOTH",
"434 -148 OFFCURVE",
"406 -125 OFFCURVE",
"406 -82 CURVE SMOOTH",
"406 -38 OFFCURVE",
"434 -4 OFFCURVE",
"498 0 CURVE SMOOTH",
"513 1 OFFCURVE",
"522 10 OFFCURVE",
"522 25 CURVE SMOOTH",
"522 41 OFFCURVE",
"512 50 OFFCURVE",
"498 50 CURVE SMOOTH",
"140 50 LINE",
"140 333 LINE",
"478 333 LINE SMOOTH",
"492 333 OFFCURVE",
"502 343 OFFCURVE",
"502 358 CURVE SMOOTH",
"502 373 OFFCURVE",
"492 383 OFFCURVE",
"478 383 CURVE SMOOTH",
"140 383 LINE",
"140 655 LINE",
"498 655 LINE SMOOTH",
"512 655 OFFCURVE",
"522 664 OFFCURVE",
"522 680 CURVE SMOOTH",
"522 695 OFFCURVE",
"512 705 OFFCURVE",
"498 705 CURVE SMOOTH",
"116 705 LINE SMOOTH",
"99 705 OFFCURVE",
"86 693 OFFCURVE",
"86 677 CURVE SMOOTH",
"86 28 LINE SMOOTH",
"86 13 OFFCURVE",
"99 0 OFFCURVE",
"116 0 CURVE SMOOTH",
"439 0 LINE",
"424 19 LINE",
"379 -4 OFFCURVE",
"356 -44 OFFCURVE",
"356 -88 CURVE SMOOTH",
"356 -148 OFFCURVE",
"401 -191 OFFCURVE",
"469 -191 CURVE SMOOTH",
"494 -191 OFFCURVE",
"517 -186 OFFCURVE",
"538 -174 CURVE SMOOTH",
"562 -160 OFFCURVE",
"553 -119 OFFCURVE",
"522 -135 CURVE SMOOTH"
);
}
);
width = 558;
},
{
anchors = (
{
name = top;
position = "{328, 705}";
}
);
background = {
paths = (
{
closed = 1;
nodes = (
"494 0 LINE SMOOTH",
"547 0 OFFCURVE",
"570 23 OFFCURVE",
"570 61 CURVE SMOOTH",
"570 100 OFFCURVE",
"547 123 OFFCURVE",
"494 123 CURVE SMOOTH",
"223 123 LINE",
"223 297 LINE",
"474 297 LINE SMOOTH",
"527 297 OFFCURVE",
"550 320 OFFCURVE",
"550 358 CURVE SMOOTH",
"550 397 OFFCURVE",
"527 420 OFFCURVE",
"474 420 CURVE SMOOTH",
"223 420 LINE",
"223 582 LINE",
"494 582 LINE SMOOTH",
"547 582 OFFCURVE",
"570 605 OFFCURVE",
"570 644 CURVE SMOOTH",
"570 682 OFFCURVE",
"547 705 OFFCURVE",
"494 705 CURVE SMOOTH",
"141 705 LINE SMOOTH",
"93 705 OFFCURVE",
"66 678 OFFCURVE",
"66 630 CURVE SMOOTH",
"66 75 LINE SMOOTH",
"66 27 OFFCURVE",
"93 0 OFFCURVE",
"141 0 CURVE SMOOTH"
);
},
{
closed = 1;
nodes = (
"524 -197 OFFCURVE",
"553 -191 OFFCURVE",
"582 -174 CURVE SMOOTH",
"615 -155 OFFCURVE",
"600 -98 OFFCURVE",
"564 -109 CURVE SMOOTH",
"542 -115 OFFCURVE",
"531 -117 OFFCURVE",
"516 -117 CURVE SMOOTH",
"488 -117 OFFCURVE",
"464 -99 OFFCURVE",
"464 -64 CURVE SMOOTH",
"464 -27 OFFCURVE",
"488 -3 OFFCURVE",
"533 10 CURVE",
"516 46 LINE",
"415 33 OFFCURVE",
"365 -22 OFFCURVE",
"365 -87 CURVE SMOOTH",
"365 -154 OFFCURVE",
"421 -197 OFFCURVE",
"493 -197 CURVE SMOOTH"
);
}
);
};
layerId = "E1B555A7-F4E1-459C-9C1A-AE952106EEF9";
paths = (
{
closed = 1;
nodes = (
"542 -115 OFFCURVE",
"531 -117 OFFCURVE",
"516 -117 CURVE SMOOTH",
"488 -117 OFFCURVE",
"464 -99 OFFCURVE",
"464 -64 CURVE SMOOTH",
"464 -27 OFFCURVE",
"487 -7 OFFCURVE",
"515 0 CURVE SMOOTH",
"548 8 OFFCURVE",
"570 23 OFFCURVE",
"570 61 CURVE SMOOTH",
"570 100 OFFCURVE",
"547 123 OFFCURVE",
"494 123 CURVE SMOOTH",
"223 123 LINE",
"223 297 LINE",
"474 297 LINE SMOOTH",
"527 297 OFFCURVE",
"550 320 OFFCURVE",
"550 358 CURVE SMOOTH",
"550 397 OFFCURVE",
"527 420 OFFCURVE",
"474 420 CURVE SMOOTH",
"223 420 LINE",
"223 582 LINE",
"494 582 LINE SMOOTH",
"547 582 OFFCURVE",
"570 605 OFFCURVE",
"570 644 CURVE SMOOTH",
"570 682 OFFCURVE",
"547 705 OFFCURVE",
"494 705 CURVE SMOOTH",
"141 705 LINE SMOOTH",
"93 705 OFFCURVE",
"66 678 OFFCURVE",
"66 630 CURVE SMOOTH",
"66 75 LINE SMOOTH",
"66 27 OFFCURVE",
"93 0 OFFCURVE",
"141 0 CURVE SMOOTH",
"449 0 LINE",
"431 20 LINE",
"385 -6 OFFCURVE",
"365 -44 OFFCURVE",
"365 -87 CURVE SMOOTH",
"365 -154 OFFCURVE",
"421 -197 OFFCURVE",
"493 -197 CURVE SMOOTH",
"524 -197 OFFCURVE",
"553 -191 OFFCURVE",
"582 -174 CURVE SMOOTH",
"615 -155 OFFCURVE",
"600 -98 OFFCURVE",
"564 -109 CURVE SMOOTH"
);
}
);
width = 588;
}
);
leftKerningGroup = H;
leftMetricsKey = E;
widthMetricsKey = E;
rightKerningGroup = E;
unicode = 0118;
userData = {
com.typemytype.robofont.layerData = {
b = {
anchors = (
);
components = (
);
contours = (
);
lib = {
};
name = Eogonek;
unicodes = (
);
width = 1234;
};
};
};
},
{
glyphname = F;
lastChange = "2016-08-31 09:23:51 +0000";
layers = (
{
anchors = (
{
name = bottom;
position = "{299, 0}";
},
{
name = top;
position = "{278, 705}";
}
);
layerId = "9E718F8A-2CEA-4931-B05D-987794BD97DA";
paths = (
{
closed = 1;
nodes = (
"132 -5 OFFCURVE",
"140 7 OFFCURVE",
"140 24 CURVE SMOOTH",
"140 333 LINE",
"468 333 LINE SMOOTH",
"482 333 OFFCURVE",
"492 343 OFFCURVE",
"492 358 CURVE SMOOTH",
"492 373 OFFCURVE",
"482 383 OFFCURVE",
"468 383 CURVE SMOOTH",
"140 383 LINE",
"140 655 LINE",
"488 655 LINE SMOOTH",
"502 655 OFFCURVE",
"512 665 OFFCURVE",
"512 680 CURVE SMOOTH",
"512 695 OFFCURVE",
"502 705 OFFCURVE",
"488 705 CURVE SMOOTH",
"116 705 LINE SMOOTH",
"99 705 OFFCURVE",
"86 693 OFFCURVE",
"86 677 CURVE SMOOTH",
"86 24 LINE SMOOTH",
"86 7 OFFCURVE",
"97 -5 OFFCURVE",
"113 -5 CURVE SMOOTH"
);
}
);
width = 539;
},
{
anchors = (
{
name = bottom;
position = "{313, 0}";
},
{
name = top;
position = "{285, 705}";
}
);
layerId = "E1B555A7-F4E1-459C-9C1A-AE952106EEF9";
paths = (
{
closed = 1;
nodes = (
"189 -6 OFFCURVE",
"225 20 OFFCURVE",
"225 74 CURVE SMOOTH",
"225 294 LINE",
"464 294 LINE SMOOTH",
"517 294 OFFCURVE",
"540 317 OFFCURVE",
"540 358 CURVE SMOOTH",
"540 400 OFFCURVE",
"517 423 OFFCURVE",
"464 423 CURVE SMOOTH",
"225 423 LINE",
"225 576 LINE",
"484 576 LINE SMOOTH",
"537 576 OFFCURVE",
"560 599 OFFCURVE",
"560 640 CURVE SMOOTH",
"560 682 OFFCURVE",
"537 705 OFFCURVE",
"484 705 CURVE SMOOTH",
"141 705 LINE SMOOTH",
"93 705 OFFCURVE",
"66 678 OFFCURVE",
"66 630 CURVE SMOOTH",
"66 74 LINE SMOOTH",
"66 26 OFFCURVE",
"97 -6 OFFCURVE",
"146 -6 CURVE SMOOTH"
);
}
);
width = 567;
}
);
leftKerningGroup = H;
leftMetricsKey = H;
rightKerningGroup = F;
unicode = 0046;
userData = {
anchors = (
);
b = {
};
com.typemytype.robofont.layerData = {
b = {
anchors = (
);
components = (
);
contours = (
{
points = (
{
segmentType = curve;
smooth = 1;
x = 266;
y = 0;
},
{
segmentType = line;
smooth = 1;
x = 1035;
y = 0;
},
{
smooth = 0;
x = 1084;
y = 0;
},
{
smooth = 0;
x = 1108;
y = 34;
},
{
segmentType = curve;
smooth = 1;
x = 1108;
y = 71;
},
{
smooth = 0;
x = 1108;
y = 107;
},
{
smooth = 0;
x = 1084;
y = 141;
},
{
segmentType = curve;
smooth = 1;
x = 1035;
y = 141;
},
{
segmentType = line;
smooth = 0;
x = 353;
y = 141;
},
{
segmentType = line;
smooth = 0;
x = 353;
y = 665;
},
{
segmentType = line;
smooth = 1;
x = 975;
y = 665;
},
{
smooth = 0;
x = 1024;
y = 665;
},
{
smooth = 0;
x = 1049;
y = 698;
},
{
segmentType = curve;
smooth = 1;
x = 1049;
y = 734;
},
{
smooth = 0;
x = 1049;
y = 770;
},
{
smooth = 0;
x = 1026;
y = 803;
},
{
segmentType = curve;
smooth = 1;
x = 975;
y = 803;
},
{
segmentType = line;
smooth = 0;
x = 353;
y = 803;
},
{
segmentType = line;
smooth = 0;
x = 353;
y = 1285;
},
{
segmentType = line;
smooth = 1;
x = 1007;
y = 1285;
},
{
smooth = 0;
x = 1056;
y = 1285;
},
{
smooth = 0;
x = 1080;
y = 1319;
},
{
segmentType = curve;
smooth = 1;
x = 1080;
y = 1356;
},
{
smooth = 0;
x = 1080;
y = 1392;
},
{
smooth = 0;
x = 1056;
y = 1426;
},
{
segmentType = curve;
smooth = 1;
x = 1007;
y = 1426;
},
{
segmentType = line;
smooth = 1;
x = 261;
y = 1426;
},
{
smooth = 0;
x = 213;
y = 1426;
},
{
smooth = 0;
x = 178;
y = 1383;
},
{
segmentType = curve;
smooth = 1;
x = 178;
y = 1340;
},
{
segmentType = line;
smooth = 1;
x = 178;
y = 86;
},
{
smooth = 0;
x = 178;
y = 41;
},
{
smooth = 0;
x = 222;
y = 0;
}
);
}
);
lib = {
};
name = F;
unicodes = (
);
width = 1142;
};
};
components = (
);
contours = (
);
lib = {
};
name = F;
unicodes = (
);
width = 1175;
};
},
{
glyphname = G;
lastChange = "2016-08-31 09:24:00 +0000";
layers = (
{
anchors = (
{
name = bottom;
position = "{387, 0}";
},
{
name = top;
position = "{380, 705}";
}
);
layerId = "9E718F8A-2CEA-4931-B05D-987794BD97DA";
paths = (
{
closed = 1;
nodes = (
"472 -6 OFFCURVE",
"557 10 OFFCURVE",
"608 34 CURVE SMOOTH",
"622 41 OFFCURVE",
"627 52 OFFCURVE",
"627 64 CURVE SMOOTH",
"627 334 LINE SMOOTH",
"627 349 OFFCURVE",
"617 359 OFFCURVE",
"603 359 CURVE SMOOTH",
"404 359 LINE SMOOTH",
"392 359 OFFCURVE",
"383 348 OFFCURVE",
"383 334 CURVE SMOOTH",
"383 320 OFFCURVE",
"392 309 OFFCURVE",
"404 309 CURVE SMOOTH",
"577 309 LINE",
"577 43 LINE",
"591 82 LINE",
"543 60 OFFCURVE",
"471 44 OFFCURVE",
"387 44 CURVE SMOOTH",
"203 44 OFFCURVE",
"116 163 OFFCURVE",
"116 353 CURVE SMOOTH",
"116 544 OFFCURVE",
"208 662 OFFCURVE",
"380 662 CURVE SMOOTH",
"471 662 OFFCURVE",
"522 633 OFFCURVE",
"585 583 CURVE SMOOTH",
"593 577 OFFCURVE",
"599 574 OFFCURVE",
"605 574 CURVE SMOOTH",
"616 574 OFFCURVE",
"624 585 OFFCURVE",
"624 598 CURVE SMOOTH",
"624 607 OFFCURVE",
"620 616 OFFCURVE",
"612 625 CURVE SMOOTH",
"555 683 OFFCURVE",
"467 711 OFFCURVE",
"380 711 CURVE SMOOTH",
"185 711 OFFCURVE",
"59 579 OFFCURVE",
"59 353 CURVE SMOOTH",
"59 126 OFFCURVE",
"182 -6 OFFCURVE",
"387 -6 CURVE SMOOTH"
);
}
);
width = 710;
},
{
anchors = (
{
name = bottom;
position = "{412, 0}";
},
{
name = top;
position = "{405, 705}";
}
);
layerId = "E1B555A7-F4E1-459C-9C1A-AE952106EEF9";
paths = (
{
closed = 1;
nodes = (
"476 -7 OFFCURVE",
"548 4 OFFCURVE",
"595 18 CURVE SMOOTH",
"661 37 OFFCURVE",
"675 62 OFFCURVE",
"675 142 CURVE SMOOTH",
"675 331 LINE SMOOTH",
"675 364 OFFCURVE",
"654 391 OFFCURVE",
"612 391 CURVE SMOOTH",
"442 391 LINE SMOOTH",
"404 391 OFFCURVE",
"380 372 OFFCURVE",
"380 335 CURVE SMOOTH",
"380 298 OFFCURVE",
"404 279 OFFCURVE",
"442 279 CURVE SMOOTH",
"531 279 LINE",
"531 90 LINE",
"566 141 LINE",
"519 126 OFFCURVE",
"468 117 OFFCURVE",
"419 117 CURVE SMOOTH",
"296 117 OFFCURVE",
"209 175 OFFCURVE",
"209 353 CURVE SMOOTH",
"209 509 OFFCURVE",
"277 584 OFFCURVE",
"410 584 CURVE SMOOTH",
"482 584 OFFCURVE",
"524 561 OFFCURVE",
"562 537 CURVE SMOOTH",
"580 527 OFFCURVE",
"592 520 OFFCURVE",
"612 520 CURVE SMOOTH",
"645 520 OFFCURVE",
"663 556 OFFCURVE",
"663 585 CURVE SMOOTH",
"663 608 OFFCURVE",
"657 625 OFFCURVE",
"635 641 CURVE SMOOTH",
"578 685 OFFCURVE",
"505 712 OFFCURVE",
"405 712 CURVE SMOOTH",
"186 712 OFFCURVE",
"46 573 OFFCURVE",
"46 353 CURVE SMOOTH",
"46 132 OFFCURVE",
"182 -7 OFFCURVE",
"412 -7 CURVE SMOOTH"
);
}
);
width = 733;
}
);
leftKerningGroup = O;
leftMetricsKey = O;
rightKerningGroup = G;
unicode = 0047;
userData = {
anchors = (
);
b = {
};
com.typemytype.robofont.layerData = {
b = {
anchors = (
);
components = (
);
contours = (
{
points = (
{
segmentType = curve;
smooth = 1;
x = 783;
y = "-22";
},
{
smooth = 0;
x = 965;
y = "-22";
},
{
smooth = 0;
x = 1086;
y = 34;
},
{
segmentType = curve;
smooth = 1;
x = 1166;
y = 86;
},
{
smooth = 0;
x = 1270;
y = 154;
},
{
smooth = 0;
x = 1186;
y = 258;
},
{
segmentType = curve;
smooth = 1;
x = 1112;
y = 214;
},
{
smooth = 0;
x = 1024;
y = 162;
},
{
smooth = 0;
x = 939;
y = 120;
},
{
segmentType = curve;
smooth = 1;
x = 806;
y = 120;
},
{
smooth = 0;
x = 446;
y = 120;
},
{
smooth = 0;
x = 316;
y = 406;
},
{
segmentType = curve;
smooth = 1;
x = 316;
y = 706;
},
{
smooth = 0;
x = 316;
y = 1005;
},
{
smooth = 0;
x = 450;
y = 1296;
},
{
segmentType = curve;
smooth = 1;
x = 801;
y = 1296;
},
{
smooth = 0;
x = 980;
y = 1296;
},
{
smooth = 0;
x = 1053;
y = 1246;
},
{
segmentType = curve;
smooth = 1;
x = 1094;
y = 1225;
},
{
smooth = 0;
x = 1174;
y = 1184;
},
{
smooth = 0;
x = 1231;
y = 1300;
},
{
segmentType = curve;
smooth = 1;
x = 1156;
y = 1343;
},
{
smooth = 0;
x = 1106;
y = 1372;
},
{
smooth = 0;
x = 995;
y = 1438;
},
{
segmentType = curve;
smooth = 1;
x = 797;
y = 1438;
},
{
smooth = 0;
x = 359;
y = 1438;
},
{
smooth = 0;
x = 128;
y = 1093;
},
{
segmentType = curve;
smooth = 1;
x = 128;
y = 704;
},
{
smooth = 0;
x = 128;
y = 307;
},
{
smooth = 0;
x = 350;
y = "-22";
}
);
}
);
lib = {
};
name = G;
unicodes = (
);
width = 1448;
};
};
components = (
);
contours = (
);
lib = {
};
name = G;
unicodes = (
);
width = 1538;
};
},
{
glyphname = H;
lastChange = "2016-08-29 19:31:13 +0000";
layers = (
{
anchors = (
{
name = bottom;
position = "{370, 0}";
},
{
name = center;
position = "{370, 358}";
},
{
name = top;
position = "{369, 705}";
},
{
name = topleft;
position = "{19, 705}";
}
);
layerId = "9E718F8A-2CEA-4931-B05D-987794BD97DA";
paths = (
{
closed = 1;
nodes = (
"643 -5 OFFCURVE",
"653 7 OFFCURVE",
"653 24 CURVE SMOOTH",
"653 681 LINE SMOOTH",
"653 698 OFFCURVE",
"643 710 OFFCURVE",
"626 710 CURVE SMOOTH",
"609 710 OFFCURVE",
"599 698 OFFCURVE",
"599 681 CURVE SMOOTH",
"599 24 LINE SMOOTH",
"599 7 OFFCURVE",
"609 -5 OFFCURVE",
"626 -5 CURVE SMOOTH"
);
},
{
closed = 1;
nodes = (
"130 -5 OFFCURVE",
"140 7 OFFCURVE",
"140 24 CURVE SMOOTH",
"140 681 LINE SMOOTH",
"140 698 OFFCURVE",
"130 710 OFFCURVE",
"113 710 CURVE SMOOTH",
"96 710 OFFCURVE",
"86 698 OFFCURVE",
"86 681 CURVE SMOOTH",
"86 24 LINE SMOOTH",
"86 7 OFFCURVE",
"96 -5 OFFCURVE",
"113 -5 CURVE SMOOTH"
);
},
{
closed = 1;
nodes = (
"608 333 LINE",
"608 383 LINE",
"120 383 LINE",
"120 333 LINE"
);
}
);
width = 739;
},
{
anchors = (
{
name = bottom;
position = "{383, 0}";
},
{
name = center;
position = "{383, 358}";
},
{
name = top;
position = "{383, 705}";
},
{
name = topleft;
position = "{18, 705}";
}
);
layerId = "E1B555A7-F4E1-459C-9C1A-AE952106EEF9";
paths = (
{
closed = 1;
nodes = (
"663 -6 OFFCURVE",
"700 20 OFFCURVE",
"700 74 CURVE SMOOTH",
"700 631 LINE SMOOTH",
"700 684 OFFCURVE",
"663 710 OFFCURVE",
"621 710 CURVE SMOOTH",
"578 710 OFFCURVE",
"542 684 OFFCURVE",
"542 631 CURVE SMOOTH",
"542 74 LINE SMOOTH",
"542 20 OFFCURVE",
"578 -6 OFFCURVE",
"621 -6 CURVE SMOOTH"
);
},
{
closed = 1;
nodes = (
"187 -6 OFFCURVE",
"224 20 OFFCURVE",
"224 74 CURVE SMOOTH",
"224 631 LINE SMOOTH",
"224 684 OFFCURVE",
"187 710 OFFCURVE",
"145 710 CURVE SMOOTH",
"102 710 OFFCURVE",
"66 684 OFFCURVE",
"66 631 CURVE SMOOTH",
"66 74 LINE SMOOTH",
"66 20 OFFCURVE",
"102 -6 OFFCURVE",
"145 -6 CURVE SMOOTH"
);
},
{
closed = 1;
nodes = (
"637 293 LINE",
"637 423 LINE",
"117 423 LINE",
"117 293 LINE"
);
}
);
width = 766;
}
);
leftKerningGroup = H;
rightKerningGroup = H;
unicode = 0048;
userData = {
anchors = (
);
b = {
};
com.typemytype.robofont.layerData = {
b = {
anchors = (
);
components = (
);
contours = (
);
lib = {
};
name = H;
unicodes = (
);
width = 1464;
};
};
components = (
);
contours = (
);
lib = {
};
name = H;
unicodes = (
);
width = 1524;
};
},
{
glyphname = Hbar;
lastChange = "2016-08-29 20:47:20 +0000";
layers = (
{
background = {
components = (
{
name = H;
transform = "{1, 0, 0, 1, 13, 0}";
}
);
paths = (
{
closed = 1;
nodes = (
"75 547 LINE SMOOTH",
"57 547 OFFCURVE",
"45 540 OFFCURVE",
"45 525 CURVE SMOOTH",
"45 511 OFFCURVE",
"57 504 OFFCURVE",
"75 504 CURVE SMOOTH",
"654 504 LINE SMOOTH",
"672 504 OFFCURVE",
"684 511 OFFCURVE",
"684 525 CURVE SMOOTH",
"684 540 OFFCURVE",
"672 547 OFFCURVE",
"654 547 CURVE SMOOTH"
);
}
);
};
layerId = "9E718F8A-2CEA-4931-B05D-987794BD97DA";
paths = (
{
closed = 1;
nodes = (
"657 -5 OFFCURVE",
"667 7 OFFCURVE",
"667 24 CURVE SMOOTH",
"667 681 LINE SMOOTH",
"667 698 OFFCURVE",
"657 710 OFFCURVE",
"640 710 CURVE SMOOTH",
"623 710 OFFCURVE",
"613 698 OFFCURVE",
"613 681 CURVE SMOOTH",
"613 24 LINE SMOOTH",
"613 7 OFFCURVE",
"623 -5 OFFCURVE",
"640 -5 CURVE SMOOTH"
);
},
{
closed = 1;
nodes = (
"144 -5 OFFCURVE",
"154 7 OFFCURVE",
"154 24 CURVE SMOOTH",
"154 681 LINE SMOOTH",
"154 698 OFFCURVE",
"144 710 OFFCURVE",
"127 710 CURVE SMOOTH",
"110 710 OFFCURVE",
"100 698 OFFCURVE",
"100 681 CURVE SMOOTH",
"100 24 LINE SMOOTH",
"100 7 OFFCURVE",
"110 -5 OFFCURVE",
"127 -5 CURVE SMOOTH"
);
},
{
closed = 1;
nodes = (
"622 333 LINE",
"622 383 LINE",
"134 383 LINE",
"134 333 LINE"
);
},
{
closed = 1;
nodes = (
"744 525 LINE SMOOTH",
"758 525 OFFCURVE",
"767 533 OFFCURVE",
"767 548 CURVE SMOOTH",
"767 563 OFFCURVE",
"758 571 OFFCURVE",
"744 571 CURVE SMOOTH",
"25 571 LINE SMOOTH",
"11 571 OFFCURVE",
"0 563 OFFCURVE",
"0 548 CURVE SMOOTH",
"0 533 OFFCURVE",
"11 525 OFFCURVE",
"25 525 CURVE SMOOTH"
);
}
);
width = 767;
},
{
background = {
paths = (
{
closed = 1;
nodes = (
"697 -6 OFFCURVE",
"734 20 OFFCURVE",
"734 74 CURVE SMOOTH",
"734 631 LINE SMOOTH",
"734 684 OFFCURVE",
"697 710 OFFCURVE",
"655 710 CURVE SMOOTH",
"612 710 OFFCURVE",
"576 684 OFFCURVE",
"576 631 CURVE SMOOTH",
"576 74 LINE SMOOTH",
"576 20 OFFCURVE",
"612 -6 OFFCURVE",
"655 -6 CURVE SMOOTH"
);
},
{
closed = 1;
nodes = (
"221 -6 OFFCURVE",
"258 20 OFFCURVE",
"258 74 CURVE SMOOTH",
"258 631 LINE SMOOTH",
"258 684 OFFCURVE",
"221 710 OFFCURVE",
"179 710 CURVE SMOOTH",
"136 710 OFFCURVE",
"100 684 OFFCURVE",
"100 631 CURVE SMOOTH",
"100 74 LINE SMOOTH",
"100 20 OFFCURVE",
"136 -6 OFFCURVE",
"179 -6 CURVE SMOOTH"
);
},
{
closed = 1;
nodes = (
"671 291 LINE",
"671 421 LINE",
"151 421 LINE",
"151 291 LINE"
);
},
{
closed = 1;
nodes = (
"762 487 LINE SMOOTH",
"810 487 OFFCURVE",
"834 511 OFFCURVE",
"834 548 CURVE SMOOTH",
"834 585 OFFCURVE",
"810 609 OFFCURVE",
"762 609 CURVE SMOOTH",
"72 609 LINE SMOOTH",
"24 609 OFFCURVE",
"0 585 OFFCURVE",
"0 548 CURVE SMOOTH",
"0 511 OFFCURVE",
"24 487 OFFCURVE",
"72 487 CURVE SMOOTH"
);
}
);
};
layerId = "E1B555A7-F4E1-459C-9C1A-AE952106EEF9";
paths = (
{
closed = 1;
nodes = (
"697 -6 OFFCURVE",
"734 20 OFFCURVE",
"734 74 CURVE SMOOTH",
"734 631 LINE SMOOTH",
"734 684 OFFCURVE",
"697 710 OFFCURVE",
"655 710 CURVE SMOOTH",
"612 710 OFFCURVE",
"576 684 OFFCURVE",
"576 631 CURVE SMOOTH",
"576 74 LINE SMOOTH",
"576 20 OFFCURVE",
"612 -6 OFFCURVE",
"655 -6 CURVE SMOOTH"
);
},
{
closed = 1;
nodes = (
"221 -6 OFFCURVE",
"258 20 OFFCURVE",
"258 74 CURVE SMOOTH",
"258 631 LINE SMOOTH",
"258 684 OFFCURVE",
"221 710 OFFCURVE",
"179 710 CURVE SMOOTH",
"136 710 OFFCURVE",
"100 684 OFFCURVE",
"100 631 CURVE SMOOTH",
"100 74 LINE SMOOTH",
"100 20 OFFCURVE",
"136 -6 OFFCURVE",
"179 -6 CURVE SMOOTH"
);
},
{
closed = 1;
nodes = (
"671 293 LINE",
"671 423 LINE",
"151 423 LINE",
"151 293 LINE"
);
},
{
closed = 1;
nodes = (
"762 489 LINE SMOOTH",
"810 489 OFFCURVE",
"834 513 OFFCURVE",
"834 548 CURVE SMOOTH",
"834 583 OFFCURVE",
"810 607 OFFCURVE",
"762 607 CURVE SMOOTH",
"72 607 LINE SMOOTH",
"24 607 OFFCURVE",
"0 583 OFFCURVE",
"0 548 CURVE SMOOTH",
"0 513 OFFCURVE",
"24 489 OFFCURVE",
"72 489 CURVE SMOOTH"
);
}
);
width = 834;
}
);
leftKerningGroup = H;
rightKerningGroup = H;
unicode = 0126;
userData = {
com.typemytype.robofont.layerData = {
b = {
anchors = (
);
components = (
);
contours = (
);
lib = {
};
name = Hbar;
unicodes = (
);
width = 1464;
};
};
};
},
{
glyphname = I;
lastChange = "2016-08-29 19:31:13 +0000";
layers = (
{
anchors = (
{
name = bottom;
position = "{113, 0}";
},
{
name = ogonek;
position = "{137, 10}";
},
{
name = top;
position = "{113, 705}";
},
{
name = topleft;
position = "{19, 705}";
}
);
layerId = "9E718F8A-2CEA-4931-B05D-987794BD97DA";
paths = (
{
closed = 1;
nodes = (
"130 -5 OFFCURVE",
"140 7 OFFCURVE",
"140 24 CURVE SMOOTH",
"140 681 LINE SMOOTH",
"140 698 OFFCURVE",
"130 710 OFFCURVE",
"113 710 CURVE SMOOTH",
"96 710 OFFCURVE",
"86 698 OFFCURVE",
"86 681 CURVE SMOOTH",
"86 24 LINE SMOOTH",
"86 7 OFFCURVE",
"96 -5 OFFCURVE",
"113 -5 CURVE SMOOTH"
);
}
);
width = 226;
},
{
anchors = (
{
name = bottom;
position = "{146, 0}";
},
{
name = ogonek;
position = "{197, 10}";
},
{
name = top;
position = "{146, 705}";
},
{
name = topleft;
position = "{18, 705}";
}
);
layerId = "E1B555A7-F4E1-459C-9C1A-AE952106EEF9";
paths = (
{
closed = 1;
nodes = (
"191 -6 OFFCURVE",
"227 20 OFFCURVE",
"227 74 CURVE SMOOTH",
"227 631 LINE SMOOTH",
"227 684 OFFCURVE",
"191 710 OFFCURVE",
"146 710 CURVE SMOOTH",
"102 710 OFFCURVE",
"66 684 OFFCURVE",
"66 631 CURVE SMOOTH",
"66 74 LINE SMOOTH",
"66 20 OFFCURVE",
"102 -6 OFFCURVE",
"146 -6 CURVE SMOOTH"
);
}
);
width = 293;
}
);
leftKerningGroup = H;
leftMetricsKey = H;
rightKerningGroup = H;
rightMetricsKey = H;
unicode = 0049;
userData = {
anchors = (
);
b = {
};
com.typemytype.robofont.layerData = {
b = {
anchors = (
);
components = (
);
contours = (
);
lib = {
};
name = I;
unicodes = (
);
width = 592;
};
};
components = (
);
contours = (
);
lib = {
};
name = I;
unicodes = (
);
width = 637;
};
},
{
glyphname = Iogonek;
lastChange = "2016-08-29 19:31:13 +0000";
layers = (
{
background = {
paths = (
{
closed = 1;
nodes = (
"130 -5 OFFCURVE",
"140 7 OFFCURVE",
"140 24 CURVE SMOOTH",
"140 681 LINE SMOOTH",
"140 698 OFFCURVE",
"130 710 OFFCURVE",
"113 710 CURVE SMOOTH",
"96 710 OFFCURVE",
"86 698 OFFCURVE",
"86 681 CURVE SMOOTH",
"86 24 LINE SMOOTH",
"86 7 OFFCURVE",
"96 -5 OFFCURVE",
"113 -5 CURVE SMOOTH"
);
},
{
closed = 1;
nodes = (
"133 -191 OFFCURVE",
"156 -186 OFFCURVE",
"177 -174 CURVE SMOOTH",
"201 -160 OFFCURVE",
"192 -119 OFFCURVE",
"161 -135 CURVE SMOOTH",
"143 -144 OFFCURVE",
"125 -148 OFFCURVE",
"113 -148 CURVE SMOOTH",
"73 -148 OFFCURVE",
"45 -125 OFFCURVE",
"45 -82 CURVE SMOOTH",
"45 -38 OFFCURVE",
"73 -2 OFFCURVE",
"137 10 CURVE",
"125 41 LINE",
"41 27 OFFCURVE",
"-5 -24 OFFCURVE",
"-5 -88 CURVE SMOOTH",
"-5 -148 OFFCURVE",
"40 -191 OFFCURVE",
"108 -191 CURVE SMOOTH"
);
}
);
};
layerId = "9E718F8A-2CEA-4931-B05D-987794BD97DA";
paths = (
{
closed = 1;
nodes = (
"86 24 LINE",
"86 12 OFFCURVE",
"92 5 OFFCURVE",
"96 2 CURVE",
"123 38 LINE",
"39 24 OFFCURVE",
"-6 -27 OFFCURVE",
"-6 -88 CURVE SMOOTH",
"-6 -148 OFFCURVE",
"39 -191 OFFCURVE",
"107 -191 CURVE SMOOTH",
"132 -191 OFFCURVE",
"155 -186 OFFCURVE",
"176 -174 CURVE SMOOTH",
"200 -160 OFFCURVE",
"191 -119 OFFCURVE",
"160 -135 CURVE SMOOTH",
"142 -144 OFFCURVE",
"124 -148 OFFCURVE",
"112 -148 CURVE SMOOTH",
"72 -148 OFFCURVE",
"44 -125 OFFCURVE",
"44 -82 CURVE SMOOTH",
"44 -41 OFFCURVE",
"70 -10 OFFCURVE",
"120 -2 CURVE SMOOTH",
"132 0 OFFCURVE",
"140 10 OFFCURVE",
"140 24 CURVE",
"140 681 LINE",
"140 698 OFFCURVE",
"130 710 OFFCURVE",
"113 710 CURVE SMOOTH",
"96 710 OFFCURVE",
"86 698 OFFCURVE",
"86 681 CURVE"
);
}
);
width = 226;
},
{
background = {
paths = (
{
closed = 1;
nodes = (
"191 -6 OFFCURVE",
"227 20 OFFCURVE",
"227 74 CURVE SMOOTH",
"227 631 LINE SMOOTH",
"227 684 OFFCURVE",
"191 710 OFFCURVE",
"146 710 CURVE SMOOTH",
"102 710 OFFCURVE",
"66 684 OFFCURVE",
"66 631 CURVE SMOOTH",
"66 74 LINE SMOOTH",
"66 20 OFFCURVE",
"102 -6 OFFCURVE",
"146 -6 CURVE SMOOTH"
);
},
{
closed = 1;
nodes = (
"188 -197 OFFCURVE",
"217 -191 OFFCURVE",
"246 -174 CURVE SMOOTH",
"279 -155 OFFCURVE",
"264 -98 OFFCURVE",
"228 -109 CURVE SMOOTH",
"206 -115 OFFCURVE",
"195 -117 OFFCURVE",
"180 -117 CURVE SMOOTH",
"152 -117 OFFCURVE",
"128 -99 OFFCURVE",
"128 -64 CURVE SMOOTH",
"128 -27 OFFCURVE",
"152 -3 OFFCURVE",
"197 10 CURVE",
"180 46 LINE",
"79 33 OFFCURVE",
"29 -22 OFFCURVE",
"29 -87 CURVE SMOOTH",
"29 -154 OFFCURVE",
"85 -197 OFFCURVE",
"157 -197 CURVE SMOOTH"
);
}
);
};
layerId = "E1B555A7-F4E1-459C-9C1A-AE952106EEF9";
paths = (
{
closed = 1;
nodes = (
"66 74 LINE SMOOTH",
"66 30 OFFCURVE",
"88 13 OFFCURVE",
"107 2 CURVE",
"129 37 LINE",
"65 11 OFFCURVE",
"35 -35 OFFCURVE",
"35 -84 CURVE SMOOTH",
"35 -154 OFFCURVE",
"91 -197 OFFCURVE",
"163 -197 CURVE SMOOTH",
"194 -197 OFFCURVE",
"223 -191 OFFCURVE",
"252 -174 CURVE SMOOTH",
"285 -155 OFFCURVE",
"270 -98 OFFCURVE",
"234 -109 CURVE SMOOTH",
"212 -116 OFFCURVE",
"201 -117 OFFCURVE",
"186 -117 CURVE SMOOTH",
"158 -117 OFFCURVE",
"134 -99 OFFCURVE",
"134 -64 CURVE SMOOTH",
"134 -27 OFFCURVE",
"164 -7 OFFCURVE",
"191 6 CURVE SMOOTH",
"219 19 OFFCURVE",
"227 50 OFFCURVE",
"227 74 CURVE SMOOTH",
"227 631 LINE SMOOTH",
"227 684 OFFCURVE",
"191 710 OFFCURVE",
"146 710 CURVE SMOOTH",
"102 710 OFFCURVE",
"66 684 OFFCURVE",
"66 631 CURVE SMOOTH"
);
}
);
width = 293;
}
);
leftKerningGroup = H;
rightKerningGroup = H;
unicode = 012E;
},
{
glyphname = J;
lastChange = "2016-08-31 09:24:10 +0000";
layers = (
{
anchors = (
{
name = bottom;
position = "{183, 0}";
},
{
name = top;
position = "{183, 705}";
}
);
layerId = "9E718F8A-2CEA-4931-B05D-987794BD97DA";
paths = (
{
closed = 1;
nodes = (
"52 -3 LINE SMOOTH",
"157 4 OFFCURVE",
"210 58 OFFCURVE",
"210 180 CURVE SMOOTH",
"210 681 LINE SMOOTH",
"210 698 OFFCURVE",
"201 710 OFFCURVE",
"183 710 CURVE SMOOTH",
"169 710 OFFCURVE",
"156 698 OFFCURVE",
"156 681 CURVE SMOOTH",
"156 182 LINE SMOOTH",
"156 83 OFFCURVE",
"118 52 OFFCURVE",
"44 46 CURVE SMOOTH",
"15 44 LINE SMOOTH",
"-4 43 OFFCURVE",
"-12 32 OFFCURVE",
"-12 19 CURVE SMOOTH",
"-12 5 OFFCURVE",
"-1 -7 OFFCURVE",
"22 -5 CURVE SMOOTH"
);
}
);
width = 296;
},
{
anchors = (
{
name = bottom;
position = "{230, 0}";
},
{
name = top;
position = "{230, 705}";
}
);
layerId = "E1B555A7-F4E1-459C-9C1A-AE952106EEF9";
paths = (
{
closed = 1;
nodes = (
"111 -4 LINE SMOOTH",
"247 5 OFFCURVE",
"311 80 OFFCURVE",
"311 208 CURVE SMOOTH",
"311 631 LINE SMOOTH",
"311 684 OFFCURVE",
"274 710 OFFCURVE",
"230 710 CURVE SMOOTH",
"186 710 OFFCURVE",
"149 684 OFFCURVE",
"149 631 CURVE SMOOTH",
"149 206 LINE SMOOTH",
"149 153 OFFCURVE",
"124 126 OFFCURVE",
"79 124 CURVE SMOOTH",
"46 122 LINE SMOOTH",
"2 119 OFFCURVE",
"-17 99 OFFCURVE",
"-17 59 CURVE SMOOTH",
"-17 10 OFFCURVE",
"20 -9 OFFCURVE",
"79 -6 CURVE SMOOTH"
);
}
);
width = 377;
}
);
leftKerningGroup = J;
rightKerningGroup = J;
rightMetricsKey = H;
unicode = 004A;
userData = {
anchors = (
);
b = {
};
com.typemytype.robofont.layerData = {
b = {
anchors = (
);
components = (
);
contours = (
);
lib = {
};
name = J;
unicodes = (
);
width = 1003;
};
};
components = (
);
contours = (
);
lib = {
};
name = J;
unicodes = (
);
width = 1126;
};
},
{
color = 3;
glyphname = K;
lastChange = "2016-08-31 09:19:59 +0000";
layers = (
{
anchors = (
{
name = bottom;
position = "{299, 0}";
},
{
name = top;
position = "{298, 705}";
}
);
background = {
paths = (
{
closed = 1;
nodes = (
"562 -18 OFFCURVE",
"599 18 OFFCURVE",
"570 41 CURVE SMOOTH",
"171 379 LINE",
"171 339 LINE",
"551 665 LINE SMOOTH",
"578 687 OFFCURVE",
"541 724 OFFCURVE",
"516 702 CURVE SMOOTH",
"116 357 LINE",
"537 2 LINE SMOOTH"
);
},
{
closed = 1;
nodes = (
"130 -5 OFFCURVE",
"140 7 OFFCURVE",
"140 24 CURVE SMOOTH",
"140 681 LINE SMOOTH",
"140 698 OFFCURVE",
"130 710 OFFCURVE",
"113 710 CURVE SMOOTH",
"96 710 OFFCURVE",
"86 698 OFFCURVE",
"86 681 CURVE SMOOTH",
"86 24 LINE SMOOTH",
"86 7 OFFCURVE",
"96 -5 OFFCURVE",
"113 -5 CURVE SMOOTH"
);
}
);
};
layerId = "9E718F8A-2CEA-4931-B05D-987794BD97DA";
paths = (
{
closed = 1;
nodes = (
"563 -19 OFFCURVE",
"599 18 OFFCURVE",
"570 41 CURVE SMOOTH",
"171 379 LINE",
"171 339 LINE",
"551 665 LINE SMOOTH",
"578 687 OFFCURVE",
"543 724 OFFCURVE",
"518 702 CURVE SMOOTH",
"118 357 LINE",
"539 2 LINE SMOOTH"
);
},
{
closed = 1;
nodes = (
"130 -5 OFFCURVE",
"140 7 OFFCURVE",
"140 24 CURVE SMOOTH",
"140 681 LINE SMOOTH",
"140 698 OFFCURVE",
"130 710 OFFCURVE",
"113 710 CURVE SMOOTH",
"96 710 OFFCURVE",
"86 698 OFFCURVE",
"86 681 CURVE SMOOTH",
"86 24 LINE SMOOTH",
"86 7 OFFCURVE",
"96 -5 OFFCURVE",
"113 -5 CURVE SMOOTH"
);
}
);
width = 595;
},
{
anchors = (
{
name = bottom;
position = "{340, 0}";
},
{
name = top;
position = "{340, 705}";
}
);
layerId = "E1B555A7-F4E1-459C-9C1A-AE952106EEF9";
paths = (
{
closed = 1;
nodes = (
"608 -54 OFFCURVE",
"711 51 OFFCURVE",
"641 121 CURVE SMOOTH",
"350 405 LINE",
"344 321 LINE",
"624 584 LINE SMOOTH",
"697 655 OFFCURVE",
"593 755 OFFCURVE",
"525 686 CURVE SMOOTH",
"191 360 LINE",
"532 24 LINE SMOOTH"
);
},
{
closed = 1;
nodes = (
"191 -6 OFFCURVE",
"227 20 OFFCURVE",
"227 74 CURVE SMOOTH",
"227 631 LINE SMOOTH",
"227 684 OFFCURVE",
"191 710 OFFCURVE",
"146 710 CURVE SMOOTH",
"102 710 OFFCURVE",
"66 684 OFFCURVE",
"66 631 CURVE SMOOTH",
"66 74 LINE SMOOTH",
"66 20 OFFCURVE",
"102 -6 OFFCURVE",
"146 -6 CURVE SMOOTH"
);
}
);
width = 677;
}
);
leftKerningGroup = H;
leftMetricsKey = H;
rightKerningGroup = K;
unicode = 004B;
userData = {
anchors = (
);
b = {
};
com.typemytype.robofont.layerData = {
b = {
anchors = (
);
components = (
);
contours = (
);
lib = {
};
name = K;
unicodes = (
);
width = 1210;
};
};
components = (
);
contours = (
);
lib = {
};
name = K;
unicodes = (
);
width = 1329;
};
},
{
glyphname = L;
lastChange = "2016-08-31 09:24:24 +0000";
layers = (
{
anchors = (
{
name = bottom;
position = "{300, 0}";
},
{
name = center;
position = "{327, 353}";
},
{
name = top;
position = "{113, 705}";
},
{
name = topright;
position = "{230, 705}";
}
);
layerId = "9E718F8A-2CEA-4931-B05D-987794BD97DA";
paths = (
{
closed = 1;
nodes = (
"489 0 LINE SMOOTH",
"503 0 OFFCURVE",
"513 10 OFFCURVE",
"513 25 CURVE SMOOTH",
"513 40 OFFCURVE",
"503 50 OFFCURVE",
"489 50 CURVE SMOOTH",
"140 50 LINE",
"140 681 LINE SMOOTH",
"140 698 OFFCURVE",
"131 710 OFFCURVE",
"113 710 CURVE SMOOTH",
"96 710 OFFCURVE",
"86 698 OFFCURVE",
"86 681 CURVE SMOOTH",
"86 25 LINE SMOOTH",
"86 11 OFFCURVE",
"100 0 OFFCURVE",
"114 0 CURVE SMOOTH"
);
}
);
width = 519;
},
{
anchors = (
{
name = bottom;
position = "{310, 0}";
},
{
name = center;
position = "{391, 353}";
},
{
name = top;
position = "{146, 705}";
},
{
name = topright;
position = "{317, 705}";
}
);
layerId = "E1B555A7-F4E1-459C-9C1A-AE952106EEF9";
paths = (
{
closed = 1;
nodes = (
"478 0 LINE SMOOTH",
"531 0 OFFCURVE",
"554 24 OFFCURVE",
"554 66 CURVE SMOOTH",
"554 109 OFFCURVE",
"531 133 OFFCURVE",
"478 133 CURVE SMOOTH",
"227 133 LINE",
"227 631 LINE SMOOTH",
"227 684 OFFCURVE",
"191 710 OFFCURVE",
"146 710 CURVE SMOOTH",
"102 710 OFFCURVE",
"66 684 OFFCURVE",
"66 631 CURVE SMOOTH",
"66 75 LINE SMOOTH",
"66 27 OFFCURVE",
"93 0 OFFCURVE",
"141 0 CURVE SMOOTH"
);
}
);
width = 559;
}
);
leftKerningGroup = H;
leftMetricsKey = H;
rightKerningGroup = L;
unicode = 004C;
userData = {
anchors = (
);
b = {
};
com.typemytype.robofont.layerData = {
b = {
anchors = (
);
components = (
);
contours = (
{
points = (
{
segmentType = curve;
smooth = 1;
x = 266;
y = 0;
},
{
segmentType = line;
smooth = 1;
x = 1035;
y = 0;
},
{
smooth = 0;
x = 1084;
y = 0;
},
{
smooth = 0;
x = 1108;
y = 34;
},
{
segmentType = curve;
smooth = 1;
x = 1108;
y = 71;
},
{
smooth = 0;
x = 1108;
y = 107;
},
{
smooth = 0;
x = 1084;
y = 141;
},
{
segmentType = curve;
smooth = 1;
x = 1035;
y = 141;
},
{
segmentType = line;
smooth = 0;
x = 356;
y = 141;
},
{
segmentType = line;
smooth = 0;
x = 356;
y = 665;
},
{
segmentType = line;
smooth = 1;
x = 975;
y = 665;
},
{
smooth = 0;
x = 1024;
y = 665;
},
{
smooth = 0;
x = 1049;
y = 698;
},
{
segmentType = curve;
smooth = 1;
x = 1049;
y = 734;
},
{
smooth = 0;
x = 1049;
y = 770;
},
{
smooth = 0;
x = 1026;
y = 803;
},
{
segmentType = curve;
smooth = 1;
x = 975;
y = 803;
},
{
segmentType = line;
smooth = 0;
x = 356;
y = 803;
},
{
segmentType = line;
smooth = 0;
x = 356;
y = 1285;
},
{
segmentType = line;
smooth = 1;
x = 1007;
y = 1285;
},
{
smooth = 0;
x = 1056;
y = 1285;
},
{
smooth = 0;
x = 1080;
y = 1319;
},
{
segmentType = curve;
smooth = 1;
x = 1080;
y = 1356;
},
{
smooth = 0;
x = 1080;
y = 1392;
},
{
smooth = 0;
x = 1056;
y = 1426;
},
{
segmentType = curve;
smooth = 1;
x = 1007;
y = 1426;
},
{
segmentType = line;
smooth = 1;
x = 261;
y = 1426;
},
{
smooth = 0;
x = 213;
y = 1426;
},
{
smooth = 0;
x = 178;
y = 1383;
},
{
segmentType = curve;
smooth = 1;
x = 178;
y = 1340;
},
{
segmentType = line;
smooth = 1;
x = 178;
y = 86;
},
{
smooth = 0;
x = 178;
y = 41;
},
{
smooth = 0;
x = 222;
y = 0;
}
);
}
);
lib = {
};
name = L;
unicodes = (
);
width = 1095;
};
};
components = (
);
contours = (
);
lib = {
};
name = L;
unicodes = (
);
width = 1169;
};
},
{
glyphname = LJ;
lastChange = "2016-08-29 19:31:13 +0000";
layers = (
{
background = {
paths = (
{
closed = 1;
nodes = (
"489 0 LINE SMOOTH",
"503 0 OFFCURVE",
"513 10 OFFCURVE",
"513 25 CURVE SMOOTH",
"513 40 OFFCURVE",
"503 50 OFFCURVE",
"489 50 CURVE SMOOTH",
"140 50 LINE",
"140 681 LINE SMOOTH",
"140 698 OFFCURVE",
"131 710 OFFCURVE",
"113 710 CURVE SMOOTH",
"96 710 OFFCURVE",
"86 698 OFFCURVE",
"86 681 CURVE SMOOTH",
"86 25 LINE SMOOTH",
"86 11 OFFCURVE",
"100 0 OFFCURVE",
"114 0 CURVE SMOOTH"
);
},
{
closed = 1;
nodes = (
"577 -3 LINE SMOOTH",
"682 4 OFFCURVE",
"735 58 OFFCURVE",
"735 180 CURVE SMOOTH",
"735 681 LINE SMOOTH",
"735 698 OFFCURVE",
"726 710 OFFCURVE",
"708 710 CURVE SMOOTH",
"694 710 OFFCURVE",
"681 698 OFFCURVE",
"681 681 CURVE SMOOTH",
"681 182 LINE SMOOTH",
"681 83 OFFCURVE",
"643 52 OFFCURVE",
"569 46 CURVE SMOOTH",
"540 44 LINE SMOOTH",
"521 43 OFFCURVE",
"513 32 OFFCURVE",
"513 19 CURVE SMOOTH",
"513 5 OFFCURVE",
"524 -7 OFFCURVE",
"547 -5 CURVE SMOOTH"
);
}
);
};
layerId = "9E718F8A-2CEA-4931-B05D-987794BD97DA";
paths = (
{
closed = 1;
nodes = (
"459 0 LINE SMOOTH",
"473 0 OFFCURVE",
"483 10 OFFCURVE",
"483 25 CURVE SMOOTH",
"483 40 OFFCURVE",
"473 50 OFFCURVE",
"459 50 CURVE SMOOTH",
"140 50 LINE",
"140 681 LINE SMOOTH",
"140 698 OFFCURVE",
"131 710 OFFCURVE",
"113 710 CURVE SMOOTH",
"96 710 OFFCURVE",
"86 698 OFFCURVE",
"86 681 CURVE SMOOTH",
"86 25 LINE SMOOTH",
"86 11 OFFCURVE",
"100 0 OFFCURVE",
"114 0 CURVE SMOOTH"
);
},
{
closed = 1;
nodes = (
"577 -3 LINE SMOOTH",
"682 4 OFFCURVE",
"735 58 OFFCURVE",
"735 180 CURVE SMOOTH",
"735 681 LINE SMOOTH",
"735 698 OFFCURVE",
"726 710 OFFCURVE",
"708 710 CURVE SMOOTH",
"694 710 OFFCURVE",
"681 698 OFFCURVE",
"681 681 CURVE SMOOTH",
"681 182 LINE SMOOTH",
"681 83 OFFCURVE",
"643 52 OFFCURVE",
"569 46 CURVE SMOOTH",
"540 44 LINE SMOOTH",
"521 43 OFFCURVE",
"513 32 OFFCURVE",
"513 19 CURVE SMOOTH",
"513 5 OFFCURVE",
"524 -7 OFFCURVE",
"547 -5 CURVE SMOOTH"
);
}
);
width = 821;
},
{
background = {
paths = (
{
closed = 1;
nodes = (
"478 0 LINE SMOOTH",
"531 0 OFFCURVE",
"554 24 OFFCURVE",
"554 66 CURVE SMOOTH",
"554 109 OFFCURVE",
"531 133 OFFCURVE",
"478 133 CURVE SMOOTH",
"227 133 LINE",
"227 631 LINE SMOOTH",
"227 684 OFFCURVE",
"191 710 OFFCURVE",
"146 710 CURVE SMOOTH",
"102 710 OFFCURVE",
"66 684 OFFCURVE",
"66 631 CURVE SMOOTH",
"66 75 LINE SMOOTH",
"66 27 OFFCURVE",
"93 0 OFFCURVE",
"141 0 CURVE SMOOTH"
);
},
{
closed = 1;
nodes = (
"677 -4 LINE SMOOTH",
"813 5 OFFCURVE",
"877 80 OFFCURVE",
"877 208 CURVE SMOOTH",
"877 631 LINE SMOOTH",
"877 684 OFFCURVE",
"840 710 OFFCURVE",
"796 710 CURVE SMOOTH",
"752 710 OFFCURVE",
"715 684 OFFCURVE",
"715 631 CURVE SMOOTH",
"715 206 LINE SMOOTH",
"715 153 OFFCURVE",
"690 126 OFFCURVE",
"645 124 CURVE SMOOTH",
"612 122 LINE SMOOTH",
"568 119 OFFCURVE",
"549 99 OFFCURVE",
"549 59 CURVE SMOOTH",
"549 10 OFFCURVE",
"586 -9 OFFCURVE",
"645 -6 CURVE SMOOTH"
);
}
);
};
layerId = "E1B555A7-F4E1-459C-9C1A-AE952106EEF9";
paths = (
{
closed = 1;
nodes = (
"448 0 LINE SMOOTH",
"501 0 OFFCURVE",
"524 24 OFFCURVE",
"524 66 CURVE SMOOTH",
"524 109 OFFCURVE",
"501 133 OFFCURVE",
"448 133 CURVE SMOOTH",
"227 133 LINE",
"227 631 LINE SMOOTH",
"227 684 OFFCURVE",
"191 710 OFFCURVE",
"146 710 CURVE SMOOTH",
"102 710 OFFCURVE",
"66 684 OFFCURVE",
"66 631 CURVE SMOOTH",
"66 75 LINE SMOOTH",
"66 27 OFFCURVE",
"93 0 OFFCURVE",
"141 0 CURVE SMOOTH"
);
},
{
closed = 1;
nodes = (
"677 -4 LINE SMOOTH",
"813 5 OFFCURVE",
"877 80 OFFCURVE",
"877 208 CURVE SMOOTH",
"877 631 LINE SMOOTH",
"877 684 OFFCURVE",
"840 710 OFFCURVE",
"796 710 CURVE SMOOTH",
"752 710 OFFCURVE",
"715 684 OFFCURVE",
"715 631 CURVE SMOOTH",
"715 206 LINE SMOOTH",
"715 153 OFFCURVE",
"690 126 OFFCURVE",
"645 124 CURVE SMOOTH",
"612 122 LINE SMOOTH",
"568 119 OFFCURVE",
"549 99 OFFCURVE",
"549 59 CURVE SMOOTH",
"549 10 OFFCURVE",
"586 -9 OFFCURVE",
"645 -6 CURVE SMOOTH"
);
}
);
width = 943;
}
);
leftKerningGroup = H;
leftMetricsKey = L;
rightKerningGroup = J;
rightMetricsKey = J;
unicode = 01C7;
},
{
glyphname = Lslash;
lastChange = "2016-08-31 08:03:19 +0000";
layers = (
{
background = {
paths = (
{
closed = 1;
nodes = (
"503 0 LINE SMOOTH",
"517 0 OFFCURVE",
"527 10 OFFCURVE",
"527 25 CURVE SMOOTH",
"527 40 OFFCURVE",
"517 50 OFFCURVE",
"503 50 CURVE SMOOTH",
"154 50 LINE",
"154 681 LINE SMOOTH",
"154 698 OFFCURVE",
"145 710 OFFCURVE",
"127 710 CURVE SMOOTH",
"110 710 OFFCURVE",
"100 698 OFFCURVE",
"100 681 CURVE SMOOTH",
"100 25 LINE SMOOTH",
"100 11 OFFCURVE",
"114 0 OFFCURVE",
"128 0 CURVE SMOOTH"
);
},
{
closed = 1;
nodes = (
"287 485 LINE SMOOTH",
"309 507 OFFCURVE",
"276 539 OFFCURVE",
"254 517 CURVE SMOOTH",
"8 272 LINE SMOOTH",
"-16 248 OFFCURVE",
"17 215 OFFCURVE",
"41 239 CURVE SMOOTH"
);
}
);
};
guideLines = (
{
position = "{384, 358}";
},
{
angle = 90;
position = "{0, 125}";
},
{
angle = 90;
position = "{254, 125}";
},
{
angle = 90;
position = "{354, 125}";
}
);
layerId = "9E718F8A-2CEA-4931-B05D-987794BD97DA";
paths = (
{
closed = 1;
nodes = (
"503 0 LINE SMOOTH",
"517 0 OFFCURVE",
"527 10 OFFCURVE",
"527 25 CURVE SMOOTH",
"527 40 OFFCURVE",
"517 50 OFFCURVE",
"503 50 CURVE SMOOTH",
"154 50 LINE",
"154 681 LINE SMOOTH",
"154 698 OFFCURVE",
"145 710 OFFCURVE",
"127 710 CURVE SMOOTH",
"110 710 OFFCURVE",
"100 698 OFFCURVE",
"100 681 CURVE SMOOTH",
"100 25 LINE SMOOTH",
"100 11 OFFCURVE",
"114 0 OFFCURVE",
"128 0 CURVE SMOOTH"
);
},
{
closed = 1;
nodes = (
"338 452 LINE SMOOTH",
"365 468 OFFCURVE",
"341 507 OFFCURVE",
"314 492 CURVE SMOOTH",
"13 319 LINE SMOOTH",
"-16 302 OFFCURVE",
"7 261 OFFCURVE",
"37 278 CURVE SMOOTH"
);
}
);
width = 533;
},
{
background = {
paths = (
{
closed = 1;
nodes = (
"512 0 LINE SMOOTH",
"565 0 OFFCURVE",
"588 24 OFFCURVE",
"588 66 CURVE SMOOTH",
"588 109 OFFCURVE",
"565 133 OFFCURVE",
"512 133 CURVE SMOOTH",
"261 133 LINE",
"261 631 LINE SMOOTH",
"261 684 OFFCURVE",
"225 710 OFFCURVE",
"180 710 CURVE SMOOTH",
"136 710 OFFCURVE",
"100 684 OFFCURVE",
"100 631 CURVE SMOOTH",
"100 75 LINE SMOOTH",
"100 27 OFFCURVE",
"127 0 OFFCURVE",
"175 0 CURVE SMOOTH"
);
},
{
closed = 1;
nodes = (
"379 471 LINE SMOOTH",
"442 534 OFFCURVE",
"358 616 OFFCURVE",
"295 554 CURVE SMOOTH",
"23 283 LINE SMOOTH",
"-40 221 OFFCURVE",
"43 135 OFFCURVE",
"107 199 CURVE SMOOTH"
);
},
{
closed = 1;
nodes = (
"428 431 LINE SMOOTH",
"505 476 OFFCURVE",
"445 577 OFFCURVE",
"369 533 CURVE SMOOTH",
"36 341 LINE SMOOTH",
"-41 297 OFFCURVE",
"17 193 OFFCURVE",
"95 238 CURVE SMOOTH"
);
}
);
};
guideLines = (
{
angle = 90;
position = "{361, 233}";
},
{
angle = 90;
position = "{0, 233}";
},
{
position = "{333, 356}";
},
{
angle = 90;
position = "{461, 233}";
}
);
layerId = "E1B555A7-F4E1-459C-9C1A-AE952106EEF9";
paths = (
{
closed = 1;
nodes = (
"512 0 LINE SMOOTH",
"565 0 OFFCURVE",
"588 24 OFFCURVE",
"588 66 CURVE SMOOTH",
"588 109 OFFCURVE",
"565 133 OFFCURVE",
"512 133 CURVE SMOOTH",
"261 133 LINE",
"261 631 LINE SMOOTH",
"261 684 OFFCURVE",
"225 710 OFFCURVE",
"180 710 CURVE SMOOTH",
"136 710 OFFCURVE",
"100 684 OFFCURVE",
"100 631 CURVE SMOOTH",
"100 75 LINE SMOOTH",
"100 27 OFFCURVE",
"127 0 OFFCURVE",
"175 0 CURVE SMOOTH"
);
},
{
closed = 1;
nodes = (
"418 425 LINE SMOOTH",
"495 470 OFFCURVE",
"434 570 OFFCURVE",
"359 527 CURVE SMOOTH",
"36 341 LINE SMOOTH",
"-40 297 OFFCURVE",
"18 193 OFFCURVE",
"95 238 CURVE SMOOTH"
);
}
);
width = 593;
}
);
leftKerningGroup = L;
rightKerningGroup = L;
rightMetricsKey = L;
unicode = 0141;
},
{
glyphname = M;
lastChange = "2016-08-29 19:31:13 +0000";
layers = (
{
anchors = (
{
name = bottom;
position = "{413, 0}";
},
{
name = top;
position = "{413, 705}";
}
);
layerId = "9E718F8A-2CEA-4931-B05D-987794BD97DA";
paths = (
{
closed = 1;
nodes = (
"130 -5 OFFCURVE",
"138 7 OFFCURVE",
"138 24 CURVE SMOOTH",
"138 646 LINE",
"107 644 LINE",
"384 122 LINE SMOOTH",
"391 108 OFFCURVE",
"401 101 OFFCURVE",
"414 101 CURVE SMOOTH",
"426 101 OFFCURVE",
"437 108 OFFCURVE",
"444 122 CURVE SMOOTH",
"716 643 LINE",
"688 646 LINE",
"688 24 LINE SMOOTH",
"688 7 OFFCURVE",
"696 -5 OFFCURVE",
"713 -5 CURVE SMOOTH",
"731 -5 OFFCURVE",
"740 7 OFFCURVE",
"740 24 CURVE SMOOTH",
"740 681 LINE SMOOTH",
"740 698 OFFCURVE",
"730 710 OFFCURVE",
"712 710 CURVE SMOOTH",
"701 710 OFFCURVE",
"693 705 OFFCURVE",
"685 689 CURVE SMOOTH",
"400 139 LINE",
"430 139 LINE",
"141 689 LINE SMOOTH",
"133 705 OFFCURVE",
"125 710 OFFCURVE",
"114 710 CURVE SMOOTH",
"96 710 OFFCURVE",
"86 698 OFFCURVE",
"86 681 CURVE SMOOTH",
"86 24 LINE SMOOTH",
"86 7 OFFCURVE",
"94 -5 OFFCURVE",
"112 -5 CURVE SMOOTH"
);
}
);
width = 826;
},
{
anchors = (
{
name = bottom;
position = "{418, 0}";
},
{
name = top;
position = "{418, 705}";
}
);
layerId = "E1B555A7-F4E1-459C-9C1A-AE952106EEF9";
leftMetricsKey = "=H+2";
rightMetricsKey = "=H+2";
paths = (
{
closed = 1;
nodes = (
"174 -6 OFFCURVE",
"211 20 OFFCURVE",
"211 74 CURVE SMOOTH",
"211 465 LINE",
"181 462 LINE",
"346 153 LINE SMOOTH",
"366 116 OFFCURVE",
"387 101 OFFCURVE",
"418 101 CURVE SMOOTH",
"449 101 OFFCURVE",
"471 116 OFFCURVE",
"490 153 CURVE SMOOTH",
"652 461 LINE",
"625 465 LINE",
"625 74 LINE SMOOTH",
"625 20 OFFCURVE",
"661 -6 OFFCURVE",
"696 -6 CURVE SMOOTH",
"732 -6 OFFCURVE",
"768 20 OFFCURVE",
"768 74 CURVE SMOOTH",
"768 631 LINE SMOOTH",
"768 684 OFFCURVE",
"731 710 OFFCURVE",
"692 710 CURVE SMOOTH",
"669 710 OFFCURVE",
"641 701 OFFCURVE",
"618 657 CURVE SMOOTH",
"402 243 LINE",
"437 243 LINE",
"220 657 LINE SMOOTH",
"197 701 OFFCURVE",
"167 710 OFFCURVE",
"144 710 CURVE SMOOTH",
"104 710 OFFCURVE",
"68 684 OFFCURVE",
"68 631 CURVE SMOOTH",
"68 74 LINE SMOOTH",
"68 20 OFFCURVE",
"104 -6 OFFCURVE",
"139 -6 CURVE SMOOTH"
);
}
);
width = 836;
}
);
leftKerningGroup = H;
leftMetricsKey = H;
rightKerningGroup = H;
rightMetricsKey = H;
unicode = 004D;
userData = {
anchors = (
);
b = {
};
com.typemytype.robofont.layerData = {
b = {
anchors = (
);
components = (
);
contours = (
);
lib = {
};
name = M;
unicodes = (
);
width = 1899;
};
};
components = (
);
contours = (
);
lib = {
};
name = M;
unicodes = (
);
width = 1984;
};
},
{
color = 3;
glyphname = N;
lastChange = "2016-08-29 19:46:09 +0000";
layers = (
{
anchors = (
{
name = bottom;
position = "{360, 0}";
},
{
name = top;
position = "{360, 705}";
}
);
background = {
paths = (
{
closed = 1;
nodes = (
"129 -5 OFFCURVE",
"139 7 OFFCURVE",
"139 24 CURVE SMOOTH",
"139 644 LINE",
"114 643 LINE",
"583 9 LINE SMOOTH",
"590 0 OFFCURVE",
"596 -5 OFFCURVE",
"607 -5 CURVE SMOOTH",
"624 -5 OFFCURVE",
"634 7 OFFCURVE",
"634 24 CURVE SMOOTH",
"634 681 LINE SMOOTH",
"634 698 OFFCURVE",
"625 710 OFFCURVE",
"608 710 CURVE SMOOTH",
"592 710 OFFCURVE",
"581 698 OFFCURVE",
"581 681 CURVE SMOOTH",
"581 61 LINE",
"606 62 LINE",
"138 696 LINE SMOOTH",
"131 705 OFFCURVE",
"125 710 OFFCURVE",
"114 710 CURVE SMOOTH",
"96 710 OFFCURVE",
"86 698 OFFCURVE",
"86 681 CURVE SMOOTH",
"86 24 LINE SMOOTH",
"86 7 OFFCURVE",
"95 -5 OFFCURVE",
"113 -5 CURVE SMOOTH"
);
}
);
};
layerId = "9E718F8A-2CEA-4931-B05D-987794BD97DA";
paths = (
{
closed = 1;
nodes = (
"129 -5 OFFCURVE",
"139 7 OFFCURVE",
"139 24 CURVE SMOOTH",
"139 644 LINE",
"116 643 LINE",
"583 9 LINE SMOOTH",
"590 0 OFFCURVE",
"596 -5 OFFCURVE",
"607 -5 CURVE SMOOTH",
"624 -5 OFFCURVE",
"634 7 OFFCURVE",
"634 24 CURVE SMOOTH",
"634 681 LINE SMOOTH",
"634 698 OFFCURVE",
"625 710 OFFCURVE",
"608 710 CURVE SMOOTH",
"592 710 OFFCURVE",
"581 698 OFFCURVE",
"581 681 CURVE SMOOTH",
"581 61 LINE",
"605 62 LINE",
"138 696 LINE SMOOTH",
"131 705 OFFCURVE",
"125 710 OFFCURVE",
"114 710 CURVE SMOOTH",
"96 710 OFFCURVE",
"86 698 OFFCURVE",
"86 681 CURVE SMOOTH",
"86 24 LINE SMOOTH",
"86 7 OFFCURVE",
"95 -5 OFFCURVE",
"113 -5 CURVE SMOOTH"
);
}
);
width = 720;
},
{
anchors = (
{
name = bottom;
position = "{374, 0}";
},
{
name = top;
position = "{373, 705}";
}
);
layerId = "E1B555A7-F4E1-459C-9C1A-AE952106EEF9";
paths = (
{
closed = 1;
nodes = (
"181 -6 OFFCURVE",
"217 20 OFFCURVE",
"217 74 CURVE SMOOTH",
"217 495 LINE",
"189 482 LINE",
"545 21 LINE SMOOTH",
"561 2 OFFCURVE",
"581 -6 OFFCURVE",
"605 -6 CURVE SMOOTH",
"644 -6 OFFCURVE",
"681 20 OFFCURVE",
"681 74 CURVE SMOOTH",
"681 631 LINE SMOOTH",
"681 684 OFFCURVE",
"644 710 OFFCURVE",
"605 710 CURVE SMOOTH",
"566 710 OFFCURVE",
"529 684 OFFCURVE",
"529 631 CURVE SMOOTH",
"529 210 LINE",
"558 222 LINE",
"201 683 LINE SMOOTH",
"185 703 OFFCURVE",
"165 710 OFFCURVE",
"142 710 CURVE SMOOTH",
"102 710 OFFCURVE",
"66 684 OFFCURVE",
"66 631 CURVE SMOOTH",
"66 74 LINE SMOOTH",
"66 20 OFFCURVE",
"102 -6 OFFCURVE",
"141 -6 CURVE SMOOTH"
);
}
);
width = 747;
}
);
leftKerningGroup = H;
leftMetricsKey = H;
rightKerningGroup = H;
rightMetricsKey = H;
unicode = 004E;
userData = {
anchors = (
);
b = {
};
com.typemytype.robofont.layerData = {
b = {
anchors = (
);
components = (
);
contours = (
);
lib = {
};
name = N;
unicodes = (
);
width = 1499;
};
};
components = (
);
contours = (
);
lib = {
};
name = N;
unicodes = (
);
width = 1557;
};
},
{
glyphname = Eng;
lastChange = "2016-08-29 19:31:13 +0000";
layers = (
{
background = {
paths = (
{
closed = 1;
nodes = (
"147 606 LINE",
"569 -3 LINE",
"569 -3 LINE",
"569 -106 OFFCURVE",
"547 -158 OFFCURVE",
"460 -158 CURVE SMOOTH",
"425 -158 OFFCURVE",
"379 -149 OFFCURVE",
"318 -133 CURVE SMOOTH",
"315 -132 OFFCURVE",
"312 -132 OFFCURVE",
"309 -132 CURVE SMOOTH",
"291 -132 OFFCURVE",
"279 -142 OFFCURVE",
"279 -156 CURVE SMOOTH",
"279 -168 OFFCURVE",
"288 -180 OFFCURVE",
"311 -185 CURVE SMOOTH",
"364 -198 OFFCURVE",
"416 -207 OFFCURVE",
"458 -207 CURVE SMOOTH",
"568 -207 OFFCURVE",
"625 -155 OFFCURVE",
"625 24 CURVE SMOOTH",
"625 664 LINE SMOOTH",
"625 683 OFFCURVE",
"612 693 OFFCURVE",
"597 693 CURVE SMOOTH",
"581 693 OFFCURVE",
"569 683 OFFCURVE",
"569 664 CURVE SMOOTH",
"569 85 LINE",
"181 653 LINE SMOOTH",
"163 680 OFFCURVE",
"145 693 OFFCURVE",
"129 693 CURVE SMOOTH",
"105 693 OFFCURVE",
"90 676 OFFCURVE",
"90 647 CURVE SMOOTH",
"90 29 LINE SMOOTH",
"90 9 OFFCURVE",
"103 0 OFFCURVE",
"119 0 CURVE SMOOTH",
"134 0 OFFCURVE",
"147 10 OFFCURVE",
"147 29 CURVE SMOOTH"
);
}
);
};
layerId = "9E718F8A-2CEA-4931-B05D-987794BD97DA";
paths = (
{
closed = 1;
nodes = (
"476 -183 LINE SMOOTH",
"581 -176 OFFCURVE",
"634 -122 OFFCURVE",
"634 0 CURVE SMOOTH",
"634 681 LINE SMOOTH",
"634 698 OFFCURVE",
"625 710 OFFCURVE",
"608 710 CURVE SMOOTH",
"592 710 OFFCURVE",
"581 698 OFFCURVE",
"581 681 CURVE SMOOTH",
"581 61 LINE",
"606 62 LINE",
"138 696 LINE SMOOTH",
"132 705 OFFCURVE",
"125 710 OFFCURVE",
"114 710 CURVE SMOOTH",
"96 710 OFFCURVE",
"86 698 OFFCURVE",
"86 681 CURVE SMOOTH",
"86 24 LINE SMOOTH",
"86 7 OFFCURVE",
"95 -5 OFFCURVE",
"113 -5 CURVE SMOOTH",
"129 -5 OFFCURVE",
"139 7 OFFCURVE",
"139 24 CURVE SMOOTH",
"139 644 LINE",
"114 643 LINE",
"608 -24 LINE",
"581 37 LINE",
"581 2 LINE SMOOTH",
"581 -97 OFFCURVE",
"542 -129 OFFCURVE",
"468 -134 CURVE SMOOTH",
"439 -136 LINE SMOOTH",
"420 -137 OFFCURVE",
"412 -148 OFFCURVE",
"412 -161 CURVE SMOOTH",
"412 -175 OFFCURVE",
"423 -187 OFFCURVE",
"446 -185 CURVE SMOOTH"
);
}
);
width = 720;
},
{
background = {
paths = (
{
closed = 1;
nodes = (
"181 -6 OFFCURVE",
"217 20 OFFCURVE",
"217 74 CURVE SMOOTH",
"217 495 LINE",
"189 482 LINE",
"545 21 LINE SMOOTH",
"561 2 OFFCURVE",
"581 -6 OFFCURVE",
"605 -6 CURVE SMOOTH",
"644 -6 OFFCURVE",
"681 20 OFFCURVE",
"681 74 CURVE SMOOTH",
"681 631 LINE SMOOTH",
"681 684 OFFCURVE",
"644 710 OFFCURVE",
"605 710 CURVE SMOOTH",
"566 710 OFFCURVE",
"529 684 OFFCURVE",
"529 631 CURVE SMOOTH",
"529 210 LINE",
"558 222 LINE",
"201 683 LINE SMOOTH",
"185 703 OFFCURVE",
"165 710 OFFCURVE",
"142 710 CURVE SMOOTH",
"102 710 OFFCURVE",
"66 684 OFFCURVE",
"66 631 CURVE SMOOTH",
"66 74 LINE SMOOTH",
"66 20 OFFCURVE",
"102 -6 OFFCURVE",
"141 -6 CURVE SMOOTH"
);
},
{
closed = 1;
nodes = (
"481 -182 LINE SMOOTH",
"617 -173 OFFCURVE",
"681 -98 OFFCURVE",
"681 30 CURVE SMOOTH",
"681 453 LINE SMOOTH",
"681 506 OFFCURVE",
"644 532 OFFCURVE",
"600 532 CURVE SMOOTH",
"556 532 OFFCURVE",
"519 506 OFFCURVE",
"519 453 CURVE SMOOTH",
"519 28 LINE SMOOTH",
"519 -25 OFFCURVE",
"494 -51 OFFCURVE",
"449 -54 CURVE SMOOTH",
"416 -56 LINE SMOOTH",
"372 -59 OFFCURVE",
"353 -79 OFFCURVE",
"353 -119 CURVE SMOOTH",
"353 -168 OFFCURVE",
"390 -188 OFFCURVE",
"449 -184 CURVE SMOOTH"
);
}
);
};
layerId = "E1B555A7-F4E1-459C-9C1A-AE952106EEF9";
paths = (
{
closed = 1;
nodes = (
"481 -182 LINE SMOOTH",
"617 -173 OFFCURVE",
"681 -98 OFFCURVE",
"681 30 CURVE SMOOTH",
"681 631 LINE SMOOTH",
"681 684 OFFCURVE",
"644 710 OFFCURVE",
"605 710 CURVE SMOOTH",
"566 710 OFFCURVE",
"529 684 OFFCURVE",
"529 631 CURVE SMOOTH",
"529 210 LINE",
"558 222 LINE",
"201 683 LINE SMOOTH",
"186 702 OFFCURVE",
"165 710 OFFCURVE",
"142 710 CURVE SMOOTH",
"102 710 OFFCURVE",
"66 684 OFFCURVE",
"66 631 CURVE SMOOTH",
"66 74 LINE SMOOTH",
"66 20 OFFCURVE",
"102 -6 OFFCURVE",
"141 -6 CURVE SMOOTH",
"181 -6 OFFCURVE",
"217 20 OFFCURVE",
"217 74 CURVE SMOOTH",
"217 495 LINE",
"189 482 LINE",
"554 7 LINE",
"529 89 LINE",
"529 20 LINE SMOOTH",
"529 -33 OFFCURVE",
"494 -59 OFFCURVE",
"449 -62 CURVE SMOOTH",
"416 -64 LINE SMOOTH",
"372 -67 OFFCURVE",
"353 -87 OFFCURVE",
"353 -123 CURVE SMOOTH",
"353 -168 OFFCURVE",
"390 -188 OFFCURVE",
"449 -184 CURVE SMOOTH"
);
}
);
width = 747;
}
);
leftKerningGroup = H;
leftMetricsKey = H;
rightKerningGroup = H;
rightMetricsKey = H;
unicode = 014A;
userData = {
com.typemytype.robofont.layerData = {
b = {
anchors = (
);
components = (
);
contours = (
);
lib = {
};
name = Eng;
unicodes = (
);
width = 1495;
};
};
};
},
{
glyphname = O;
lastChange = "2016-08-31 09:23:02 +0000";
layers = (
{
anchors = (
{
name = bottom;
position = "{371, 0}";
},
{
name = center;
position = "{372, 353}";
},
{
name = ogonek;
position = "{476, 10}";
},
{
name = top;
position = "{371, 705}";
},
{
name = topleft;
position = "{20, 705}";
},
{
name = topright;
position = "{401, 705}";
}
);
background = {
paths = (
{
closed = 1;
nodes = (
"558 -6 OFFCURVE",
"684 126 OFFCURVE",
"684 353 CURVE SMOOTH",
"684 581 OFFCURVE",
"558 711 OFFCURVE",
"371 711 CURVE SMOOTH",
"185 711 OFFCURVE",
"59 581 OFFCURVE",
"59 352 CURVE SMOOTH",
"59 126 OFFCURVE",
"185 -6 OFFCURVE",
"371 -6 CURVE SMOOTH"
);
},
{
closed = 1;
nodes = (
"208 44 OFFCURVE",
"115 161 OFFCURVE",
"115 353 CURVE SMOOTH",
"115 545 OFFCURVE",
"207 661 OFFCURVE",
"371 661 CURVE SMOOTH",
"538 661 OFFCURVE",
"628 545 OFFCURVE",
"628 353 CURVE SMOOTH",
"628 161 OFFCURVE",
"536 44 OFFCURVE",
"371 44 CURVE SMOOTH"
);
}
);
};
layerId = "9E718F8A-2CEA-4931-B05D-987794BD97DA";
paths = (
{
closed = 1;
nodes = (
"558 -6 OFFCURVE",
"684 126 OFFCURVE",
"684 353 CURVE SMOOTH",
"684 581 OFFCURVE",
"558 711 OFFCURVE",
"371 711 CURVE SMOOTH",
"185 711 OFFCURVE",
"59 581 OFFCURVE",
"59 352 CURVE SMOOTH",
"59 126 OFFCURVE",
"185 -6 OFFCURVE",
"371 -6 CURVE SMOOTH"
);
},
{
closed = 1;
nodes = (
"208 44 OFFCURVE",
"116 161 OFFCURVE",
"116 353 CURVE SMOOTH",
"116 545 OFFCURVE",
"207 661 OFFCURVE",
"371 661 CURVE SMOOTH",
"538 661 OFFCURVE",
"627 545 OFFCURVE",
"627 353 CURVE SMOOTH",
"627 161 OFFCURVE",
"536 44 OFFCURVE",
"371 44 CURVE SMOOTH"
);
}
);
width = 743;
},
{
anchors = (
{
name = bottom;
position = "{392, 0}";
},
{
name = center;
position = "{392, 353}";
},
{
name = ogonek;
position = "{510, 10}";
},
{
name = top;
position = "{391, 705}";
},
{
name = topleft;
position = "{19, 705}";
},
{
name = topright;
position = "{422, 705}";
}
);
layerId = "E1B555A7-F4E1-459C-9C1A-AE952106EEF9";
paths = (
{
closed = 1;
nodes = (
"601 -7 OFFCURVE",
"737 132 OFFCURVE",
"737 353 CURVE SMOOTH",
"737 573 OFFCURVE",
"601 712 OFFCURVE",
"392 712 CURVE SMOOTH",
"182 712 OFFCURVE",
"46 573 OFFCURVE",
"46 353 CURVE SMOOTH",
"46 132 OFFCURVE",
"182 -7 OFFCURVE",
"392 -7 CURVE SMOOTH"
);
},
{
closed = 1;
nodes = (
"271 118 OFFCURVE",
"207 197 OFFCURVE",
"207 353 CURVE SMOOTH",
"207 509 OFFCURVE",
"271 587 OFFCURVE",
"392 587 CURVE SMOOTH",
"512 587 OFFCURVE",
"577 509 OFFCURVE",
"577 353 CURVE SMOOTH",
"577 197 OFFCURVE",
"513 118 OFFCURVE",
"392 118 CURVE SMOOTH"
);
}
);
width = 783;
}
);
leftKerningGroup = O;
rightKerningGroup = O;
unicode = 004F;
userData = {
anchors = (
);
b = {
};
com.typemytype.robofont.guides = (
);
com.typemytype.robofont.layerData = {
b = {
anchors = (
);
components = (
);
contours = (
);
lib = {
};
name = O;
unicodes = (
);
width = 1597;
};
};
components = (
);
contours = (
);
lib = {
};
name = O;
unicodes = (
);
width = 1604;
};
},
{
glyphname = Ohorn;
lastChange = "2016-08-29 19:31:13 +0000";
layers = (
{
anchors = (
{
name = bottom;
position = "{372, 0}";
},
{
name = top;
position = "{371, 705}";
}
);
background = {
paths = (
{
closed = 1;
nodes = (
"558 -6 OFFCURVE",
"684 126 OFFCURVE",
"684 353 CURVE SMOOTH",
"684 581 OFFCURVE",
"558 711 OFFCURVE",
"371 711 CURVE SMOOTH",
"185 711 OFFCURVE",
"59 581 OFFCURVE",
"59 352 CURVE SMOOTH",
"59 126 OFFCURVE",
"185 -6 OFFCURVE",
"371 -6 CURVE SMOOTH"
);
},
{
closed = 1;
nodes = (
"208 44 OFFCURVE",
"116 161 OFFCURVE",
"116 353 CURVE SMOOTH",
"116 545 OFFCURVE",
"207 661 OFFCURVE",
"371 661 CURVE SMOOTH",
"538 661 OFFCURVE",
"627 545 OFFCURVE",
"627 353 CURVE SMOOTH",
"627 161 OFFCURVE",
"536 44 OFFCURVE",
"371 44 CURVE SMOOTH"
);
},
{
closed = 1;
nodes = (
"539 663 LINE",
"633 668 OFFCURVE",
"684 720 OFFCURVE",
"684 803 CURVE SMOOTH",
"684 826 OFFCURVE",
"676 835 OFFCURVE",
"659 835 CURVE SMOOTH",
"646 835 OFFCURVE",
"634 829 OFFCURVE",
"633 808 CURVE SMOOTH",
"629 727 OFFCURVE",
"600 705 OFFCURVE",
"516 705 CURVE",
"516 681 LINE"
);
}
);
};
guideLines = (
{
angle = 90;
position = "{684, 464}";
}
);
layerId = "9E718F8A-2CEA-4931-B05D-987794BD97DA";
paths = (
{
closed = 1;
nodes = (
"558 -6 OFFCURVE",
"684 126 OFFCURVE",
"684 353 CURVE SMOOTH",
"684 512 OFFCURVE",
"623 623 OFFCURVE",
"523 676 CURVE",
"529 663 LINE",
"628 663 OFFCURVE",
"684 718 OFFCURVE",
"684 808 CURVE SMOOTH",
"684 835 OFFCURVE",
"676 846 OFFCURVE",
"659 846 CURVE SMOOTH",
"646 846 OFFCURVE",
"634 838 OFFCURVE",
"633 813 CURVE SMOOTH",
"629 728 OFFCURVE",
"601 705 OFFCURVE",
"516 705 CURVE SMOOTH",
"476 705 OFFCURVE",
"424 711 OFFCURVE",
"381 711 CURVE SMOOTH",
"185 711 OFFCURVE",
"59 581 OFFCURVE",
"59 352 CURVE SMOOTH",
"59 126 OFFCURVE",
"185 -6 OFFCURVE",
"371 -6 CURVE SMOOTH"
);
},
{
closed = 1;
nodes = (
"208 44 OFFCURVE",
"116 161 OFFCURVE",
"116 353 CURVE SMOOTH",
"116 545 OFFCURVE",
"207 661 OFFCURVE",
"371 661 CURVE SMOOTH",
"538 661 OFFCURVE",
"627 545 OFFCURVE",
"627 353 CURVE SMOOTH",
"627 161 OFFCURVE",
"536 44 OFFCURVE",
"371 44 CURVE SMOOTH"
);
}
);
width = 743;
},
{
anchors = (
{
name = bottom;
position = "{392, 0}";
},
{
name = top;
position = "{391, 705}";
}
);
background = {
paths = (
{
closed = 1;
nodes = (
"601 -7 OFFCURVE",
"737 132 OFFCURVE",
"737 353 CURVE SMOOTH",
"737 500 OFFCURVE",
"676 611 OFFCURVE",
"574 668 CURVE SMOOTH",
"523 697 OFFCURVE",
"461 712 OFFCURVE",
"392 712 CURVE SMOOTH",
"182 712 OFFCURVE",
"46 573 OFFCURVE",
"46 353 CURVE SMOOTH",
"46 132 OFFCURVE",
"182 -7 OFFCURVE",
"392 -7 CURVE SMOOTH"
);
},
{
closed = 1;
nodes = (
"271 118 OFFCURVE",
"207 197 OFFCURVE",
"207 353 CURVE SMOOTH",
"207 509 OFFCURVE",
"271 587 OFFCURVE",
"392 587 CURVE SMOOTH",
"512 587 OFFCURVE",
"577 509 OFFCURVE",
"577 353 CURVE SMOOTH",
"577 197 OFFCURVE",
"513 118 OFFCURVE",
"392 118 CURVE SMOOTH"
);
},
{
closed = 1;
nodes = (
"605 631 LINE",
"685 641 OFFCURVE",
"737 707 OFFCURVE",
"737 776 CURVE SMOOTH",
"737 823 OFFCURVE",
"717 842 OFFCURVE",
"675 842 CURVE SMOOTH",
"631 842 OFFCURVE",
"604 824 OFFCURVE",
"598 772 CURVE SMOOTH",
"593 722 OFFCURVE",
"574 705 OFFCURVE",
"513 705 CURVE",
"392 712 LINE"
);
}
);
};
guideLines = (
{
angle = 90;
position = "{737, 640}";
}
);
layerId = "E1B555A7-F4E1-459C-9C1A-AE952106EEF9";
paths = (
{
closed = 1;
nodes = (
"601 -7 OFFCURVE",
"737 132 OFFCURVE",
"737 353 CURVE SMOOTH",
"737 487 OFFCURVE",
"687 590 OFFCURVE",
"601 651 CURVE",
"585 630 LINE",
"677 630 OFFCURVE",
"737 702 OFFCURVE",
"737 781 CURVE SMOOTH",
"737 833 OFFCURVE",
"715 859 OFFCURVE",
"673 859 CURVE SMOOTH",
"629 859 OFFCURVE",
"603 834 OFFCURVE",
"598 777 CURVE SMOOTH",
"594 723 OFFCURVE",
"573 705 OFFCURVE",
"517 705 CURVE SMOOTH",
"473 705 OFFCURVE",
"442 712 OFFCURVE",
"395 712 CURVE SMOOTH",
"182 712 OFFCURVE",
"46 573 OFFCURVE",
"46 353 CURVE SMOOTH",
"46 132 OFFCURVE",
"182 -7 OFFCURVE",
"392 -7 CURVE SMOOTH"
);
},
{
closed = 1;
nodes = (
"271 118 OFFCURVE",
"207 197 OFFCURVE",
"207 353 CURVE SMOOTH",
"207 509 OFFCURVE",
"271 587 OFFCURVE",
"392 587 CURVE SMOOTH",
"512 587 OFFCURVE",
"577 509 OFFCURVE",
"577 353 CURVE SMOOTH",
"577 197 OFFCURVE",
"513 118 OFFCURVE",
"392 118 CURVE SMOOTH"
);
}
);
width = 783;
}
);
leftKerningGroup = O;
leftMetricsKey = O;
widthMetricsKey = O;
rightKerningGroup = O;
unicode = 01A0;
},
{
glyphname = Oogonek;
lastChange = "2016-08-29 19:31:13 +0000";
layers = (
{
anchors = (
{
name = top;
position = "{371, 705}";
}
);
background = {
paths = (
{
closed = 1;
nodes = (
"558 -6 OFFCURVE",
"684 126 OFFCURVE",
"684 353 CURVE SMOOTH",
"684 581 OFFCURVE",
"558 711 OFFCURVE",
"371 711 CURVE SMOOTH",
"185 711 OFFCURVE",
"59 581 OFFCURVE",
"59 352 CURVE SMOOTH",
"59 126 OFFCURVE",
"185 -6 OFFCURVE",
"371 -6 CURVE SMOOTH"
);
},
{
closed = 1;
nodes = (
"208 44 OFFCURVE",
"116 161 OFFCURVE",
"116 353 CURVE SMOOTH",
"116 545 OFFCURVE",
"207 661 OFFCURVE",
"371 661 CURVE SMOOTH",
"538 661 OFFCURVE",
"627 545 OFFCURVE",
"627 353 CURVE SMOOTH",
"627 161 OFFCURVE",
"536 44 OFFCURVE",
"371 44 CURVE SMOOTH"
);
},
{
closed = 1;
nodes = (
"472 -191 OFFCURVE",
"495 -186 OFFCURVE",
"516 -174 CURVE SMOOTH",
"540 -160 OFFCURVE",
"531 -119 OFFCURVE",
"500 -135 CURVE SMOOTH",
"482 -144 OFFCURVE",
"464 -148 OFFCURVE",
"452 -148 CURVE SMOOTH",
"412 -148 OFFCURVE",
"384 -125 OFFCURVE",
"384 -82 CURVE SMOOTH",
"384 -38 OFFCURVE",
"412 -2 OFFCURVE",
"476 10 CURVE",
"464 41 LINE",
"380 27 OFFCURVE",
"334 -24 OFFCURVE",
"334 -88 CURVE SMOOTH",
"334 -148 OFFCURVE",
"379 -191 OFFCURVE",
"447 -191 CURVE SMOOTH"
);
}
);
};
layerId = "9E718F8A-2CEA-4931-B05D-987794BD97DA";
paths = (
{
closed = 1;
nodes = (
"592 40 OFFCURVE",
"684 158 OFFCURVE",
"684 353 CURVE SMOOTH",
"684 581 OFFCURVE",
"558 711 OFFCURVE",
"371 711 CURVE SMOOTH",
"185 711 OFFCURVE",
"59 581 OFFCURVE",
"59 352 CURVE SMOOTH",
"59 115 OFFCURVE",
"197 -19 OFFCURVE",
"398 -5 CURVE",
"390 13 LINE",
"354 -9 OFFCURVE",
"334 -47 OFFCURVE",
"334 -88 CURVE SMOOTH",
"334 -148 OFFCURVE",
"379 -191 OFFCURVE",
"447 -191 CURVE SMOOTH",
"472 -191 OFFCURVE",
"495 -186 OFFCURVE",
"516 -174 CURVE SMOOTH",
"540 -160 OFFCURVE",
"531 -119 OFFCURVE",
"500 -135 CURVE SMOOTH",
"482 -144 OFFCURVE",
"464 -148 OFFCURVE",
"452 -148 CURVE SMOOTH",
"412 -148 OFFCURVE",
"384 -125 OFFCURVE",
"384 -82 CURVE SMOOTH",
"384 -46 OFFCURVE",
"401 -11 OFFCURVE",
"460 5 CURVE SMOOTH"
);
},
{
closed = 1;
nodes = (
"116 545 OFFCURVE",
"207 661 OFFCURVE",
"371 661 CURVE SMOOTH",
"538 661 OFFCURVE",
"627 545 OFFCURVE",
"627 353 CURVE SMOOTH",
"627 161 OFFCURVE",
"536 44 OFFCURVE",
"371 44 CURVE SMOOTH",
"208 44 OFFCURVE",
"116 161 OFFCURVE",
"116 353 CURVE SMOOTH"
);
}
);
width = 743;
},
{
anchors = (
{
name = top;
position = "{391, 705}";
}
);
background = {
paths = (
{
closed = 1;
nodes = (
"601 -7 OFFCURVE",
"737 132 OFFCURVE",
"737 353 CURVE SMOOTH",
"737 573 OFFCURVE",
"601 712 OFFCURVE",
"392 712 CURVE SMOOTH",
"182 712 OFFCURVE",
"46 573 OFFCURVE",
"46 353 CURVE SMOOTH",
"46 132 OFFCURVE",
"182 -7 OFFCURVE",
"392 -7 CURVE SMOOTH"
);
},
{
closed = 1;
nodes = (
"271 118 OFFCURVE",
"207 197 OFFCURVE",
"207 353 CURVE SMOOTH",
"207 509 OFFCURVE",
"271 587 OFFCURVE",
"392 587 CURVE SMOOTH",
"512 587 OFFCURVE",
"577 509 OFFCURVE",
"577 353 CURVE SMOOTH",
"577 197 OFFCURVE",
"513 118 OFFCURVE",
"392 118 CURVE SMOOTH"
);
},
{
closed = 1;
nodes = (
"501 -197 OFFCURVE",
"530 -191 OFFCURVE",
"559 -174 CURVE SMOOTH",
"592 -155 OFFCURVE",
"577 -98 OFFCURVE",
"541 -109 CURVE SMOOTH",
"519 -115 OFFCURVE",
"508 -117 OFFCURVE",
"493 -117 CURVE SMOOTH",
"465 -117 OFFCURVE",
"441 -99 OFFCURVE",
"441 -64 CURVE SMOOTH",
"441 -27 OFFCURVE",
"465 -3 OFFCURVE",
"510 10 CURVE",
"493 46 LINE",
"392 33 OFFCURVE",
"342 -22 OFFCURVE",
"342 -87 CURVE SMOOTH",
"342 -154 OFFCURVE",
"398 -197 OFFCURVE",
"470 -197 CURVE SMOOTH"
);
}
);
};
layerId = "E1B555A7-F4E1-459C-9C1A-AE952106EEF9";
paths = (
{
closed = 1;
nodes = (
"648 50 OFFCURVE",
"737 173 OFFCURVE",
"737 353 CURVE SMOOTH",
"737 573 OFFCURVE",
"601 712 OFFCURVE",
"392 712 CURVE SMOOTH",
"182 712 OFFCURVE",
"46 573 OFFCURVE",
"46 353 CURVE SMOOTH",
"46 126 OFFCURVE",
"188 -14 OFFCURVE",
"408 -7 CURVE",
"395 14 LINE",
"360 -10 OFFCURVE",
"342 -47 OFFCURVE",
"342 -87 CURVE SMOOTH",
"342 -154 OFFCURVE",
"398 -197 OFFCURVE",
"470 -197 CURVE SMOOTH",
"501 -197 OFFCURVE",
"530 -191 OFFCURVE",
"559 -174 CURVE SMOOTH",
"592 -155 OFFCURVE",
"577 -98 OFFCURVE",
"541 -109 CURVE SMOOTH",
"519 -115 OFFCURVE",
"508 -117 OFFCURVE",
"493 -117 CURVE SMOOTH",
"465 -117 OFFCURVE",
"441 -99 OFFCURVE",
"441 -64 CURVE SMOOTH",
"441 -30 OFFCURVE",
"461 -5 OFFCURVE",
"504 8 CURVE SMOOTH"
);
},
{
closed = 1;
nodes = (
"207 509 OFFCURVE",
"271 587 OFFCURVE",
"392 587 CURVE SMOOTH",
"512 587 OFFCURVE",
"577 509 OFFCURVE",
"577 353 CURVE SMOOTH",
"577 197 OFFCURVE",
"513 118 OFFCURVE",
"392 118 CURVE SMOOTH",
"271 118 OFFCURVE",
"207 197 OFFCURVE",
"207 353 CURVE SMOOTH"
);
}
);
width = 783;
}
);
leftKerningGroup = O;
leftMetricsKey = O;
rightKerningGroup = O;
rightMetricsKey = O;
unicode = 01EA;
},
{
glyphname = Oslash;
lastChange = "2016-08-29 19:31:13 +0000";
layers = (
{
anchors = (
{
name = bottom;
position = "{371, 0}";
},
{
name = top;
position = "{371, 705}";
}
);
background = {
paths = (
{
closed = 1;
nodes = (
"732 330 LINE SMOOTH",
"746 330 OFFCURVE",
"755 338 OFFCURVE",
"755 353 CURVE SMOOTH",
"755 368 OFFCURVE",
"746 376 OFFCURVE",
"732 376 CURVE SMOOTH",
"13 376 LINE SMOOTH",
"-1 376 OFFCURVE",
"-12 368 OFFCURVE",
"-12 353 CURVE SMOOTH",
"-12 338 OFFCURVE",
"-1 330 OFFCURVE",
"13 330 CURVE SMOOTH"
);
},
{
closed = 1;
nodes = (
"558 -6 OFFCURVE",
"684 126 OFFCURVE",
"684 353 CURVE SMOOTH",
"684 581 OFFCURVE",
"558 711 OFFCURVE",
"371 711 CURVE SMOOTH",
"185 711 OFFCURVE",
"59 581 OFFCURVE",
"59 352 CURVE SMOOTH",
"59 126 OFFCURVE",
"185 -6 OFFCURVE",
"371 -6 CURVE SMOOTH"
);
},
{
closed = 1;
nodes = (
"208 44 OFFCURVE",
"116 161 OFFCURVE",
"116 353 CURVE SMOOTH",
"116 545 OFFCURVE",
"207 661 OFFCURVE",
"371 661 CURVE SMOOTH",
"538 661 OFFCURVE",
"627 545 OFFCURVE",
"627 353 CURVE SMOOTH",
"627 161 OFFCURVE",
"536 44 OFFCURVE",
"371 44 CURVE SMOOTH"
);
},
{
closed = 1;
nodes = (
"572 654 LINE SMOOTH",
"587 681 OFFCURVE",
"547 704 OFFCURVE",
"532 677 CURVE SMOOTH",
"172 54 LINE SMOOTH",
"155 24 OFFCURVE",
"196 3 OFFCURVE",
"212 31 CURVE SMOOTH"
);
}
);
};
layerId = "9E718F8A-2CEA-4931-B05D-987794BD97DA";
paths = (
{
closed = 1;
nodes = (
"558 -6 OFFCURVE",
"684 126 OFFCURVE",
"684 353 CURVE SMOOTH",
"684 581 OFFCURVE",
"560 711 OFFCURVE",
"371 711 CURVE SMOOTH",
"185 711 OFFCURVE",
"59 581 OFFCURVE",
"59 352 CURVE SMOOTH",
"59 126 OFFCURVE",
"185 -6 OFFCURVE",
"371 -6 CURVE SMOOTH"
);
},
{
closed = 1;
nodes = (
"603 703 LINE SMOOTH",
"619 730 OFFCURVE",
"579 753 OFFCURVE",
"563 726 CURVE SMOOTH",
"141 3 LINE SMOOTH",
"124 -27 OFFCURVE",
"165 -48 OFFCURVE",
"181 -20 CURVE SMOOTH"
);
},
{
closed = 1;
nodes = (
"208 44 OFFCURVE",
"116 161 OFFCURVE",
"116 353 CURVE SMOOTH",
"116 545 OFFCURVE",
"207 661 OFFCURVE",
"371 661 CURVE SMOOTH",
"538 661 OFFCURVE",
"627 545 OFFCURVE",
"627 353 CURVE SMOOTH",
"627 161 OFFCURVE",
"536 44 OFFCURVE",
"371 44 CURVE SMOOTH"
);
}
);
width = 743;
},
{
anchors = (
{
name = bottom;
position = "{392, 0}";
},
{
name = top;
position = "{391, 705}";
}
);
background = {
paths = (
{
closed = 1;
nodes = (
"601 -7 OFFCURVE",
"737 132 OFFCURVE",
"737 353 CURVE SMOOTH",
"737 573 OFFCURVE",
"601 712 OFFCURVE",
"392 712 CURVE SMOOTH",
"182 712 OFFCURVE",
"46 573 OFFCURVE",
"46 353 CURVE SMOOTH",
"46 132 OFFCURVE",
"182 -7 OFFCURVE",
"392 -7 CURVE SMOOTH"
);
},
{
closed = 1;
nodes = (
"270 118 OFFCURVE",
"206 197 OFFCURVE",
"206 353 CURVE SMOOTH",
"206 509 OFFCURVE",
"270 587 OFFCURVE",
"391 587 CURVE SMOOTH",
"511 587 OFFCURVE",
"576 509 OFFCURVE",
"576 353 CURVE SMOOTH",
"576 197 OFFCURVE",
"512 118 OFFCURVE",
"391 118 CURVE SMOOTH"
);
},
{
closed = 1;
nodes = (
"736 294 LINE SMOOTH",
"784 294 OFFCURVE",
"808 318 OFFCURVE",
"808 353 CURVE SMOOTH",
"808 388 OFFCURVE",
"784 412 OFFCURVE",
"736 412 CURVE SMOOTH",
"46 412 LINE SMOOTH",
"-2 412 OFFCURVE",
"-26 388 OFFCURVE",
"-26 353 CURVE SMOOTH",
"-26 318 OFFCURVE",
"-2 294 OFFCURVE",
"46 294 CURVE SMOOTH"
);
},
{
closed = 1;
nodes = (
"615 622 LINE SMOOTH",
"664 707 OFFCURVE",
"561 765 OFFCURVE",
"512 681 CURVE SMOOTH",
"167 84 LINE SMOOTH",
"118 -1 OFFCURVE",
"221 -59 OFFCURVE",
"270 25 CURVE SMOOTH"
);
}
);
};
layerId = "E1B555A7-F4E1-459C-9C1A-AE952106EEF9";
paths = (
{
closed = 1;
nodes = (
"601 -7 OFFCURVE",
"737 132 OFFCURVE",
"737 353 CURVE SMOOTH",
"737 573 OFFCURVE",
"602 712 OFFCURVE",
"392 712 CURVE SMOOTH",
"182 712 OFFCURVE",
"46 573 OFFCURVE",
"46 353 CURVE SMOOTH",
"46 132 OFFCURVE",
"182 -7 OFFCURVE",
"392 -7 CURVE SMOOTH"
);
},
{
closed = 1;
nodes = (
"640 662 LINE SMOOTH",
"689 746 OFFCURVE",
"586 805 OFFCURVE",
"537 721 CURVE SMOOTH",
"143 43 LINE SMOOTH",
"94 -41 OFFCURVE",
"197 -100 OFFCURVE",
"246 -16 CURVE SMOOTH"
);
},
{
closed = 1;
nodes = (
"270 118 OFFCURVE",
"206 197 OFFCURVE",
"206 353 CURVE SMOOTH",
"206 509 OFFCURVE",
"270 587 OFFCURVE",
"391 587 CURVE SMOOTH",
"511 587 OFFCURVE",
"576 509 OFFCURVE",
"576 353 CURVE SMOOTH",
"576 197 OFFCURVE",
"512 118 OFFCURVE",
"391 118 CURVE SMOOTH"
);
}
);
width = 783;
}
);
leftKerningGroup = O;
leftMetricsKey = O;
rightKerningGroup = O;
rightMetricsKey = O;
unicode = 00D8;
userData = {
com.typemytype.robofont.layerData = {
b = {
anchors = (
);
components = (
);
contours = (
);
lib = {
};
name = Oslash;
unicodes = (
);
width = 1597;
};
};
};
},
{
glyphname = OE;
lastChange = "2016-08-29 19:31:13 +0000";
layers = (
{
anchors = (
{
name = bottom;
position = "{526, 0}";
},
{
name = top;
position = "{525, 705}";
}
);
layerId = "9E718F8A-2CEA-4931-B05D-987794BD97DA";
paths = (
{
closed = 1;
nodes = (
"967 0 LINE SMOOTH",
"981 0 OFFCURVE",
"991 10 OFFCURVE",
"991 25 CURVE SMOOTH",
"991 41 OFFCURVE",
"981 50 OFFCURVE",
"967 50 CURVE SMOOTH",
"608 50 LINE",
"608 333 LINE",
"947 333 LINE SMOOTH",
"961 333 OFFCURVE",
"971 343 OFFCURVE",
"971 358 CURVE SMOOTH",
"971 373 OFFCURVE",
"961 383 OFFCURVE",
"947 383 CURVE SMOOTH",
"608 383 LINE",
"608 655 LINE",
"967 655 LINE SMOOTH",
"981 655 OFFCURVE",
"991 664 OFFCURVE",
"991 680 CURVE SMOOTH",
"991 695 OFFCURVE",
"981 705 OFFCURVE",
"966 705 CURVE SMOOTH",
"406 705 LINE SMOOTH",
"185 705 OFFCURVE",
"59 581 OFFCURVE",
"59 353 CURVE SMOOTH",
"59 126 OFFCURVE",
"185 0 OFFCURVE",
"406 0 CURVE SMOOTH"
);
},
{
closed = 1;
nodes = (
"205 50 OFFCURVE",
"116 162 OFFCURVE",
"116 353 CURVE SMOOTH",
"116 545 OFFCURVE",
"205 655 OFFCURVE",
"409 655 CURVE SMOOTH",
"555 655 LINE",
"555 50 LINE",
"409 50 LINE SMOOTH"
);
}
);
width = 1027;
},
{
anchors = (
{
name = bottom;
position = "{526, 0}";
},
{
name = top;
position = "{526, 705}";
}
);
layerId = "E1B555A7-F4E1-459C-9C1A-AE952106EEF9";
paths = (
{
closed = 1;
nodes = (
"944 0 LINE SMOOTH",
"996 0 OFFCURVE",
"1020 23 OFFCURVE",
"1020 61 CURVE SMOOTH",
"1020 100 OFFCURVE",
"996 123 OFFCURVE",
"944 123 CURVE SMOOTH",
"672 123 LINE",
"672 295 LINE",
"924 295 LINE SMOOTH",
"976 295 OFFCURVE",
"1000 318 OFFCURVE",
"1000 356 CURVE SMOOTH",
"1000 395 OFFCURVE",
"976 418 OFFCURVE",
"924 418 CURVE SMOOTH",
"672 418 LINE",
"672 582 LINE",
"944 582 LINE SMOOTH",
"996 582 OFFCURVE",
"1020 605 OFFCURVE",
"1020 644 CURVE SMOOTH",
"1020 682 OFFCURVE",
"996 705 OFFCURVE",
"945 705 CURVE SMOOTH",
"417 705 LINE SMOOTH",
"182 705 OFFCURVE",
"46 573 OFFCURVE",
"46 353 CURVE SMOOTH",
"46 132 OFFCURVE",
"182 0 OFFCURVE",
"417 0 CURVE SMOOTH"
);
},
{
closed = 1;
nodes = (
"287 127 OFFCURVE",
"207 195 OFFCURVE",
"207 353 CURVE SMOOTH",
"207 510 OFFCURVE",
"287 578 OFFCURVE",
"428 578 CURVE SMOOTH",
"515 578 LINE",
"515 127 LINE",
"428 127 LINE SMOOTH"
);
}
);
width = 1038;
}
);
leftKerningGroup = O;
leftMetricsKey = O;
rightKerningGroup = E;
rightMetricsKey = E;
unicode = 0152;
},
{
glyphname = P;
lastChange = "2016-08-31 09:24:32 +0000";
layers = (
{
anchors = (
{
name = bottom;
position = "{311, 0}";
},
{
name = top;
position = "{311, 705}";
}
);
background = {
paths = (
{
closed = 1;
nodes = (
"191 -6 OFFCURVE",
"227 20 OFFCURVE",
"227 74 CURVE SMOOTH",
"227 263 LINE",
"395 263 LINE SMOOTH",
"552 263 OFFCURVE",
"637 352 OFFCURVE",
"637 484 CURVE SMOOTH",
"637 617 OFFCURVE",
"553 705 OFFCURVE",
"395 705 CURVE SMOOTH",
"141 705 LINE SMOOTH",
"93 705 OFFCURVE",
"66 678 OFFCURVE",
"66 630 CURVE SMOOTH",
"66 74 LINE SMOOTH",
"66 20 OFFCURVE",
"102 -6 OFFCURVE",
"146 -6 CURVE SMOOTH"
);
},
{
closed = 1;
nodes = (
"225 582 LINE",
"367 582 LINE SMOOTH",
"443 582 OFFCURVE",
"484 553 OFFCURVE",
"484 483 CURVE SMOOTH",
"484 414 OFFCURVE",
"443 385 OFFCURVE",
"367 385 CURVE SMOOTH",
"225 385 LINE"
);
}
);
};
layerId = "9E718F8A-2CEA-4931-B05D-987794BD97DA";
paths = (
{
closed = 1;
nodes = (
"131 -5 OFFCURVE",
"140 7 OFFCURVE",
"140 24 CURVE SMOOTH",
"140 299 LINE",
"348 299 LINE SMOOTH",
"478 299 OFFCURVE",
"578 368 OFFCURVE",
"578 503 CURVE SMOOTH",
"578 639 OFFCURVE",
"484 705 OFFCURVE",
"348 705 CURVE SMOOTH",
"116 705 LINE SMOOTH",
"99 705 OFFCURVE",
"86 693 OFFCURVE",
"86 677 CURVE SMOOTH",
"86 24 LINE SMOOTH",
"86 7 OFFCURVE",
"96 -5 OFFCURVE",
"113 -5 CURVE SMOOTH"
);
},
{
closed = 1;
nodes = (
"141 655 LINE",
"345 655 LINE SMOOTH",
"453 655 OFFCURVE",
"522 613 OFFCURVE",
"522 503 CURVE SMOOTH",
"522 395 OFFCURVE",
"453 349 OFFCURVE",
"345 349 CURVE SMOOTH",
"141 349 LINE"
);
}
);
width = 625;
},
{
anchors = (
{
name = bottom;
position = "{335, 0}";
},
{
name = top;
position = "{334, 705}";
}
);
layerId = "E1B555A7-F4E1-459C-9C1A-AE952106EEF9";
paths = (
{
closed = 1;
nodes = (
"191 -6 OFFCURVE",
"227 20 OFFCURVE",
"227 74 CURVE SMOOTH",
"227 263 LINE",
"395 263 LINE SMOOTH",
"552 263 OFFCURVE",
"637 352 OFFCURVE",
"637 484 CURVE SMOOTH",
"637 617 OFFCURVE",
"553 705 OFFCURVE",
"395 705 CURVE SMOOTH",
"141 705 LINE SMOOTH",
"93 705 OFFCURVE",
"66 678 OFFCURVE",
"66 630 CURVE SMOOTH",
"66 74 LINE SMOOTH",
"66 20 OFFCURVE",
"102 -6 OFFCURVE",
"146 -6 CURVE SMOOTH"
);
},
{
closed = 1;
nodes = (
"225 582 LINE",
"367 582 LINE SMOOTH",
"443 582 OFFCURVE",
"484 553 OFFCURVE",
"484 483 CURVE SMOOTH",
"484 414 OFFCURVE",
"443 385 OFFCURVE",
"367 385 CURVE SMOOTH",
"225 385 LINE"
);
}
);
width = 665;
}
);
leftKerningGroup = H;
leftMetricsKey = H;
rightKerningGroup = P;
unicode = 0050;
userData = {
anchors = (
);
b = {
};
com.typemytype.robofont.layerData = {
b = {
anchors = (
);
components = (
);
contours = (
{
points = (
{
segmentType = curve;
smooth = 1;
x = 266;
y = 0;
},
{
segmentType = line;
smooth = 1;
x = 1035;
y = 0;
},
{
smooth = 0;
x = 1084;
y = 0;
},
{
smooth = 0;
x = 1108;
y = 34;
},
{
segmentType = curve;
smooth = 1;
x = 1108;
y = 71;
},
{
smooth = 0;
x = 1108;
y = 107;
},
{
smooth = 0;
x = 1084;
y = 141;
},
{
segmentType = curve;
smooth = 1;
x = 1035;
y = 141;
},
{
segmentType = line;
smooth = 0;
x = 356;
y = 141;
},
{
segmentType = line;
smooth = 0;
x = 356;
y = 665;
},
{
segmentType = line;
smooth = 1;
x = 975;
y = 665;
},
{
smooth = 0;
x = 1024;
y = 665;
},
{
smooth = 0;
x = 1049;
y = 698;
},
{
segmentType = curve;
smooth = 1;
x = 1049;
y = 734;
},
{
smooth = 0;
x = 1049;
y = 770;
},
{
smooth = 0;
x = 1026;
y = 803;
},
{
segmentType = curve;
smooth = 1;
x = 975;
y = 803;
},
{
segmentType = line;
smooth = 0;
x = 356;
y = 803;
},
{
segmentType = line;
smooth = 0;
x = 356;
y = 1285;
},
{
segmentType = line;
smooth = 1;
x = 1007;
y = 1285;
},
{
smooth = 0;
x = 1056;
y = 1285;
},
{
smooth = 0;
x = 1080;
y = 1319;
},
{
segmentType = curve;
smooth = 1;
x = 1080;
y = 1356;
},
{
smooth = 0;
x = 1080;
y = 1392;
},
{
smooth = 0;
x = 1056;
y = 1426;
},
{
segmentType = curve;
smooth = 1;
x = 1007;
y = 1426;
},
{
segmentType = line;
smooth = 1;
x = 261;
y = 1426;
},
{
smooth = 0;
x = 213;
y = 1426;
},
{
smooth = 0;
x = 178;
y = 1383;
},
{
segmentType = curve;
smooth = 1;
x = 178;
y = 1340;
},
{
segmentType = line;
smooth = 1;
x = 178;
y = 86;
},
{
smooth = 0;
x = 178;
y = 41;
},
{
smooth = 0;
x = 222;
y = 0;
}
);
}
);
lib = {
};
name = P;
unicodes = (
);
width = 1201;
};
};
components = (
);
contours = (
);
lib = {
};
name = P;
unicodes = (
);
width = 1319;
};
},
{
glyphname = Thorn;
lastChange = "2016-08-31 09:20:16 +0000";
layers = (
{
anchors = (
{
name = bottom;
position = "{311, 0}";
},
{
name = top;
position = "{311, 705}";
}
);
layerId = "9E718F8A-2CEA-4931-B05D-987794BD97DA";
paths = (
{
closed = 1;
nodes = (
"348 172 LINE SMOOTH",
"478 172 OFFCURVE",
"578 237 OFFCURVE",
"578 360 CURVE SMOOTH",
"578 483 OFFCURVE",
"484 545 OFFCURVE",
"348 545 CURVE SMOOTH",
"129 545 LINE",
"129 495 LINE",
"345 495 LINE SMOOTH",
"452 495 OFFCURVE",
"522 458 OFFCURVE",
"522 360 CURVE SMOOTH",
"522 263 OFFCURVE",
"452 222 OFFCURVE",
"345 222 CURVE SMOOTH",
"129 222 LINE",
"129 172 LINE"
);
},
{
closed = 1;
nodes = (
"130 -5 OFFCURVE",
"140 7 OFFCURVE",
"140 24 CURVE SMOOTH",
"140 681 LINE SMOOTH",
"140 698 OFFCURVE",
"130 710 OFFCURVE",
"113 710 CURVE SMOOTH",
"96 710 OFFCURVE",
"86 698 OFFCURVE",
"86 681 CURVE SMOOTH",
"86 24 LINE SMOOTH",
"86 7 OFFCURVE",
"96 -5 OFFCURVE",
"113 -5 CURVE SMOOTH"
);
}
);
width = 625;
},
{
anchors = (
{
name = bottom;
position = "{335, 0}";
},
{
name = top;
position = "{334, 705}";
}
);
layerId = "E1B555A7-F4E1-459C-9C1A-AE952106EEF9";
paths = (
{
closed = 1;
nodes = (
"394 152 LINE SMOOTH",
"553 152 OFFCURVE",
"637 236 OFFCURVE",
"637 358 CURVE SMOOTH",
"637 481 OFFCURVE",
"554 564 OFFCURVE",
"394 564 CURVE SMOOTH",
"204 564 LINE",
"204 441 LINE",
"367 441 LINE SMOOTH",
"448 441 OFFCURVE",
"484 417 OFFCURVE",
"484 358 CURVE SMOOTH",
"484 299 OFFCURVE",
"448 275 OFFCURVE",
"367 275 CURVE SMOOTH",
"204 275 LINE",
"204 152 LINE"
);
},
{
closed = 1;
nodes = (
"187 -6 OFFCURVE",
"224 20 OFFCURVE",
"224 74 CURVE SMOOTH",
"224 631 LINE SMOOTH",
"224 684 OFFCURVE",
"187 710 OFFCURVE",
"145 710 CURVE SMOOTH",
"102 710 OFFCURVE",
"66 684 OFFCURVE",
"66 631 CURVE SMOOTH",
"66 74 LINE SMOOTH",
"66 20 OFFCURVE",
"102 -6 OFFCURVE",
"145 -6 CURVE SMOOTH"
);
}
);
width = 665;
}
);
leftKerningGroup = H;
leftMetricsKey = H;
rightKerningGroup = THORN;
unicode = 00DE;
},
{
glyphname = Q;
lastChange = "2016-08-29 19:31:13 +0000";
layers = (
{
anchors = (
{
name = bottom;
position = "{371, 0}";
},
{
name = top;
position = "{371, 705}";
}
);
background = {
paths = (
{
closed = 1;
nodes = (
"573 -202 OFFCURVE",
"620 -181 OFFCURVE",
"601 -149 CURVE SMOOTH",
"549 -62 LINE SMOOTH",
"518 -11 OFFCURVE",
"493 17 OFFCURVE",
"420 17 CURVE",
"371 -6 LINE",
"441 -6 OFFCURVE",
"475 -40 OFFCURVE",
"493 -69 CURVE SMOOTH",
"550 -163 LINE SMOOTH"
);
},
{
closed = 1;
nodes = (
"558 -6 OFFCURVE",
"684 126 OFFCURVE",
"684 353 CURVE SMOOTH",
"684 581 OFFCURVE",
"558 711 OFFCURVE",
"371 711 CURVE SMOOTH",
"185 711 OFFCURVE",
"59 581 OFFCURVE",
"59 352 CURVE SMOOTH",
"59 126 OFFCURVE",
"185 -6 OFFCURVE",
"371 -6 CURVE SMOOTH"
);
},
{
closed = 1;
nodes = (
"208 44 OFFCURVE",
"116 161 OFFCURVE",
"116 353 CURVE SMOOTH",
"116 545 OFFCURVE",
"207 661 OFFCURVE",
"371 661 CURVE SMOOTH",
"538 661 OFFCURVE",
"627 545 OFFCURVE",
"627 353 CURVE SMOOTH",
"627 161 OFFCURVE",
"536 44 OFFCURVE",
"371 44 CURVE SMOOTH"
);
}
);
};
layerId = "9E718F8A-2CEA-4931-B05D-987794BD97DA";
paths = (
{
closed = 1;
nodes = (
"573 -202 OFFCURVE",
"620 -181 OFFCURVE",
"601 -149 CURVE SMOOTH",
"549 -62 LINE SMOOTH",
"518 -11 OFFCURVE",
"493 17 OFFCURVE",
"420 17 CURVE",
"448 2 LINE",
"590 33 OFFCURVE",
"684 158 OFFCURVE",
"684 353 CURVE SMOOTH",
"684 581 OFFCURVE",
"558 711 OFFCURVE",
"371 711 CURVE SMOOTH",
"185 711 OFFCURVE",
"59 581 OFFCURVE",
"59 352 CURVE SMOOTH",
"59 126 OFFCURVE",
"185 -6 OFFCURVE",
"371 -6 CURVE SMOOTH",
"441 -6 OFFCURVE",
"475 -40 OFFCURVE",
"493 -69 CURVE SMOOTH",
"550 -163 LINE SMOOTH"
);
},
{
closed = 1;
nodes = (
"208 44 OFFCURVE",
"116 161 OFFCURVE",
"116 353 CURVE SMOOTH",
"116 545 OFFCURVE",
"207 661 OFFCURVE",
"371 661 CURVE SMOOTH",
"538 661 OFFCURVE",
"627 545 OFFCURVE",
"627 353 CURVE SMOOTH",
"627 161 OFFCURVE",
"536 44 OFFCURVE",
"371 44 CURVE SMOOTH"
);
}
);
width = 743;
},
{
anchors = (
{
name = bottom;
position = "{392, 0}";
},
{
name = top;
position = "{391, 705}";
}
);
background = {
paths = (
{
closed = 1;
nodes = (
"585 -228 OFFCURVE",
"730 -173 OFFCURVE",
"670 -76 CURVE SMOOTH",
"643 -32 LINE SMOOTH",
"612 19 OFFCURVE",
"568 39 OFFCURVE",
"503 39 CURVE",
"392 -7 LINE",
"438 -7 OFFCURVE",
"461 -21 OFFCURVE",
"476 -46 CURVE SMOOTH",
"536 -146 LINE SMOOTH"
);
},
{
closed = 1;
nodes = (
"601 -7 OFFCURVE",
"737 132 OFFCURVE",
"737 353 CURVE SMOOTH",
"737 573 OFFCURVE",
"601 712 OFFCURVE",
"392 712 CURVE SMOOTH",
"182 712 OFFCURVE",
"46 573 OFFCURVE",
"46 353 CURVE SMOOTH",
"46 132 OFFCURVE",
"182 -7 OFFCURVE",
"392 -7 CURVE SMOOTH"
);
},
{
closed = 1;
nodes = (
"271 118 OFFCURVE",
"207 197 OFFCURVE",
"207 353 CURVE SMOOTH",
"207 509 OFFCURVE",
"271 587 OFFCURVE",
"392 587 CURVE SMOOTH",
"512 587 OFFCURVE",
"577 509 OFFCURVE",
"577 353 CURVE SMOOTH",
"577 197 OFFCURVE",
"513 118 OFFCURVE",
"392 118 CURVE SMOOTH"
);
}
);
};
layerId = "E1B555A7-F4E1-459C-9C1A-AE952106EEF9";
paths = (
{
closed = 1;
nodes = (
"585 -228 OFFCURVE",
"730 -173 OFFCURVE",
"670 -76 CURVE SMOOTH",
"643 -32 LINE SMOOTH",
"612 19 OFFCURVE",
"568 39 OFFCURVE",
"503 39 CURVE",
"529 16 LINE",
"662 67 OFFCURVE",
"737 188 OFFCURVE",
"737 353 CURVE SMOOTH",
"737 573 OFFCURVE",
"601 712 OFFCURVE",
"392 712 CURVE SMOOTH",
"182 712 OFFCURVE",
"46 573 OFFCURVE",
"46 353 CURVE SMOOTH",
"46 132 OFFCURVE",
"182 -7 OFFCURVE",
"392 -7 CURVE SMOOTH",
"438 -7 OFFCURVE",
"461 -21 OFFCURVE",
"476 -46 CURVE SMOOTH",
"536 -146 LINE SMOOTH"
);
},
{
closed = 1;
nodes = (
"271 118 OFFCURVE",
"207 197 OFFCURVE",
"207 353 CURVE SMOOTH",
"207 509 OFFCURVE",
"271 587 OFFCURVE",
"392 587 CURVE SMOOTH",
"512 587 OFFCURVE",
"577 509 OFFCURVE",
"577 353 CURVE SMOOTH",
"577 197 OFFCURVE",
"513 118 OFFCURVE",
"392 118 CURVE SMOOTH"
);
}
);
width = 783;
}
);
leftKerningGroup = O;
leftMetricsKey = O;
widthMetricsKey = O;
rightKerningGroup = O;
unicode = 0051;
userData = {
anchors = (
);
b = {
};
com.typemytype.robofont.layerData = {
b = {
anchors = (
);
components = (
);
contours = (
);
lib = {
};
name = Q;
unicodes = (
);
width = 1597;
};
};
components = (
);
contours = (
);
lib = {
};
name = Q;
unicodes = (
);
width = 1604;
};
},
{
glyphname = R;
lastChange = "2016-08-31 08:59:50 +0000";
layers = (
{
anchors = (
{
name = bottom;
position = "{329, 0}";
},
{
name = top;
position = "{329, 705}";
}
);
layerId = "9E718F8A-2CEA-4931-B05D-987794BD97DA";
paths = (
{
closed = 1;
nodes = (
"130 -5 OFFCURVE",
"140 7 OFFCURVE",
"140 24 CURVE SMOOTH",
"140 308 LINE",
"282 308 LINE SMOOTH",
"356 308 OFFCURVE",
"391 289 OFFCURVE",
"430 226 CURVE SMOOTH",
"561 15 LINE SMOOTH",
"585 -23 OFFCURVE",
"633 -3 OFFCURVE",
"613 29 CURVE SMOOTH",
"483 238 LINE SMOOTH",
"447 296 OFFCURVE",
"413 323 OFFCURVE",
"347 323 CURVE",
"364 313 LINE",
"495 313 OFFCURVE",
"594 372 OFFCURVE",
"594 508 CURVE SMOOTH",
"594 643 OFFCURVE",
"499 705 OFFCURVE",
"364 705 CURVE SMOOTH",
"116 705 LINE SMOOTH",
"99 705 OFFCURVE",
"86 693 OFFCURVE",
"86 677 CURVE SMOOTH",
"86 24 LINE SMOOTH",
"86 7 OFFCURVE",
"96 -5 OFFCURVE",
"113 -5 CURVE SMOOTH"
);
},
{
closed = 1;
nodes = (
"140 655 LINE",
"362 655 LINE SMOOTH",
"469 655 OFFCURVE",
"538 619 OFFCURVE",
"538 509 CURVE SMOOTH",
"538 398 OFFCURVE",
"469 358 OFFCURVE",
"362 358 CURVE SMOOTH",
"140 358 LINE"
);
}
);
width = 658;
},
{
anchors = (
{
name = bottom;
position = "{351, 0}";
},
{
name = top;
position = "{350, 705}";
}
);
layerId = "E1B555A7-F4E1-459C-9C1A-AE952106EEF9";
paths = (
{
closed = 1;
nodes = (
"190 -6 OFFCURVE",
"225 20 OFFCURVE",
"225 74 CURVE SMOOTH",
"225 271 LINE",
"301 271 LINE SMOOTH",
"340 271 OFFCURVE",
"362 256 OFFCURVE",
"382 225 CURVE SMOOTH",
"513 30 LINE SMOOTH",
"569 -54 OFFCURVE",
"708 13 OFFCURVE",
"647 102 CURVE SMOOTH",
"573 212 LINE SMOOTH",
"532 272 OFFCURVE",
"493 290 OFFCURVE",
"424 290 CURVE",
"405 278 LINE",
"551 278 OFFCURVE",
"644 360 OFFCURVE",
"644 492 CURVE SMOOTH",
"644 627 OFFCURVE",
"562 705 OFFCURVE",
"402 705 CURVE SMOOTH",
"141 705 LINE SMOOTH",
"93 705 OFFCURVE",
"66 678 OFFCURVE",
"66 630 CURVE SMOOTH",
"66 74 LINE SMOOTH",
"66 20 OFFCURVE",
"101 -6 OFFCURVE",
"146 -6 CURVE SMOOTH"
);
},
{
closed = 1;
nodes = (
"223 582 LINE",
"373 582 LINE SMOOTH",
"454 582 OFFCURVE",
"491 556 OFFCURVE",
"491 489 CURVE SMOOTH",
"491 422 OFFCURVE",
"454 395 OFFCURVE",
"373 395 CURVE SMOOTH",
"223 395 LINE"
);
}
);
width = 697;
}
);
leftKerningGroup = H;
leftMetricsKey = H;
rightKerningGroup = R;
unicode = 0052;
userData = {
anchors = (
);
b = {
};
com.typemytype.robofont.guides = (
);
com.typemytype.robofont.layerData = {
b = {
anchors = (
);
components = (
);
contours = (
{
points = (
{
segmentType = curve;
smooth = 1;
x = 267;
y = 0;
},
{
smooth = 0;
x = 311;
y = 0;
},
{
smooth = 0;
x = 356;
y = 27;
},
{
segmentType = curve;
smooth = 1;
x = 356;
y = 84;
},
{
segmentType = line;
smooth = 0;
x = 356;
y = 628;
},
{
segmentType = line;
smooth = 1;
x = 669;
y = 628;
},
{
smooth = 0;
x = 962;
y = 628;
},
{
smooth = 0;
x = 1182;
y = 722;
},
{
segmentType = curve;
smooth = 1;
x = 1182;
y = 1026;
},
{
smooth = 0;
x = 1182;
y = 1324;
},
{
smooth = 0;
x = 993;
y = 1426;
},
{
segmentType = curve;
smooth = 1;
x = 684;
y = 1426;
},
{
segmentType = line;
smooth = 1;
x = 268;
y = 1426;
},
{
smooth = 0;
x = 217;
y = 1426;
},
{
smooth = 0;
x = 178;
y = 1387;
},
{
segmentType = curve;
smooth = 1;
x = 178;
y = 1339;
},
{
segmentType = line;
smooth = 1;
x = 178;
y = 84;
},
{
smooth = 0;
x = 178;
y = 28;
},
{
smooth = 0;
x = 222;
y = 0;
}
);
},
{
points = (
{
segmentType = line;
smooth = 0;
x = 356;
y = 764;
},
{
segmentType = line;
smooth = 0;
x = 356;
y = 1285;
},
{
segmentType = line;
smooth = 1;
x = 684;
y = 1285;
},
{
smooth = 0;
x = 914;
y = 1285;
},
{
smooth = 0;
x = 1008;
y = 1210;
},
{
segmentType = curve;
smooth = 1;
x = 1008;
y = 1026;
},
{
smooth = 0;
x = 1008;
y = 838;
},
{
smooth = 0;
x = 901;
y = 764;
},
{
segmentType = curve;
smooth = 1;
x = 670;
y = 764;
}
);
}
);
lib = {
};
name = R;
unicodes = (
);
width = 1363;
};
};
components = (
);
contours = (
);
lib = {
};
name = R;
unicodes = (
);
width = 1408;
};
},
{
glyphname = S;
lastChange = "2016-08-31 09:20:25 +0000";
layers = (
{
anchors = (
{
name = bottom;
position = "{302, 0}";
},
{
name = top;
position = "{297, 705}";
}
);
background = {
paths = (
{
closed = 1;
nodes = (
"459 -6 OFFCURVE",
"551 79 OFFCURVE",
"551 185 CURVE SMOOTH",
"551 430 OFFCURVE",
"113 307 OFFCURVE",
"113 515 CURVE SMOOTH",
"113 613 OFFCURVE",
"192 661 OFFCURVE",
"305 661 CURVE SMOOTH",
"395 661 OFFCURVE",
"445 633 OFFCURVE",
"508 583 CURVE SMOOTH",
"517 577 OFFCURVE",
"523 574 OFFCURVE",
"529 574 CURVE SMOOTH",
"539 574 OFFCURVE",
"548 585 OFFCURVE",
"548 598 CURVE SMOOTH",
"548 608 OFFCURVE",
"544 616 OFFCURVE",
"536 625 CURVE SMOOTH",
"479 683 OFFCURVE",
"391 711 OFFCURVE",
"305 711 CURVE SMOOTH",
"140 711 OFFCURVE",
"57 618 OFFCURVE",
"57 515 CURVE SMOOTH",
"57 257 OFFCURVE",
"495 373 OFFCURVE",
"495 186 CURVE SMOOTH",
"495 92 OFFCURVE",
"421 44 OFFCURVE",
"302 44 CURVE SMOOTH",
"214 44 OFFCURVE",
"142 72 OFFCURVE",
"80 122 CURVE SMOOTH",
"72 128 OFFCURVE",
"65 131 OFFCURVE",
"59 131 CURVE SMOOTH",
"48 131 OFFCURVE",
"41 120 OFFCURVE",
"41 107 CURVE SMOOTH",
"41 98 OFFCURVE",
"45 89 OFFCURVE",
"52 80 CURVE SMOOTH",
"110 22 OFFCURVE",
"217 -6 OFFCURVE",
"302 -6 CURVE SMOOTH"
);
}
);
};
layerId = "9E718F8A-2CEA-4931-B05D-987794BD97DA";
paths = (
{
closed = 1;
nodes = (
"459 -6 OFFCURVE",
"551 79 OFFCURVE",
"551 185 CURVE SMOOTH",
"551 430 OFFCURVE",
"113 307 OFFCURVE",
"113 515 CURVE SMOOTH",
"113 613 OFFCURVE",
"192 661 OFFCURVE",
"305 661 CURVE SMOOTH",
"395 661 OFFCURVE",
"445 633 OFFCURVE",
"508 583 CURVE SMOOTH",
"517 577 OFFCURVE",
"523 574 OFFCURVE",
"529 574 CURVE SMOOTH",
"539 574 OFFCURVE",
"548 585 OFFCURVE",
"548 598 CURVE SMOOTH",
"548 608 OFFCURVE",
"544 616 OFFCURVE",
"536 625 CURVE SMOOTH",
"479 683 OFFCURVE",
"391 711 OFFCURVE",
"305 711 CURVE SMOOTH",
"140 711 OFFCURVE",
"57 618 OFFCURVE",
"57 515 CURVE SMOOTH",
"57 257 OFFCURVE",
"495 373 OFFCURVE",
"495 186 CURVE SMOOTH",
"495 92 OFFCURVE",
"421 44 OFFCURVE",
"302 44 CURVE SMOOTH",
"214 44 OFFCURVE",
"142 72 OFFCURVE",
"80 122 CURVE SMOOTH",
"72 128 OFFCURVE",
"65 131 OFFCURVE",
"59 131 CURVE SMOOTH",
"48 131 OFFCURVE",
"41 120 OFFCURVE",
"41 107 CURVE SMOOTH",
"41 98 OFFCURVE",
"44 88 OFFCURVE",
"52 80 CURVE SMOOTH",
"112 22 OFFCURVE",
"217 -6 OFFCURVE",
"302 -6 CURVE SMOOTH"
);
}
);
width = 594;
},
{
anchors = (
{
name = bottom;
position = "{322, 0}";
},
{
name = top;
position = "{327, 705}";
}
);
layerId = "E1B555A7-F4E1-459C-9C1A-AE952106EEF9";
paths = (
{
closed = 1;
nodes = (
"485 -7 OFFCURVE",
"609 71 OFFCURVE",
"609 207 CURVE SMOOTH",
"609 462 OFFCURVE",
"210 369 OFFCURVE",
"210 503 CURVE SMOOTH",
"210 551 OFFCURVE",
"252 587 OFFCURVE",
"335 587 CURVE SMOOTH",
"415 587 OFFCURVE",
"457 561 OFFCURVE",
"496 537 CURVE SMOOTH",
"513 527 OFFCURVE",
"525 520 OFFCURVE",
"545 520 CURVE SMOOTH",
"578 520 OFFCURVE",
"597 556 OFFCURVE",
"597 585 CURVE SMOOTH",
"597 608 OFFCURVE",
"590 625 OFFCURVE",
"568 641 CURVE SMOOTH",
"511 685 OFFCURVE",
"438 712 OFFCURVE",
"334 712 CURVE SMOOTH",
"154 712 OFFCURVE",
"50 609 OFFCURVE",
"50 493 CURVE SMOOTH",
"50 241 OFFCURVE",
"449 323 OFFCURVE",
"449 200 CURVE SMOOTH",
"449 151 OFFCURVE",
"412 118 OFFCURVE",
"318 118 CURVE SMOOTH",
"233 118 OFFCURVE",
"181 140 OFFCURVE",
"136 168 CURVE SMOOTH",
"119 178 OFFCURVE",
"106 185 OFFCURVE",
"87 185 CURVE SMOOTH",
"54 185 OFFCURVE",
"35 149 OFFCURVE",
"35 120 CURVE SMOOTH",
"35 97 OFFCURVE",
"41 80 OFFCURVE",
"64 64 CURVE SMOOTH",
"115 24 OFFCURVE",
"205 -7 OFFCURVE",
"322 -7 CURVE SMOOTH"
);
}
);
width = 647;
}
);
leftKerningGroup = S;
rightKerningGroup = S;
unicode = 0053;
userData = {
anchors = (
);
b = {
};
com.typemytype.robofont.layerData = {
b = {
anchors = (
);
components = (
);
contours = (
);
lib = {
};
name = S;
unicodes = (
);
width = 1274;
};
};
components = (
);
contours = (
);
lib = {
};
name = S;
unicodes = (
);
width = 1317;
};
},
{
glyphname = Germandbls;
lastChange = "2016-08-31 08:28:17 +0000";
layers = (
{
background = {
paths = (
{
closed = 1;
nodes = (
"199 710 OFFCURVE",
"86 636 OFFCURVE",
"86 434 CURVE SMOOTH",
"86 23 LINE SMOOTH",
"86 6 OFFCURVE",
"96 -6 OFFCURVE",
"113 -6 CURVE SMOOTH",
"130 -6 OFFCURVE",
"140 6 OFFCURVE",
"140 23 CURVE SMOOTH",
"140 441 LINE SMOOTH",
"140 599 OFFCURVE",
"226 660 OFFCURVE",
"357 660 CURVE SMOOTH",
"487 660 OFFCURVE",
"574 599 OFFCURVE",
"574 441 CURVE SMOOTH",
"574 23 LINE SMOOTH",
"574 6 OFFCURVE",
"586 -6 OFFCURVE",
"601 -6 CURVE SMOOTH",
"618 -6 OFFCURVE",
"628 6 OFFCURVE",
"628 23 CURVE SMOOTH",
"628 434 LINE SMOOTH",
"628 636 OFFCURVE",
"514 710 OFFCURVE",
"357 710 CURVE SMOOTH"
);
}
);
};
layerId = "9E718F8A-2CEA-4931-B05D-987794BD97DA";
paths = (
{
closed = 1;
nodes = (
"130 -6 OFFCURVE",
"140 6 OFFCURVE",
"140 23 CURVE SMOOTH",
"140 455 LINE SMOOTH",
"140 605 OFFCURVE",
"212 660 OFFCURVE",
"339 660 CURVE SMOOTH",
"447 660 OFFCURVE",
"504 607 OFFCURVE",
"504 526 CURVE SMOOTH",
"504 426 OFFCURVE",
"432 383 OFFCURVE",
"336 383 CURVE SMOOTH",
"257 383 LINE SMOOTH",
"220 383 OFFCURVE",
"220 333 OFFCURVE",
"257 333 CURVE SMOOTH",
"371 333 LINE SMOOTH",
"478 333 OFFCURVE",
"550 293 OFFCURVE",
"550 193 CURVE SMOOTH",
"550 104 OFFCURVE",
"492 45 OFFCURVE",
"388 45 CURVE SMOOTH",
"288 45 OFFCURVE",
"249 103 OFFCURVE",
"226 103 CURVE SMOOTH",
"215 103 OFFCURVE",
"206 93 OFFCURVE",
"206 81 CURVE SMOOTH",
"206 66 OFFCURVE",
"214 57 OFFCURVE",
"240 38 CURVE SMOOTH",
"276 12 OFFCURVE",
"331 -5 OFFCURVE",
"391 -5 CURVE SMOOTH",
"521 -5 OFFCURVE",
"606 76 OFFCURVE",
"606 193 CURVE SMOOTH",
"606 291 OFFCURVE",
"546 354 OFFCURVE",
"443 370 CURVE",
"434 359 LINE",
"504 376 OFFCURVE",
"560 430 OFFCURVE",
"560 526 CURVE SMOOTH",
"560 636 OFFCURVE",
"479 710 OFFCURVE",
"339 710 CURVE SMOOTH",
"173 710 OFFCURVE",
"86 630 OFFCURVE",
"86 462 CURVE SMOOTH",
"86 23 LINE SMOOTH",
"86 6 OFFCURVE",
"96 -6 OFFCURVE",
"113 -6 CURVE SMOOTH"
);
}
);
width = 667;
},
{
background = {
paths = (
{
closed = 1;
nodes = (
"509 358 LINE",
"583 380 OFFCURVE",
"633 438 OFFCURVE",
"633 522 CURVE SMOOTH",
"633 627 OFFCURVE",
"538 710 OFFCURVE",
"371 710 CURVE SMOOTH",
"178 710 OFFCURVE",
"66 613 OFFCURVE",
"66 429 CURVE SMOOTH",
"66 72 LINE SMOOTH",
"66 24 OFFCURVE",
"97 -7 OFFCURVE",
"145 -7 CURVE SMOOTH",
"187 -7 OFFCURVE",
"224 19 OFFCURVE",
"224 72 CURVE SMOOTH",
"224 436 LINE SMOOTH",
"224 538 OFFCURVE",
"276 585 OFFCURVE",
"367 585 CURVE SMOOTH",
"437 585 OFFCURVE",
"480 556 OFFCURVE",
"480 500 CURVE SMOOTH",
"480 445 OFFCURVE",
"443 419 OFFCURVE",
"362 419 CURVE SMOOTH",
"335 419 LINE SMOOTH",
"257 419 OFFCURVE",
"257 294 OFFCURVE",
"335 294 CURVE SMOOTH",
"380 294 LINE SMOOTH",
"462 294 OFFCURVE",
"499 269 OFFCURVE",
"499 202 CURVE SMOOTH",
"499 157 OFFCURVE",
"479 113 OFFCURVE",
"423 113 CURVE SMOOTH",
"370 113 OFFCURVE",
"341 153 OFFCURVE",
"298 153 CURVE SMOOTH",
"267 153 OFFCURVE",
"252 123 OFFCURVE",
"252 92 CURVE SMOOTH",
"252 66 OFFCURVE",
"264 48 OFFCURVE",
"283 36 CURVE SMOOTH",
"328 7 OFFCURVE",
"378 -6 OFFCURVE",
"434 -6 CURVE SMOOTH",
"580 -6 OFFCURVE",
"651 100 OFFCURVE",
"651 197 CURVE SMOOTH",
"651 286 OFFCURVE",
"596 347 OFFCURVE",
"509 366 CURVE"
);
}
);
};
layerId = "E1B555A7-F4E1-459C-9C1A-AE952106EEF9";
paths = (
{
closed = 1;
nodes = (
"187 -7 OFFCURVE",
"224 19 OFFCURVE",
"224 72 CURVE SMOOTH",
"224 442 LINE SMOOTH",
"224 538 OFFCURVE",
"276 585 OFFCURVE",
"362 585 CURVE SMOOTH",
"422 585 OFFCURVE",
"470 556 OFFCURVE",
"470 500 CURVE SMOOTH",
"470 445 OFFCURVE",
"433 421 OFFCURVE",
"372 421 CURVE SMOOTH",
"339 421 LINE SMOOTH",
"254 421 OFFCURVE",
"254 292 OFFCURVE",
"339 292 CURVE SMOOTH",
"390 292 LINE SMOOTH",
"482 292 OFFCURVE",
"521 269 OFFCURVE",
"521 202 CURVE SMOOTH",
"521 157 OFFCURVE",
"499 113 OFFCURVE",
"438 113 CURVE SMOOTH",
"380 113 OFFCURVE",
"351 153 OFFCURVE",
"308 153 CURVE SMOOTH",
"277 153 OFFCURVE",
"262 123 OFFCURVE",
"262 92 CURVE SMOOTH",
"262 66 OFFCURVE",
"274 48 OFFCURVE",
"293 36 CURVE SMOOTH",
"338 7 OFFCURVE",
"388 -6 OFFCURVE",
"449 -6 CURVE SMOOTH",
"600 -6 OFFCURVE",
"673 100 OFFCURVE",
"673 197 CURVE SMOOTH",
"673 286 OFFCURVE",
"616 359 OFFCURVE",
"501 372 CURVE",
"501 358 LINE",
"573 380 OFFCURVE",
"620 438 OFFCURVE",
"620 513 CURVE SMOOTH",
"620 631 OFFCURVE",
"523 710 OFFCURVE",
"366 710 CURVE SMOOTH",
"181 710 OFFCURVE",
"66 615 OFFCURVE",
"66 439 CURVE SMOOTH",
"66 72 LINE SMOOTH",
"66 24 OFFCURVE",
"97 -7 OFFCURVE",
"145 -7 CURVE SMOOTH"
);
}
);
width = 704;
}
);
leftKerningGroup = H;
leftMetricsKey = B;
rightKerningGroup = Germandbls;
rightMetricsKey = B;
unicode = 1E9E;
},
{
glyphname = Schwa;
lastChange = "2016-08-29 19:31:13 +0000";
layers = (
{
anchors = (
{
name = bottom;
position = "{360, 0}";
},
{
name = top;
position = "{360, 705}";
}
);
background = {
paths = (
{
closed = 1;
nodes = (
"989 333 LINE",
"1516 333 LINE",
"1516 383 LINE",
"959 383 LINE",
"959 352 LINE"
);
},
{
closed = 1;
nodes = (
"1143 711 OFFCURVE",
"1058 679 OFFCURVE",
"998 625 CURVE SMOOTH",
"989 617 OFFCURVE",
"986 607 OFFCURVE",
"986 598 CURVE SMOOTH",
"986 585 OFFCURVE",
"994 574 OFFCURVE",
"1004 574 CURVE SMOOTH",
"1011 574 OFFCURVE",
"1017 577 OFFCURVE",
"1025 583 CURVE SMOOTH",
"1089 631 OFFCURVE",
"1139 662 OFFCURVE",
"1240 662 CURVE SMOOTH",
"1412 662 OFFCURVE",
"1505 544 OFFCURVE",
"1505 353 CURVE SMOOTH",
"1505 161 OFFCURVE",
"1408 44 OFFCURVE",
"1260 44 CURVE SMOOTH",
"1112 44 OFFCURVE",
"1015 161 OFFCURVE",
"1015 353 CURVE",
"959 352 LINE",
"959 126 OFFCURVE",
"1090 -6 OFFCURVE",
"1260 -6 CURVE SMOOTH",
"1430 -6 OFFCURVE",
"1561 126 OFFCURVE",
"1561 353 CURVE SMOOTH",
"1561 579 OFFCURVE",
"1435 711 OFFCURVE",
"1239 711 CURVE SMOOTH"
);
},
{
closed = 1;
nodes = (
"540 -6 OFFCURVE",
"661 126 OFFCURVE",
"661 353 CURVE SMOOTH",
"661 581 OFFCURVE",
"540 711 OFFCURVE",
"360 711 CURVE SMOOTH",
"180 711 OFFCURVE",
"59 581 OFFCURVE",
"59 352 CURVE SMOOTH",
"59 126 OFFCURVE",
"180 -6 OFFCURVE",
"360 -6 CURVE SMOOTH"
);
},
{
closed = 1;
nodes = (
"204 44 OFFCURVE",
"115 161 OFFCURVE",
"115 353 CURVE SMOOTH",
"115 545 OFFCURVE",
"203 661 OFFCURVE",
"360 661 CURVE SMOOTH",
"519 661 OFFCURVE",
"605 545 OFFCURVE",
"605 353 CURVE SMOOTH",
"605 161 OFFCURVE",
"517 44 OFFCURVE",
"360 44 CURVE SMOOTH"
);
}
);
};
layerId = "9E718F8A-2CEA-4931-B05D-987794BD97DA";
paths = (
{
closed = 1;
nodes = (
"540 -6 OFFCURVE",
"661 126 OFFCURVE",
"661 353 CURVE SMOOTH",
"661 579 OFFCURVE",
"535 711 OFFCURVE",
"339 711 CURVE SMOOTH",
"243 711 OFFCURVE",
"158 679 OFFCURVE",
"98 625 CURVE SMOOTH",
"89 617 OFFCURVE",
"86 607 OFFCURVE",
"86 598 CURVE SMOOTH",
"86 585 OFFCURVE",
"94 574 OFFCURVE",
"104 574 CURVE SMOOTH",
"111 574 OFFCURVE",
"117 577 OFFCURVE",
"125 583 CURVE SMOOTH",
"189 631 OFFCURVE",
"239 662 OFFCURVE",
"340 662 CURVE SMOOTH",
"512 662 OFFCURVE",
"605 544 OFFCURVE",
"605 353 CURVE SMOOTH",
"605 161 OFFCURVE",
"517 44 OFFCURVE",
"360 44 CURVE SMOOTH",
"204 44 OFFCURVE",
"115 161 OFFCURVE",
"115 353 CURVE",
"100 333 LINE",
"636 333 LINE",
"636 383 LINE",
"97 383 LINE SMOOTH",
"73 383 OFFCURVE",
"59 370 OFFCURVE",
"59 345 CURVE SMOOTH",
"59 126 OFFCURVE",
"180 -6 OFFCURVE",
"360 -6 CURVE SMOOTH"
);
}
);
width = 720;
},
{
anchors = (
{
name = bottom;
position = "{382, 0}";
},
{
name = top;
position = "{381, 705}";
}
);
background = {
paths = (
{
closed = 1;
nodes = (
"585 -7 OFFCURVE",
"717 132 OFFCURVE",
"717 353 CURVE SMOOTH",
"717 573 OFFCURVE",
"585 712 OFFCURVE",
"382 712 CURVE SMOOTH",
"178 712 OFFCURVE",
"46 573 OFFCURVE",
"46 353 CURVE SMOOTH",
"46 132 OFFCURVE",
"178 -7 OFFCURVE",
"382 -7 CURVE SMOOTH"
);
},
{
closed = 1;
nodes = (
"268 118 OFFCURVE",
"207 197 OFFCURVE",
"207 353 CURVE SMOOTH",
"207 509 OFFCURVE",
"268 587 OFFCURVE",
"382 587 CURVE SMOOTH",
"496 587 OFFCURVE",
"557 509 OFFCURVE",
"557 353 CURVE SMOOTH",
"557 197 OFFCURVE",
"496 118 OFFCURVE",
"382 118 CURVE SMOOTH"
);
}
);
};
layerId = "E1B555A7-F4E1-459C-9C1A-AE952106EEF9";
paths = (
{
closed = 1;
nodes = (
"585 -7 OFFCURVE",
"717 132 OFFCURVE",
"717 353 CURVE SMOOTH",
"717 573 OFFCURVE",
"576 712 OFFCURVE",
"358 712 CURVE SMOOTH",
"262 712 OFFCURVE",
"174 686 OFFCURVE",
"116 641 CURVE SMOOTH",
"94 624 OFFCURVE",
"88 608 OFFCURVE",
"88 585 CURVE SMOOTH",
"88 556 OFFCURVE",
"106 520 OFFCURVE",
"140 520 CURVE SMOOTH",
"159 520 OFFCURVE",
"171 527 OFFCURVE",
"189 537 CURVE SMOOTH",
"228 559 OFFCURVE",
"284 584 OFFCURVE",
"348 584 CURVE SMOOTH",
"482 584 OFFCURVE",
"557 508 OFFCURVE",
"557 353 CURVE SMOOTH",
"557 197 OFFCURVE",
"496 118 OFFCURVE",
"382 118 CURVE SMOOTH",
"268 118 OFFCURVE",
"207 197 OFFCURVE",
"207 353 CURVE",
"166 295 LINE",
"618 295 LINE",
"618 418 LINE",
"110 418 LINE SMOOTH",
"69 418 OFFCURVE",
"46 392 OFFCURVE",
"46 350 CURVE SMOOTH",
"46 132 OFFCURVE",
"178 -7 OFFCURVE",
"382 -7 CURVE SMOOTH"
);
}
);
width = 763;
}
);
leftKerningGroup = O;
leftMetricsKey = O;
rightKerningGroup = O;
rightMetricsKey = O;
unicode = 018F;
},
{
glyphname = T;
lastChange = "2016-09-02 14:32:15 +0000";
layers = (
{
anchors = (
{
name = bottom;
position = "{292, 0}";
},
{
name = center;
position = "{292, 353}";
},
{
name = top;
position = "{292, 705}";
}
);
layerId = "9E718F8A-2CEA-4931-B05D-987794BD97DA";
paths = (
{
closed = 1;
nodes = (
"309 -5 OFFCURVE",
"319 7 OFFCURVE",
"319 24 CURVE SMOOTH",
"319 655 LINE",
"554 655 LINE SMOOTH",
"568 655 OFFCURVE",
"579 665 OFFCURVE",
"579 680 CURVE SMOOTH",
"579 695 OFFCURVE",
"568 705 OFFCURVE",
"554 705 CURVE SMOOTH",
"29 705 LINE SMOOTH",
"15 705 OFFCURVE",
"5 695 OFFCURVE",
"5 680 CURVE SMOOTH",
"5 665 OFFCURVE",
"15 655 OFFCURVE",
"29 655 CURVE SMOOTH",
"265 655 LINE",
"265 24 LINE SMOOTH",
"265 7 OFFCURVE",
"275 -5 OFFCURVE",
"292 -5 CURVE SMOOTH"
);
}
);
width = 584;
},
{
anchors = (
{
name = bottom;
position = "{310, 0}";
},
{
name = center;
position = "{310, 353}";
},
{
name = top;
position = "{310, 705}";
}
);
layerId = "E1B555A7-F4E1-459C-9C1A-AE952106EEF9";
paths = (
{
closed = 1;
nodes = (
"354 -5 OFFCURVE",
"391 21 OFFCURVE",
"391 74 CURVE SMOOTH",
"391 572 LINE",
"549 572 LINE SMOOTH",
"602 572 OFFCURVE",
"625 596 OFFCURVE",
"625 639 CURVE SMOOTH",
"625 681 OFFCURVE",
"602 705 OFFCURVE",
"549 705 CURVE SMOOTH",
"71 705 LINE SMOOTH",
"18 705 OFFCURVE",
"-5 681 OFFCURVE",
"-5 639 CURVE SMOOTH",
"-5 596 OFFCURVE",
"18 572 OFFCURVE",
"71 572 CURVE SMOOTH",
"229 572 LINE",
"229 74 LINE SMOOTH",
"229 21 OFFCURVE",
"266 -5 OFFCURVE",
"310 -5 CURVE SMOOTH"
);
}
);
width = 620;
}
);
leftKerningGroup = T;
rightKerningGroup = T;
unicode = 0054;
userData = {
anchors = (
);
b = {
};
com.typemytype.robofont.layerData = {
b = {
anchors = (
);
components = (
);
contours = (
{
points = (
{
segmentType = curve;
smooth = 1;
x = 581;
y = 0;
},
{
segmentType = line;
smooth = 1;
x = 1350;
y = 0;
},
{
smooth = 0;
x = 1399;
y = 0;
},
{
smooth = 0;
x = 1423;
y = 34;
},
{
segmentType = curve;
smooth = 1;
x = 1423;
y = 71;
},
{
smooth = 0;
x = 1423;
y = 107;
},
{
smooth = 0;
x = 1399;
y = 141;
},
{
segmentType = curve;
smooth = 1;
x = 1350;
y = 141;
},
{
segmentType = line;
smooth = 0;
x = 671;
y = 141;
},
{
segmentType = line;
smooth = 0;
x = 671;
y = 665;
},
{
segmentType = line;
smooth = 1;
x = 1290;
y = 665;
},
{
smooth = 0;
x = 1339;
y = 665;
},
{
smooth = 0;
x = 1364;
y = 698;
},
{
segmentType = curve;
smooth = 1;
x = 1364;
y = 734;
},
{
smooth = 0;
x = 1364;
y = 770;
},
{
smooth = 0;
x = 1341;
y = 803;
},
{
segmentType = curve;
smooth = 1;
x = 1290;
y = 803;
},
{
segmentType = line;
smooth = 0;
x = 671;
y = 803;
},
{
segmentType = line;
smooth = 0;
x = 671;
y = 1285;
},
{
segmentType = line;
smooth = 1;
x = 1322;
y = 1285;
},
{
smooth = 0;
x = 1371;
y = 1285;
},
{
smooth = 0;
x = 1395;
y = 1319;
},
{
segmentType = curve;
smooth = 1;
x = 1395;
y = 1356;
},
{
smooth = 0;
x = 1395;
y = 1392;
},
{
smooth = 0;
x = 1371;
y = 1426;
},
{
segmentType = curve;
smooth = 1;
x = 1322;
y = 1426;
},
{
segmentType = line;
smooth = 1;
x = 576;
y = 1426;
},
{
smooth = 0;
x = 528;
y = 1426;
},
{
smooth = 0;
x = 493;
y = 1383;
},
{
segmentType = curve;
smooth = 1;
x = 493;
y = 1340;
},
{
segmentType = line;
smooth = 1;
x = 493;
y = 86;
},
{
smooth = 0;
x = 493;
y = 41;
},
{
smooth = 0;
x = 537;
y = 0;
}
);
}
);
lib = {
};
name = T;
unicodes = (
);
width = 1158;
};
};
components = (
);
contours = (
);
lib = {
};
name = T;
unicodes = (
);
width = 1199;
};
},
{
glyphname = Tbar;
lastChange = "2016-08-31 09:06:20 +0000";
layers = (
{
background = {
components = (
{
name = T;
transform = "{1, 0, 0, 1, 1, 0}";
},
{
name = macron;
transform = "{1, 0, 0, 1, 142, -251}";
}
);
};
layerId = "9E718F8A-2CEA-4931-B05D-987794BD97DA";
paths = (
{
closed = 1;
nodes = (
"309 -5 OFFCURVE",
"319 7 OFFCURVE",
"319 24 CURVE SMOOTH",
"319 655 LINE",
"554 655 LINE SMOOTH",
"568 655 OFFCURVE",
"579 665 OFFCURVE",
"579 680 CURVE SMOOTH",
"579 695 OFFCURVE",
"568 705 OFFCURVE",
"554 705 CURVE SMOOTH",
"29 705 LINE SMOOTH",
"15 705 OFFCURVE",
"5 695 OFFCURVE",
"5 680 CURVE SMOOTH",
"5 665 OFFCURVE",
"15 655 OFFCURVE",
"29 655 CURVE SMOOTH",
"265 655 LINE",
"265 24 LINE SMOOTH",
"265 7 OFFCURVE",
"275 -5 OFFCURVE",
"292 -5 CURVE SMOOTH"
);
},
{
closed = 1;
nodes = (
"446 335 LINE SMOOTH",
"460 335 OFFCURVE",
"469 343 OFFCURVE",
"469 358 CURVE SMOOTH",
"469 373 OFFCURVE",
"460 381 OFFCURVE",
"446 381 CURVE SMOOTH",
"140 381 LINE SMOOTH",
"126 381 OFFCURVE",
"115 373 OFFCURVE",
"115 358 CURVE SMOOTH",
"115 343 OFFCURVE",
"126 335 OFFCURVE",
"140 335 CURVE SMOOTH"
);
}
);
width = 584;
},
{
background = {
components = (
{
name = T;
transform = "{1, 0, 0, 1, -5, 0}";
},
{
name = macron;
transform = "{1, 0, 0, 1, 153, -275}";
}
);
};
layerId = "E1B555A7-F4E1-459C-9C1A-AE952106EEF9";
paths = (
{
closed = 1;
nodes = (
"354 -5 OFFCURVE",
"391 21 OFFCURVE",
"391 74 CURVE SMOOTH",
"391 572 LINE",
"549 572 LINE SMOOTH",
"602 572 OFFCURVE",
"625 596 OFFCURVE",
"625 639 CURVE SMOOTH",
"625 681 OFFCURVE",
"602 705 OFFCURVE",
"549 705 CURVE SMOOTH",
"71 705 LINE SMOOTH",
"18 705 OFFCURVE",
"-5 681 OFFCURVE",
"-5 639 CURVE SMOOTH",
"-5 596 OFFCURVE",
"18 572 OFFCURVE",
"71 572 CURVE SMOOTH",
"229 572 LINE",
"229 74 LINE SMOOTH",
"229 21 OFFCURVE",
"266 -5 OFFCURVE",
"310 -5 CURVE SMOOTH"
);
},
{
closed = 1;
nodes = (
"469 295 LINE SMOOTH",
"517 295 OFFCURVE",
"541 319 OFFCURVE",
"541 356 CURVE SMOOTH",
"541 393 OFFCURVE",
"517 417 OFFCURVE",
"469 417 CURVE SMOOTH",
"151 417 LINE SMOOTH",
"103 417 OFFCURVE",
"79 393 OFFCURVE",
"79 356 CURVE SMOOTH",
"79 319 OFFCURVE",
"103 295 OFFCURVE",
"151 295 CURVE SMOOTH"
);
}
);
width = 620;
}
);
leftKerningGroup = T;
leftMetricsKey = T;
rightKerningGroup = T;
rightMetricsKey = T;
unicode = 0166;
userData = {
com.typemytype.robofont.layerData = {
b = {
anchors = (
);
components = (
);
contours = (
);
lib = {
};
name = Tbar;
unicodes = (
);
width = 1158;
};
};
};
},
{
glyphname = U;
lastChange = "2016-08-31 08:28:42 +0000";
layers = (
{
anchors = (
{
name = bottom;
position = "{352, 0}";
},
{
name = ogonek;
position = "{464, 10}";
},
{
name = top;
position = "{352, 705}";
},
{
name = topright;
position = "{596, 705}";
}
);
layerId = "9E718F8A-2CEA-4931-B05D-987794BD97DA";
paths = (
{
closed = 1;
nodes = (
"509 -6 OFFCURVE",
"623 68 OFFCURVE",
"623 270 CURVE SMOOTH",
"623 681 LINE SMOOTH",
"623 698 OFFCURVE",
"613 710 OFFCURVE",
"596 710 CURVE SMOOTH",
"581 710 OFFCURVE",
"569 698 OFFCURVE",
"569 681 CURVE SMOOTH",
"569 263 LINE SMOOTH",
"569 105 OFFCURVE",
"482 44 OFFCURVE",
"352 44 CURVE SMOOTH",
"221 44 OFFCURVE",
"135 105 OFFCURVE",
"135 263 CURVE SMOOTH",
"135 681 LINE SMOOTH",
"135 698 OFFCURVE",
"125 710 OFFCURVE",
"108 710 CURVE SMOOTH",
"91 710 OFFCURVE",
"81 698 OFFCURVE",
"81 681 CURVE SMOOTH",
"81 270 LINE SMOOTH",
"81 68 OFFCURVE",
"194 -6 OFFCURVE",
"352 -6 CURVE SMOOTH"
);
}
);
width = 704;
},
{
anchors = (
{
name = bottom;
position = "{368, 0}";
},
{
name = ogonek;
position = "{490, 10}";
},
{
name = top;
position = "{368, 705}";
},
{
name = topright;
position = "{594, 705}";
}
);
layerId = "E1B555A7-F4E1-459C-9C1A-AE952106EEF9";
paths = (
{
closed = 1;
nodes = (
"560 -7 OFFCURVE",
"673 93 OFFCURVE",
"673 294 CURVE SMOOTH",
"673 631 LINE SMOOTH",
"673 684 OFFCURVE",
"636 710 OFFCURVE",
"594 710 CURVE SMOOTH",
"551 710 OFFCURVE",
"515 684 OFFCURVE",
"515 631 CURVE SMOOTH",
"515 287 LINE SMOOTH",
"515 165 OFFCURVE",
"452 118 OFFCURVE",
"368 118 CURVE SMOOTH",
"283 118 OFFCURVE",
"221 165 OFFCURVE",
"221 287 CURVE SMOOTH",
"221 631 LINE SMOOTH",
"221 684 OFFCURVE",
"184 710 OFFCURVE",
"142 710 CURVE SMOOTH",
"99 710 OFFCURVE",
"63 684 OFFCURVE",
"63 631 CURVE SMOOTH",
"63 294 LINE SMOOTH",
"63 90 OFFCURVE",
"175 -7 OFFCURVE",
"368 -7 CURVE SMOOTH"
);
}
);
width = 736;
}
);
leftKerningGroup = U;
rightKerningGroup = U;
unicode = 0055;
userData = {
anchors = (
);
b = {
};
com.typemytype.robofont.layerData = {
b = {
anchors = (
);
components = (
);
contours = (
);
lib = {
};
name = U;
unicodes = (
);
width = 1490;
};
};
components = (
);
contours = (
);
lib = {
};
name = U;
unicodes = (
);
width = 1513;
};
},
{
glyphname = Uhorn;
lastChange = "2016-08-31 09:24:56 +0000";
layers = (
{
anchors = (
{
name = bottom;
position = "{352, 0}";
},
{
name = top;
position = "{352, 705}";
}
);
background = {
paths = (
{
closed = 1;
nodes = (
"509 -6 OFFCURVE",
"623 68 OFFCURVE",
"623 270 CURVE SMOOTH",
"623 681 LINE SMOOTH",
"623 698 OFFCURVE",
"613 710 OFFCURVE",
"596 710 CURVE SMOOTH",
"581 710 OFFCURVE",
"569 698 OFFCURVE",
"569 681 CURVE SMOOTH",
"569 263 LINE SMOOTH",
"569 105 OFFCURVE",
"482 44 OFFCURVE",
"352 44 CURVE SMOOTH",
"221 44 OFFCURVE",
"135 105 OFFCURVE",
"135 263 CURVE SMOOTH",
"135 681 LINE SMOOTH",
"135 698 OFFCURVE",
"125 710 OFFCURVE",
"108 710 CURVE SMOOTH",
"91 710 OFFCURVE",
"81 698 OFFCURVE",
"81 681 CURVE SMOOTH",
"81 270 LINE SMOOTH",
"81 68 OFFCURVE",
"194 -6 OFFCURVE",
"352 -6 CURVE SMOOTH"
);
}
);
};
layerId = "9E718F8A-2CEA-4931-B05D-987794BD97DA";
paths = (
{
closed = 1;
nodes = (
"509 -6 OFFCURVE",
"623 68 OFFCURVE",
"623 270 CURVE SMOOTH",
"623 682 LINE",
"614 668 LINE",
"679 668 OFFCURVE",
"742 710 OFFCURVE",
"742 803 CURVE SMOOTH",
"742 826 OFFCURVE",
"734 835 OFFCURVE",
"717 835 CURVE SMOOTH",
"704 835 OFFCURVE",
"692 829 OFFCURVE",
"691 808 CURVE SMOOTH",
"687 732 OFFCURVE",
"658 710 OFFCURVE",
"596 710 CURVE SMOOTH",
"581 710 OFFCURVE",
"569 698 OFFCURVE",
"569 681 CURVE SMOOTH",
"569 263 LINE SMOOTH",
"569 105 OFFCURVE",
"482 44 OFFCURVE",
"352 44 CURVE SMOOTH",
"221 44 OFFCURVE",
"135 105 OFFCURVE",
"135 263 CURVE SMOOTH",
"135 681 LINE SMOOTH",
"135 698 OFFCURVE",
"125 710 OFFCURVE",
"108 710 CURVE SMOOTH",
"91 710 OFFCURVE",
"81 698 OFFCURVE",
"81 681 CURVE SMOOTH",
"81 270 LINE SMOOTH",
"81 68 OFFCURVE",
"194 -6 OFFCURVE",
"352 -6 CURVE SMOOTH"
);
}
);
width = 704;
},
{
anchors = (
{
name = bottom;
position = "{368, 0}";
},
{
name = top;
position = "{368, 705}";
}
);
background = {
paths = (
{
closed = 1;
nodes = (
"560 -7 OFFCURVE",
"673 93 OFFCURVE",
"673 294 CURVE SMOOTH",
"673 631 LINE SMOOTH",
"673 684 OFFCURVE",
"636 710 OFFCURVE",
"594 710 CURVE SMOOTH",
"551 710 OFFCURVE",
"515 684 OFFCURVE",
"515 631 CURVE SMOOTH",
"515 287 LINE SMOOTH",
"515 165 OFFCURVE",
"452 118 OFFCURVE",
"368 118 CURVE SMOOTH",
"283 118 OFFCURVE",
"221 165 OFFCURVE",
"221 287 CURVE SMOOTH",
"221 631 LINE SMOOTH",
"221 684 OFFCURVE",
"184 710 OFFCURVE",
"142 710 CURVE SMOOTH",
"99 710 OFFCURVE",
"63 684 OFFCURVE",
"63 631 CURVE SMOOTH",
"63 294 LINE SMOOTH",
"63 90 OFFCURVE",
"175 -7 OFFCURVE",
"368 -7 CURVE SMOOTH"
);
}
);
};
layerId = "E1B555A7-F4E1-459C-9C1A-AE952106EEF9";
paths = (
{
closed = 1;
nodes = (
"560 -7 OFFCURVE",
"673 93 OFFCURVE",
"673 294 CURVE SMOOTH",
"673 674 LINE",
"640 631 LINE",
"733 641 OFFCURVE",
"785 707 OFFCURVE",
"785 776 CURVE SMOOTH",
"785 823 OFFCURVE",
"765 842 OFFCURVE",
"723 842 CURVE SMOOTH",
"679 842 OFFCURVE",
"652 824 OFFCURVE",
"646 772 CURVE SMOOTH",
"640 722 OFFCURVE",
"617 712 OFFCURVE",
"589 711 CURVE SMOOTH",
"549 709 OFFCURVE",
"515 682 OFFCURVE",
"515 631 CURVE SMOOTH",
"515 287 LINE SMOOTH",
"515 165 OFFCURVE",
"452 118 OFFCURVE",
"368 118 CURVE SMOOTH",
"283 118 OFFCURVE",
"221 165 OFFCURVE",
"221 287 CURVE SMOOTH",
"221 631 LINE SMOOTH",
"221 684 OFFCURVE",
"184 710 OFFCURVE",
"142 710 CURVE SMOOTH",
"99 710 OFFCURVE",
"63 684 OFFCURVE",
"63 631 CURVE SMOOTH",
"63 294 LINE SMOOTH",
"63 90 OFFCURVE",
"175 -7 OFFCURVE",
"368 -7 CURVE SMOOTH"
);
}
);
width = 736;
}
);
leftKerningGroup = U;
leftMetricsKey = U;
widthMetricsKey = U;
rightKerningGroup = Uhorn;
unicode = 01AF;
},
{
glyphname = Uogonek;
lastChange = "2016-09-05 20:55:04 +0000";
layers = (
{
background = {
paths = (
{
closed = 1;
nodes = (
"509 -6 OFFCURVE",
"623 68 OFFCURVE",
"623 270 CURVE SMOOTH",
"623 681 LINE SMOOTH",
"623 698 OFFCURVE",
"613 710 OFFCURVE",
"596 710 CURVE SMOOTH",
"581 710 OFFCURVE",
"569 698 OFFCURVE",
"569 681 CURVE SMOOTH",
"569 263 LINE SMOOTH",
"569 105 OFFCURVE",
"482 44 OFFCURVE",
"352 44 CURVE SMOOTH",
"221 44 OFFCURVE",
"135 105 OFFCURVE",
"135 263 CURVE SMOOTH",
"135 681 LINE SMOOTH",
"135 698 OFFCURVE",
"125 710 OFFCURVE",
"108 710 CURVE SMOOTH",
"91 710 OFFCURVE",
"81 698 OFFCURVE",
"81 681 CURVE SMOOTH",
"81 270 LINE SMOOTH",
"81 68 OFFCURVE",
"194 -6 OFFCURVE",
"352 -6 CURVE SMOOTH"
);
},
{
closed = 1;
nodes = (
"460 -191 OFFCURVE",
"483 -186 OFFCURVE",
"504 -174 CURVE SMOOTH",
"528 -160 OFFCURVE",
"519 -119 OFFCURVE",
"488 -135 CURVE SMOOTH",
"470 -144 OFFCURVE",
"452 -148 OFFCURVE",
"440 -148 CURVE SMOOTH",
"400 -148 OFFCURVE",
"372 -125 OFFCURVE",
"372 -82 CURVE SMOOTH",
"372 -38 OFFCURVE",
"400 -12 OFFCURVE",
"464 10 CURVE",
"452 41 LINE",
"368 27 OFFCURVE",
"322 -24 OFFCURVE",
"322 -88 CURVE SMOOTH",
"322 -148 OFFCURVE",
"367 -191 OFFCURVE",
"435 -191 CURVE SMOOTH"
);
}
);
};
layerId = "9E718F8A-2CEA-4931-B05D-987794BD97DA";
paths = (
{
closed = 1;
nodes = (
"460 -191 OFFCURVE",
"483 -186 OFFCURVE",
"504 -174 CURVE SMOOTH",
"528 -160 OFFCURVE",
"519 -119 OFFCURVE",
"488 -135 CURVE SMOOTH",
"470 -144 OFFCURVE",
"452 -148 OFFCURVE",
"440 -148 CURVE SMOOTH",
"400 -148 OFFCURVE",
"372 -125 OFFCURVE",
"372 -82 CURVE SMOOTH",
"372 -39 OFFCURVE",
"399 -10 OFFCURVE",
"461 9 CURVE SMOOTH",
"560 39 OFFCURVE",
"623 118 OFFCURVE",
"623 270 CURVE SMOOTH",
"623 681 LINE SMOOTH",
"623 698 OFFCURVE",
"613 710 OFFCURVE",
"596 710 CURVE SMOOTH",
"581 710 OFFCURVE",
"569 698 OFFCURVE",
"569 681 CURVE SMOOTH",
"569 263 LINE SMOOTH",
"569 105 OFFCURVE",
"482 44 OFFCURVE",
"352 44 CURVE SMOOTH",
"221 44 OFFCURVE",
"135 105 OFFCURVE",
"135 263 CURVE SMOOTH",
"135 681 LINE SMOOTH",
"135 698 OFFCURVE",
"125 710 OFFCURVE",
"108 710 CURVE SMOOTH",
"91 710 OFFCURVE",
"81 698 OFFCURVE",
"81 681 CURVE SMOOTH",
"81 270 LINE SMOOTH",
"81 68 OFFCURVE",
"194 -6 OFFCURVE",
"352 -6 CURVE SMOOTH",
"374 -6 LINE",
"392 13 LINE",
"338 -10 OFFCURVE",
"322 -47 OFFCURVE",
"322 -88 CURVE SMOOTH",
"322 -148 OFFCURVE",
"367 -191 OFFCURVE",
"435 -191 CURVE SMOOTH"
);
}
);
width = 704;
},
{
background = {
paths = (
{
closed = 1;
nodes = (
"560 -7 OFFCURVE",
"673 93 OFFCURVE",
"673 294 CURVE SMOOTH",
"673 631 LINE SMOOTH",
"673 684 OFFCURVE",
"636 710 OFFCURVE",
"594 710 CURVE SMOOTH",
"551 710 OFFCURVE",
"515 684 OFFCURVE",
"515 631 CURVE SMOOTH",
"515 287 LINE SMOOTH",
"515 165 OFFCURVE",
"452 118 OFFCURVE",
"368 118 CURVE SMOOTH",
"283 118 OFFCURVE",
"221 165 OFFCURVE",
"221 287 CURVE SMOOTH",
"221 631 LINE SMOOTH",
"221 684 OFFCURVE",
"184 710 OFFCURVE",
"142 710 CURVE SMOOTH",
"99 710 OFFCURVE",
"63 684 OFFCURVE",
"63 631 CURVE SMOOTH",
"63 294 LINE SMOOTH",
"63 90 OFFCURVE",
"175 -7 OFFCURVE",
"368 -7 CURVE SMOOTH"
);
},
{
closed = 1;
nodes = (
"481 -197 OFFCURVE",
"510 -191 OFFCURVE",
"539 -174 CURVE SMOOTH",
"572 -155 OFFCURVE",
"557 -98 OFFCURVE",
"521 -109 CURVE SMOOTH",
"499 -115 OFFCURVE",
"488 -117 OFFCURVE",
"473 -117 CURVE SMOOTH",
"445 -117 OFFCURVE",
"421 -99 OFFCURVE",
"421 -64 CURVE SMOOTH",
"421 -27 OFFCURVE",
"445 -3 OFFCURVE",
"490 10 CURVE",
"473 46 LINE",
"372 33 OFFCURVE",
"322 -22 OFFCURVE",
"322 -87 CURVE SMOOTH",
"322 -154 OFFCURVE",
"378 -197 OFFCURVE",
"450 -197 CURVE SMOOTH"
);
}
);
};
layerId = "E1B555A7-F4E1-459C-9C1A-AE952106EEF9";
paths = (
{
closed = 1;
nodes = (
"481 -197 OFFCURVE",
"510 -191 OFFCURVE",
"539 -174 CURVE SMOOTH",
"572 -155 OFFCURVE",
"557 -98 OFFCURVE",
"521 -109 CURVE SMOOTH",
"499 -116 OFFCURVE",
"488 -117 OFFCURVE",
"473 -117 CURVE SMOOTH",
"445 -117 OFFCURVE",
"421 -99 OFFCURVE",
"421 -64 CURVE SMOOTH",
"421 -30 OFFCURVE",
"440 -4 OFFCURVE",
"483 8 CURVE SMOOTH",
"603 41 OFFCURVE",
"673 136 OFFCURVE",
"673 294 CURVE SMOOTH",
"673 631 LINE SMOOTH",
"673 684 OFFCURVE",
"636 710 OFFCURVE",
"594 710 CURVE SMOOTH",
"551 710 OFFCURVE",
"515 684 OFFCURVE",
"515 631 CURVE SMOOTH",
"515 287 LINE SMOOTH",
"515 165 OFFCURVE",
"452 118 OFFCURVE",
"368 118 CURVE SMOOTH",
"283 118 OFFCURVE",
"221 165 OFFCURVE",
"221 287 CURVE SMOOTH",
"221 631 LINE SMOOTH",
"221 684 OFFCURVE",
"184 710 OFFCURVE",
"142 710 CURVE SMOOTH",
"99 710 OFFCURVE",
"63 684 OFFCURVE",
"63 631 CURVE SMOOTH",
"63 294 LINE SMOOTH",
"63 89 OFFCURVE",
"176 -7 OFFCURVE",
"369 -7 CURVE SMOOTH",
"390 -7 LINE",
"379 13 LINE",
"342 -10 OFFCURVE",
"322 -47 OFFCURVE",
"322 -87 CURVE SMOOTH",
"322 -154 OFFCURVE",
"378 -197 OFFCURVE",
"450 -197 CURVE SMOOTH"
);
}
);
width = 736;
}
);
leftKerningGroup = U;
leftMetricsKey = U;
rightKerningGroup = U;
rightMetricsKey = U;
unicode = 0172;
},
{
glyphname = V;
lastChange = "2016-08-31 09:25:00 +0000";
layers = (
{
anchors = (
{
name = bottom;
position = "{336, 0}";
},
{
name = top;
position = "{335, 705}";
}
);
layerId = "9E718F8A-2CEA-4931-B05D-987794BD97DA";
paths = (
{
closed = 1;
nodes = (
"317 -12 OFFCURVE",
"355 -10 OFFCURVE",
"365 15 CURVE SMOOTH",
"658 678 LINE SMOOTH",
"671 708 OFFCURVE",
"622 726 OFFCURVE",
"608 694 CURVE SMOOTH",
"321 40 LINE",
"350 40 LINE",
"63 694 LINE SMOOTH",
"49 726 OFFCURVE",
"0 708 OFFCURVE",
"13 678 CURVE SMOOTH",
"305 15 LINE SMOOTH"
);
}
);
width = 670;
},
{
anchors = (
{
name = bottom;
position = "{364, 0}";
},
{
name = top;
position = "{363, 705}";
}
);
layerId = "E1B555A7-F4E1-459C-9C1A-AE952106EEF9";
paths = (
{
closed = 1;
nodes = (
"312 -21 OFFCURVE",
"416 -19 OFFCURVE",
"447 46 CURVE SMOOTH",
"716 609 LINE SMOOTH",
"758 696 OFFCURVE",
"619 755 OFFCURVE",
"579 668 CURVE SMOOTH",
"343 154 LINE",
"388 154 LINE",
"152 668 LINE SMOOTH",
"111 755 OFFCURVE",
"-31 696 OFFCURVE",
"11 609 CURVE SMOOTH",
"280 46 LINE SMOOTH"
);
}
);
width = 727;
}
);
leftKerningGroup = V;
rightKerningGroup = V;
unicode = 0056;
userData = {
anchors = (
);
b = {
};
com.typemytype.robofont.guides = (
);
com.typemytype.robofont.layerData = {
b = {
anchors = (
);
components = (
);
contours = (
{
points = (
{
segmentType = curve;
smooth = 1;
x = 644;
y = "-5";
},
{
smooth = 0;
x = 712;
y = "-5";
},
{
smooth = 0;
x = 764;
y = 38;
},
{
segmentType = curve;
smooth = 1;
x = 793;
y = 117;
},
{
segmentType = line;
smooth = 1;
x = 1243;
y = 1324;
},
{
smooth = 0;
x = 1247;
y = 1335;
},
{
smooth = 0;
x = 1248;
y = 1342;
},
{
segmentType = curve;
smooth = 1;
x = 1248;
y = 1351;
},
{
smooth = 0;
x = 1248;
y = 1395;
},
{
smooth = 0;
x = 1203;
y = 1427;
},
{
segmentType = curve;
smooth = 1;
x = 1160;
y = 1427;
},
{
smooth = 0;
x = 1125;
y = 1427;
},
{
smooth = 0;
x = 1090;
y = 1408;
},
{
segmentType = curve;
smooth = 1;
x = 1076;
y = 1369;
},
{
segmentType = line;
smooth = 0;
x = 651;
y = 192;
},
{
segmentType = line;
smooth = 0;
x = 650;
y = 190;
},
{
segmentType = line;
smooth = 1;
x = 214;
y = 1370;
},
{
smooth = 0;
x = 200;
y = 1407;
},
{
smooth = 0;
x = 170;
y = 1427;
},
{
segmentType = curve;
smooth = 1;
x = 135;
y = 1427;
},
{
smooth = 0;
x = 90;
y = 1427;
},
{
smooth = 0;
x = 43;
y = 1392;
},
{
segmentType = curve;
smooth = 1;
x = 43;
y = 1344;
},
{
smooth = 0;
x = 43;
y = 1336;
},
{
smooth = 0;
x = 44;
y = 1326;
},
{
segmentType = curve;
smooth = 0;
x = 48;
y = 1318;
},
{
segmentType = line;
smooth = 1;
x = 501;
y = 117;
},
{
smooth = 0;
x = 532;
y = 35;
},
{
smooth = 0;
x = 581;
y = "-5";
}
);
}
);
lib = {
};
name = V;
unicodes = (
);
width = 1289;
};
};
components = (
);
contours = (
);
lib = {
};
name = V;
unicodes = (
);
width = 1365;
};
},
{
glyphname = W;
lastChange = "2016-08-29 19:31:13 +0000";
layers = (
{
anchors = (
{
name = bottom;
position = "{546, 0}";
},
{
name = top;
position = "{545, 705}";
}
);
layerId = "9E718F8A-2CEA-4931-B05D-987794BD97DA";
paths = (
{
closed = 1;
nodes = (
"283 -13 OFFCURVE",
"322 -11 OFFCURVE",
"331 15 CURVE SMOOTH",
"557 649 LINE",
"535 649 LINE",
"760 15 LINE SMOOTH",
"770 -13 OFFCURVE",
"809 -11 OFFCURVE",
"818 15 CURVE SMOOTH",
"1052 678 LINE SMOOTH",
"1063 708 OFFCURVE",
"1013 725 OFFCURVE",
"1002 694 CURVE SMOOTH",
"773 38 LINE",
"803 38 LINE",
"575 685 LINE SMOOTH",
"563 715 OFFCURVE",
"527 715 OFFCURVE",
"517 686 CURVE SMOOTH",
"288 38 LINE",
"317 38 LINE",
"88 694 LINE SMOOTH",
"78 725 OFFCURVE",
"28 708 OFFCURVE",
"39 678 CURVE SMOOTH",
"273 15 LINE SMOOTH"
);
}
);
width = 1091;
},
{
anchors = (
{
name = bottom;
position = "{556, 0}";
},
{
name = top;
position = "{556, 705}";
}
);
layerId = "E1B555A7-F4E1-459C-9C1A-AE952106EEF9";
paths = (
{
closed = 1;
nodes = (
"268 -24 OFFCURVE",
"383 -23 OFFCURVE",
"408 46 CURVE SMOOTH",
"569 487 LINE",
"547 487 LINE",
"703 46 LINE SMOOTH",
"728 -24 OFFCURVE",
"843 -23 OFFCURVE",
"869 46 CURVE SMOOTH",
"1076 609 LINE SMOOTH",
"1116 716 OFFCURVE",
"972 750 OFFCURVE",
"940 661 CURVE SMOOTH",
"768 175 LINE",
"798 175 LINE",
"632 659 LINE SMOOTH",
"609 729 OFFCURVE",
"516 729 OFFCURVE",
"490 660 CURVE SMOOTH",
"313 175 LINE",
"350 175 LINE",
"180 661 LINE SMOOTH",
"148 750 OFFCURVE",
"-3 716 OFFCURVE",
"36 609 CURVE SMOOTH",
"243 46 LINE SMOOTH"
);
}
);
width = 1112;
}
);
leftKerningGroup = V;
rightKerningGroup = V;
unicode = 0057;
userData = {
anchors = (
);
b = {
};
com.typemytype.robofont.layerData = {
b = {
anchors = (
);
components = (
);
contours = (
);
lib = {
};
name = W;
unicodes = (
);
width = 2126;
};
};
components = (
);
contours = (
);
lib = {
};
name = W;
unicodes = (
);
width = 2070;
};
},
{
glyphname = X;
lastChange = "2016-08-31 09:25:05 +0000";
layers = (
{
anchors = (
{
name = bottom;
position = "{314, 0}";
},
{
name = top;
position = "{314, 705}";
}
);
layerId = "9E718F8A-2CEA-4931-B05D-987794BD97DA";
paths = (
{
closed = 1;
nodes = (
"314 321 LINE",
"346 361 LINE",
"585 667 LINE SMOOTH",
"607 694 OFFCURVE",
"567 727 OFFCURVE",
"545 698 CURVE SMOOTH",
"314 401 LINE",
"283 361 LINE",
"30 38 LINE SMOOTH",
"8 11 OFFCURVE",
"48 -21 OFFCURVE",
"70 7 CURVE SMOOTH"
);
},
{
closed = 1;
nodes = (
"581 -21 OFFCURVE",
"620 11 OFFCURVE",
"598 38 CURVE SMOOTH",
"346 361 LINE",
"314 401 LINE",
"83 698 LINE SMOOTH",
"61 727 OFFCURVE",
"22 694 OFFCURVE",
"44 667 CURVE SMOOTH",
"283 361 LINE",
"314 321 LINE",
"558 7 LINE SMOOTH"
);
}
);
width = 629;
},
{
anchors = (
{
name = bottom;
position = "{337, 0}";
},
{
name = top;
position = "{336, 705}";
}
);
layerId = "E1B555A7-F4E1-459C-9C1A-AE952106EEF9";
paths = (
{
closed = 1;
nodes = (
"337 245 LINE",
"430 356 LINE",
"626 589 LINE SMOOTH",
"690 663 OFFCURVE",
"576 758 OFFCURVE",
"516 684 CURVE SMOOTH",
"337 467 LINE",
"243 356 LINE",
"40 116 LINE SMOOTH",
"-24 41 OFFCURVE",
"89 -52 OFFCURVE",
"150 20 CURVE SMOOTH"
);
},
{
closed = 1;
nodes = (
"583 -53 OFFCURVE",
"697 41 OFFCURVE",
"632 116 CURVE SMOOTH",
"430 356 LINE",
"337 467 LINE",
"157 684 LINE SMOOTH",
"95 757 OFFCURVE",
"-17 663 OFFCURVE",
"47 589 CURVE SMOOTH",
"243 356 LINE",
"337 245 LINE",
"522 20 LINE SMOOTH"
);
}
);
width = 673;
}
);
leftKerningGroup = X;
rightKerningGroup = X;
unicode = 0058;
userData = {
anchors = (
);
b = {
};
com.typemytype.robofont.layerData = {
b = {
anchors = (
);
components = (
);
contours = (
{
points = (
{
segmentType = curve;
smooth = 1;
x = 151;
y = 0;
},
{
smooth = 0;
x = 176;
y = 0;
},
{
smooth = 0;
x = 201;
y = 12;
},
{
segmentType = curve;
smooth = 1;
x = 222;
y = 41;
},
{
segmentType = line;
smooth = 0;
x = 641;
y = 616;
},
{
segmentType = line;
smooth = 0;
x = 746;
y = 734;
},
{
segmentType = line;
smooth = 1;
x = 1175;
y = 1310;
},
{
smooth = 0;
x = 1186;
y = 1325;
},
{
smooth = 0;
x = 1190;
y = 1338;
},
{
segmentType = curve;
smooth = 1;
x = 1190;
y = 1353;
},
{
smooth = 0;
x = 1190;
y = 1393;
},
{
smooth = 0;
x = 1153;
y = 1426;
},
{
segmentType = curve;
smooth = 1;
x = 1110;
y = 1426;
},
{
smooth = 0;
x = 1083;
y = 1426;
},
{
smooth = 0;
x = 1058;
y = 1414;
},
{
segmentType = curve;
smooth = 1;
x = 1037;
y = 1385;
},
{
segmentType = line;
smooth = 0;
x = 648;
y = 844;
},
{
segmentType = line;
smooth = 0;
x = 542;
y = 732;
},
{
segmentType = line;
smooth = 1;
x = 84;
y = 121;
},
{
smooth = 0;
x = 73;
y = 106;
},
{
smooth = 0;
x = 68;
y = 91;
},
{
segmentType = curve;
smooth = 1;
x = 68;
y = 76;
},
{
smooth = 0;
x = 68;
y = 35;
},
{
smooth = 0;
x = 108;
y = 0;
}
);
},
{
points = (
{
segmentType = curve;
smooth = 1;
x = 1104;
y = 0;
},
{
smooth = 0;
x = 1151;
y = 0;
},
{
smooth = 0;
x = 1200;
y = 40;
},
{
segmentType = curve;
smooth = 1;
x = 1200;
y = 85;
},
{
smooth = 0;
x = 1200;
y = 98;
},
{
smooth = 0;
x = 1195;
y = 113;
},
{
segmentType = curve;
smooth = 0;
x = 1186;
y = 126;
},
{
segmentType = line;
smooth = 0;
x = 272;
y = 1385;
},
{
smooth = 0;
x = 252;
y = 1414;
},
{
smooth = 0;
x = 225;
y = 1426;
},
{
segmentType = curve;
smooth = 1;
x = 197;
y = 1426;
},
{
smooth = 0;
x = 149;
y = 1426;
},
{
smooth = 0;
x = 100;
y = 1388;
},
{
segmentType = curve;
smooth = 1;
x = 100;
y = 1343;
},
{
smooth = 0;
x = 100;
y = 1328;
},
{
smooth = 0;
x = 105;
y = 1315;
},
{
segmentType = curve;
smooth = 0;
x = 114;
y = 1303;
},
{
segmentType = line;
smooth = 0;
x = 1033;
y = 40;
},
{
smooth = 0;
x = 1052;
y = 13;
},
{
smooth = 0;
x = 1076;
y = 0;
}
);
}
);
lib = {
};
name = X;
unicodes = (
);
width = 1274;
};
};
components = (
);
contours = (
);
lib = {
};
name = X;
unicodes = (
);
width = 1322;
};
},
{
glyphname = Y;
lastChange = "2016-08-31 09:25:13 +0000";
layers = (
{
anchors = (
{
name = bottom;
position = "{291, 0}";
},
{
name = top;
position = "{291, 705}";
},
{
name = topleft;
position = "{17, 705}";
}
);
layerId = "9E718F8A-2CEA-4931-B05D-987794BD97DA";
paths = (
{
closed = 1;
nodes = (
"308 -5 OFFCURVE",
"318 7 OFFCURVE",
"318 24 CURVE SMOOTH",
"318 370 LINE",
"306 325 LINE",
"570 667 LINE SMOOTH",
"591 694 OFFCURVE",
"552 727 OFFCURVE",
"530 698 CURVE SMOOTH",
"283 377 LINE",
"300 377 LINE",
"52 698 LINE SMOOTH",
"30 727 OFFCURVE",
"-8 694 OFFCURVE",
"12 667 CURVE SMOOTH",
"277 325 LINE",
"264 370 LINE",
"264 24 LINE SMOOTH",
"264 7 OFFCURVE",
"274 -5 OFFCURVE",
"291 -5 CURVE SMOOTH"
);
}
);
width = 583;
},
{
anchors = (
{
name = bottom;
position = "{318, 0}";
},
{
name = top;
position = "{317, 705}";
},
{
name = topleft;
position = "{17, 705}";
}
);
layerId = "E1B555A7-F4E1-459C-9C1A-AE952106EEF9";
paths = (
{
closed = 1;
nodes = (
"362 -6 OFFCURVE",
"398 20 OFFCURVE",
"398 74 CURVE SMOOTH",
"398 382 LINE",
"365 293 LINE",
"615 589 LINE SMOOTH",
"679 663 OFFCURVE",
"568 758 OFFCURVE",
"506 684 CURVE SMOOTH",
"301 435 LINE",
"334 435 LINE",
"129 684 LINE SMOOTH",
"67 758 OFFCURVE",
"-44 663 OFFCURVE",
"21 589 CURVE SMOOTH",
"270 293 LINE",
"237 382 LINE",
"237 74 LINE SMOOTH",
"237 20 OFFCURVE",
"273 -6 OFFCURVE",
"318 -6 CURVE SMOOTH"
);
}
);
width = 635;
}
);
leftKerningGroup = Y;
rightKerningGroup = Y;
unicode = 0059;
userData = {
anchors = (
);
b = {
};
com.typemytype.robofont.guides = (
);
com.typemytype.robofont.layerData = {
b = {
anchors = (
);
components = (
);
contours = (
{
points = (
{
segmentType = curve;
smooth = 1;
x = 641;
y = 0;
},
{
smooth = 0;
x = 685;
y = 0;
},
{
smooth = 0;
x = 730;
y = 29;
},
{
segmentType = curve;
smooth = 1;
x = 730;
y = 85;
},
{
segmentType = line;
smooth = 0;
x = 730;
y = 1285;
},
{
segmentType = line;
smooth = 1;
x = 1115;
y = 1285;
},
{
smooth = 0;
x = 1164;
y = 1285;
},
{
smooth = 0;
x = 1190;
y = 1319;
},
{
segmentType = curve;
smooth = 1;
x = 1190;
y = 1355;
},
{
smooth = 0;
x = 1190;
y = 1392;
},
{
smooth = 0;
x = 1166;
y = 1426;
},
{
segmentType = curve;
smooth = 1;
x = 1115;
y = 1426;
},
{
segmentType = line;
smooth = 1;
x = 160;
y = 1426;
},
{
smooth = 0;
x = 111;
y = 1426;
},
{
smooth = 0;
x = 86;
y = 1392;
},
{
segmentType = curve;
smooth = 1;
x = 86;
y = 1355;
},
{
smooth = 0;
x = 86;
y = 1319;
},
{
smooth = 0;
x = 111;
y = 1285;
},
{
segmentType = curve;
smooth = 1;
x = 160;
y = 1285;
},
{
segmentType = line;
smooth = 0;
x = 552;
y = 1285;
},
{
segmentType = line;
smooth = 1;
x = 552;
y = 85;
},
{
smooth = 0;
x = 552;
y = 29;
},
{
smooth = 0;
x = 596;
y = 0;
}
);
}
);
lib = {
};
name = Y;
unicodes = (
);
width = 1278;
};
};
components = (
);
contours = (
);
lib = {
};
name = Y;
unicodes = (
);
width = 1321;
};
},
{
glyphname = Z;
lastChange = "2016-08-31 09:21:12 +0000";
layers = (
{
anchors = (
{
name = bottom;
position = "{295, 0}";
},
{
name = top;
position = "{287, 705}";
}
);
layerId = "9E718F8A-2CEA-4931-B05D-987794BD97DA";
paths = (
{
closed = 1;
nodes = (
"522 0 LINE SMOOTH",
"537 0 OFFCURVE",
"547 10 OFFCURVE",
"547 25 CURVE SMOOTH",
"547 40 OFFCURVE",
"537 50 OFFCURVE",
"522 50 CURVE SMOOTH",
"78 50 LINE",
"78 7 LINE",
"530 661 LINE SMOOTH",
"545 682 OFFCURVE",
"536 705 OFFCURVE",
"510 705 CURVE SMOOTH",
"60 705 LINE SMOOTH",
"46 705 OFFCURVE",
"36 695 OFFCURVE",
"36 680 CURVE SMOOTH",
"36 665 OFFCURVE",
"46 655 OFFCURVE",
"60 655 CURVE SMOOTH",
"494 655 LINE",
"494 698 LINE",
"43 45 LINE SMOOTH",
"27 23 OFFCURVE",
"36 0 OFFCURVE",
"62 0 CURVE SMOOTH"
);
}
);
width = 573;
},
{
anchors = (
{
name = bottom;
position = "{301, 0}";
},
{
name = top;
position = "{305, 705}";
}
);
layerId = "E1B555A7-F4E1-459C-9C1A-AE952106EEF9";
paths = (
{
closed = 1;
nodes = (
"514 0 LINE SMOOTH",
"567 0 OFFCURVE",
"590 23 OFFCURVE",
"590 65 CURVE SMOOTH",
"590 106 OFFCURVE",
"567 129 OFFCURVE",
"514 129 CURVE SMOOTH",
"197 129 LINE",
"197 83 LINE",
"556 580 LINE SMOOTH",
"598 637 OFFCURVE",
"573 705 OFFCURVE",
"506 705 CURVE SMOOTH",
"110 705 LINE SMOOTH",
"57 705 OFFCURVE",
"34 682 OFFCURVE",
"34 640 CURVE SMOOTH",
"34 599 OFFCURVE",
"57 576 OFFCURVE",
"110 576 CURVE SMOOTH",
"412 576 LINE",
"412 622 LINE",
"53 125 LINE SMOOTH",
"12 69 OFFCURVE",
"36 0 OFFCURVE",
"103 0 CURVE SMOOTH"
);
}
);
width = 607;
}
);
leftKerningGroup = Z;
rightKerningGroup = Z;
unicode = 005A;
userData = {
anchors = (
);
b = {
};
com.typemytype.robofont.layerData = {
b = {
anchors = (
);
components = (
);
contours = (
{
points = (
{
segmentType = curve;
smooth = 1;
x = 266;
y = 0;
},
{
segmentType = line;
smooth = 1;
x = 1035;
y = 0;
},
{
smooth = 0;
x = 1084;
y = 0;
},
{
smooth = 0;
x = 1108;
y = 34;
},
{
segmentType = curve;
smooth = 1;
x = 1108;
y = 71;
},
{
smooth = 0;
x = 1108;
y = 107;
},
{
smooth = 0;
x = 1084;
y = 141;
},
{
segmentType = curve;
smooth = 1;
x = 1035;
y = 141;
},
{
segmentType = line;
smooth = 0;
x = 356;
y = 141;
},
{
segmentType = line;
smooth = 0;
x = 356;
y = 665;
},
{
segmentType = line;
smooth = 1;
x = 975;
y = 665;
},
{
smooth = 0;
x = 1024;
y = 665;
},
{
smooth = 0;
x = 1049;
y = 698;
},
{
segmentType = curve;
smooth = 1;
x = 1049;
y = 734;
},
{
smooth = 0;
x = 1049;
y = 770;
},
{
smooth = 0;
x = 1026;
y = 803;
},
{
segmentType = curve;
smooth = 1;
x = 975;
y = 803;
},
{
segmentType = line;
smooth = 0;
x = 356;
y = 803;
},
{
segmentType = line;
smooth = 0;
x = 356;
y = 1285;
},
{
segmentType = line;
smooth = 1;
x = 1007;
y = 1285;
},
{
smooth = 0;
x = 1056;
y = 1285;
},
{
smooth = 0;
x = 1080;
y = 1319;
},
{
segmentType = curve;
smooth = 1;
x = 1080;
y = 1356;
},
{
smooth = 0;
x = 1080;
y = 1392;
},
{
smooth = 0;
x = 1056;
y = 1426;
},
{
segmentType = curve;
smooth = 1;
x = 1007;
y = 1426;
},
{
segmentType = line;
smooth = 1;
x = 261;
y = 1426;
},
{
smooth = 0;
x = 213;
y = 1426;
},
{
smooth = 0;
x = 178;
y = 1383;
},
{
segmentType = curve;
smooth = 1;
x = 178;
y = 1340;
},
{
segmentType = line;
smooth = 1;
x = 178;
y = 86;
},
{
smooth = 0;
x = 178;
y = 41;
},
{
smooth = 0;
x = 222;
y = 0;
}
);
}
);
lib = {
};
name = Z;
unicodes = (
);
width = 1165;
};
};
components = (
);
contours = (
);
lib = {
};
name = Z;
unicodes = (
);
width = 1222;
};
},
{
glyphname = a;
lastChange = "2016-08-31 07:41:40 +0000";
layers = (
{
anchors = (
{
name = bottom;
position = "{264, 0}";
},
{
name = ogonek;
position = "{435, 10}";
},
{
name = top;
position = "{267, 490}";
}
);
background = {
paths = (
{
closed = 1;
nodes = (
"385 204 LINE SMOOTH",
"385 105 OFFCURVE",
"316 44 OFFCURVE",
"233 44 CURVE SMOOTH",
"164 44 OFFCURVE",
"119 89 OFFCURVE",
"119 142 CURVE SMOOTH",
"119 208 OFFCURVE",
"153 236 OFFCURVE",
"366 236 CURVE SMOOTH",
"396 236 LINE",
"396 279 LINE",
"364 279 LINE SMOOTH",
"136 279 OFFCURVE",
"60 246 OFFCURVE",
"61 137 CURVE SMOOTH",
"62 60 OFFCURVE",
"133 -5 OFFCURVE",
"230 -5 CURVE SMOOTH",
"310 -5 OFFCURVE",
"375 42 OFFCURVE",
"397 111 CURVE",
"386 129 LINE",
"386 24 LINE SMOOTH",
"386 6 OFFCURVE",
"398 -4 OFFCURVE",
"413 -4 CURVE SMOOTH",
"429 -4 OFFCURVE",
"440 6 OFFCURVE",
"440 24 CURVE SMOOTH",
"440 317 LINE SMOOTH",
"440 443 OFFCURVE",
"372 495 OFFCURVE",
"267 495 CURVE SMOOTH",
"212 495 OFFCURVE",
"152 480 OFFCURVE",
"105 452 CURVE SMOOTH",
"78 436 OFFCURVE",
"70 424 OFFCURVE",
"70 410 CURVE SMOOTH",
"70 397 OFFCURVE",
"80 387 OFFCURVE",
"91 387 CURVE SMOOTH",
"118 387 OFFCURVE",
"151 446 OFFCURVE",
"271 446 CURVE SMOOTH",
"344 446 OFFCURVE",
"385 414 OFFCURVE",
"385 312 CURVE SMOOTH"
);
}
);
};
layerId = "9E718F8A-2CEA-4931-B05D-987794BD97DA";
paths = (
{
closed = 1;
nodes = (
"310 -5 OFFCURVE",
"375 42 OFFCURVE",
"397 111 CURVE",
"385 129 LINE",
"385 24 LINE SMOOTH",
"385 6 OFFCURVE",
"397 -4 OFFCURVE",
"412 -4 CURVE SMOOTH",
"428 -4 OFFCURVE",
"439 6 OFFCURVE",
"439 24 CURVE SMOOTH",
"439 312 LINE SMOOTH",
"439 445 OFFCURVE",
"372 495 OFFCURVE",
"267 495 CURVE SMOOTH",
"212 495 OFFCURVE",
"152 480 OFFCURVE",
"105 452 CURVE SMOOTH",
"78 436 OFFCURVE",
"70 424 OFFCURVE",
"70 410 CURVE SMOOTH",
"70 397 OFFCURVE",
"80 387 OFFCURVE",
"91 387 CURVE SMOOTH",
"101 387 OFFCURVE",
"112 395 OFFCURVE",
"128 406 CURVE SMOOTH",
"155 423 OFFCURVE",
"204 446 OFFCURVE",
"271 446 CURVE SMOOTH",
"344 446 OFFCURVE",
"385 413 OFFCURVE",
"385 316 CURVE SMOOTH",
"385 204 LINE SMOOTH",
"385 105 OFFCURVE",
"316 44 OFFCURVE",
"233 44 CURVE SMOOTH",
"164 44 OFFCURVE",
"119 89 OFFCURVE",
"119 142 CURVE SMOOTH",
"119 208 OFFCURVE",
"153 236 OFFCURVE",
"366 236 CURVE SMOOTH",
"396 236 LINE",
"396 279 LINE",
"364 279 LINE SMOOTH",
"136 279 OFFCURVE",
"60 246 OFFCURVE",
"61 137 CURVE SMOOTH",
"62 60 OFFCURVE",
"133 -5 OFFCURVE",
"230 -5 CURVE SMOOTH"
);
}
);
width = 516;
},
{
anchors = (
{
name = bottom;
position = "{275, 0}";
},
{
name = ogonek;
position = "{469, 10}";
},
{
name = top;
position = "{279, 495}";
}
);
background = {
paths = (
{
closed = 1;
nodes = (
"285 -6 OFFCURVE",
"341 31 OFFCURVE",
"354 100 CURVE",
"346 103 LINE",
"346 68 LINE SMOOTH",
"346 16 OFFCURVE",
"385 -4 OFFCURVE",
"419 -4 CURVE SMOOTH",
"460 -4 OFFCURVE",
"493 17 OFFCURVE",
"493 68 CURVE SMOOTH",
"493 289 LINE SMOOTH",
"493 439 OFFCURVE",
"419 501 OFFCURVE",
"279 501 CURVE SMOOTH",
"208 501 OFFCURVE",
"136 482 OFFCURVE",
"93 460 CURVE SMOOTH",
"65 446 OFFCURVE",
"55 429 OFFCURVE",
"55 403 CURVE SMOOTH",
"55 373 OFFCURVE",
"71 345 OFFCURVE",
"104 345 CURVE SMOOTH",
"115 345 OFFCURVE",
"128 349 OFFCURVE",
"143 355 CURVE SMOOTH",
"175 367 OFFCURVE",
"223 385 OFFCURVE",
"267 385 CURVE SMOOTH",
"320 385 OFFCURVE",
"345 367 OFFCURVE",
"345 310 CURVE SMOOTH",
"345 202 LINE SMOOTH",
"345 137 OFFCURVE",
"300 101 OFFCURVE",
"250 101 CURVE SMOOTH",
"214 101 OFFCURVE",
"187 126 OFFCURVE",
"187 161 CURVE SMOOTH",
"187 199 OFFCURVE",
"214 218 OFFCURVE",
"328 218 CURVE SMOOTH",
"361 218 LINE",
"361 293 LINE",
"319 293 LINE SMOOTH",
"107 293 OFFCURVE",
"37 252 OFFCURVE",
"37 150 CURVE SMOOTH",
"37 67 OFFCURVE",
"106 -6 OFFCURVE",
"217 -6 CURVE SMOOTH"
);
}
);
};
layerId = "E1B555A7-F4E1-459C-9C1A-AE952106EEF9";
paths = (
{
closed = 1;
nodes = (
"285 -6 OFFCURVE",
"341 31 OFFCURVE",
"354 100 CURVE",
"346 103 LINE",
"346 66 LINE SMOOTH",
"346 14 OFFCURVE",
"385 -6 OFFCURVE",
"419 -6 CURVE SMOOTH",
"460 -6 OFFCURVE",
"493 15 OFFCURVE",
"493 66 CURVE SMOOTH",
"493 289 LINE SMOOTH",
"493 439 OFFCURVE",
"419 501 OFFCURVE",
"279 501 CURVE SMOOTH",
"208 501 OFFCURVE",
"136 482 OFFCURVE",
"93 460 CURVE SMOOTH",
"65 446 OFFCURVE",
"55 429 OFFCURVE",
"55 403 CURVE SMOOTH",
"55 373 OFFCURVE",
"71 345 OFFCURVE",
"104 345 CURVE SMOOTH",
"115 345 OFFCURVE",
"128 349 OFFCURVE",
"143 355 CURVE SMOOTH",
"175 367 OFFCURVE",
"223 385 OFFCURVE",
"267 385 CURVE SMOOTH",
"320 385 OFFCURVE",
"345 367 OFFCURVE",
"345 310 CURVE SMOOTH",
"345 202 LINE SMOOTH",
"345 137 OFFCURVE",
"300 101 OFFCURVE",
"250 101 CURVE SMOOTH",
"214 101 OFFCURVE",
"187 126 OFFCURVE",
"187 161 CURVE SMOOTH",
"187 199 OFFCURVE",
"214 218 OFFCURVE",
"328 218 CURVE SMOOTH",
"361 218 LINE",
"361 293 LINE",
"319 293 LINE SMOOTH",
"107 293 OFFCURVE",
"37 252 OFFCURVE",
"37 150 CURVE SMOOTH",
"37 67 OFFCURVE",
"106 -6 OFFCURVE",
"217 -6 CURVE SMOOTH"
);
}
);
width = 547;
}
);
leftKerningGroup = a;
rightKerningGroup = n;
rightMetricsKey = n;
unicode = 0061;
userData = {
anchors = (
);
b = {
};
com.typemytype.robofont.layerData = {
b = {
anchors = (
);
components = (
);
contours = (
);
lib = {
};
name = a;
unicodes = (
);
width = 1040;
};
};
components = (
);
contours = (
);
lib = {
};
name = a;
unicodes = (
);
width = 1101;
};
},
{
glyphname = aogonek;
lastChange = "2016-09-02 13:38:19 +0000";
layers = (
{
background = {
paths = (
{
closed = 1;
nodes = (
"310 -5 OFFCURVE",
"375 42 OFFCURVE",
"397 111 CURVE",
"385 129 LINE",
"385 24 LINE SMOOTH",
"385 6 OFFCURVE",
"397 -4 OFFCURVE",
"412 -4 CURVE SMOOTH",
"428 -4 OFFCURVE",
"439 6 OFFCURVE",
"439 24 CURVE SMOOTH",
"439 312 LINE SMOOTH",
"439 445 OFFCURVE",
"372 495 OFFCURVE",
"267 495 CURVE SMOOTH",
"212 495 OFFCURVE",
"152 480 OFFCURVE",
"105 452 CURVE SMOOTH",
"78 436 OFFCURVE",
"70 424 OFFCURVE",
"70 410 CURVE SMOOTH",
"70 397 OFFCURVE",
"80 387 OFFCURVE",
"91 387 CURVE SMOOTH",
"101 387 OFFCURVE",
"112 395 OFFCURVE",
"128 406 CURVE SMOOTH",
"155 423 OFFCURVE",
"204 446 OFFCURVE",
"271 446 CURVE SMOOTH",
"344 446 OFFCURVE",
"385 413 OFFCURVE",
"385 316 CURVE SMOOTH",
"385 204 LINE SMOOTH",
"385 105 OFFCURVE",
"316 44 OFFCURVE",
"233 44 CURVE SMOOTH",
"164 44 OFFCURVE",
"119 89 OFFCURVE",
"119 142 CURVE SMOOTH",
"119 208 OFFCURVE",
"153 236 OFFCURVE",
"366 236 CURVE SMOOTH",
"396 236 LINE",
"396 279 LINE",
"364 279 LINE SMOOTH",
"136 279 OFFCURVE",
"60 246 OFFCURVE",
"61 137 CURVE SMOOTH",
"62 60 OFFCURVE",
"133 -5 OFFCURVE",
"230 -5 CURVE SMOOTH"
);
},
{
closed = 1;
nodes = (
"431 -191 OFFCURVE",
"454 -186 OFFCURVE",
"475 -174 CURVE SMOOTH",
"499 -160 OFFCURVE",
"490 -119 OFFCURVE",
"459 -135 CURVE SMOOTH",
"441 -144 OFFCURVE",
"423 -148 OFFCURVE",
"411 -148 CURVE SMOOTH",
"371 -148 OFFCURVE",
"343 -125 OFFCURVE",
"343 -82 CURVE SMOOTH",
"343 -38 OFFCURVE",
"371 -2 OFFCURVE",
"435 10 CURVE",
"423 41 LINE",
"339 27 OFFCURVE",
"293 -24 OFFCURVE",
"293 -88 CURVE SMOOTH",
"293 -148 OFFCURVE",
"338 -191 OFFCURVE",
"406 -191 CURVE SMOOTH"
);
}
);
};
layerId = "9E718F8A-2CEA-4931-B05D-987794BD97DA";
paths = (
{
closed = 1;
nodes = (
"441 -144 OFFCURVE",
"423 -148 OFFCURVE",
"411 -148 CURVE SMOOTH",
"371 -148 OFFCURVE",
"343 -125 OFFCURVE",
"343 -82 CURVE SMOOTH",
"343 -41 OFFCURVE",
"369 -12 OFFCURVE",
"419 -2 CURVE SMOOTH",
"431 0 OFFCURVE",
"439 10 OFFCURVE",
"439 24 CURVE SMOOTH",
"439 312 LINE SMOOTH",
"439 445 OFFCURVE",
"372 495 OFFCURVE",
"267 495 CURVE SMOOTH",
"212 495 OFFCURVE",
"152 480 OFFCURVE",
"105 452 CURVE SMOOTH",
"78 436 OFFCURVE",
"70 424 OFFCURVE",
"70 410 CURVE SMOOTH",
"70 397 OFFCURVE",
"80 387 OFFCURVE",
"91 387 CURVE SMOOTH",
"101 387 OFFCURVE",
"112 395 OFFCURVE",
"128 406 CURVE",
"155 423 OFFCURVE",
"204 446 OFFCURVE",
"271 446 CURVE SMOOTH",
"344 446 OFFCURVE",
"385 413 OFFCURVE",
"385 316 CURVE SMOOTH",
"385 204 LINE SMOOTH",
"385 105 OFFCURVE",
"316 44 OFFCURVE",
"233 44 CURVE SMOOTH",
"164 44 OFFCURVE",
"119 89 OFFCURVE",
"119 142 CURVE SMOOTH",
"119 208 OFFCURVE",
"153 236 OFFCURVE",
"366 236 CURVE SMOOTH",
"396 236 LINE",
"396 279 LINE",
"364 279 LINE SMOOTH",
"136 279 OFFCURVE",
"60 246 OFFCURVE",
"61 137 CURVE SMOOTH",
"62 60 OFFCURVE",
"133 -5 OFFCURVE",
"230 -5 CURVE SMOOTH",
"310 -5 OFFCURVE",
"375 42 OFFCURVE",
"397 111 CURVE",
"386 129 LINE",
"386 24 LINE SMOOTH",
"386 12 OFFCURVE",
"391 5 OFFCURVE",
"395 2 CURVE",
"422 38 LINE",
"338 24 OFFCURVE",
"293 -27 OFFCURVE",
"293 -88 CURVE SMOOTH",
"293 -148 OFFCURVE",
"338 -191 OFFCURVE",
"406 -191 CURVE SMOOTH",
"431 -191 OFFCURVE",
"454 -186 OFFCURVE",
"475 -174 CURVE SMOOTH",
"499 -160 OFFCURVE",
"490 -119 OFFCURVE",
"459 -135 CURVE SMOOTH"
);
}
);
width = 516;
},
{
background = {
paths = (
{
closed = 1;
nodes = (
"285 -6 OFFCURVE",
"341 31 OFFCURVE",
"354 100 CURVE",
"346 103 LINE",
"346 66 LINE SMOOTH",
"346 14 OFFCURVE",
"385 -6 OFFCURVE",
"419 -6 CURVE SMOOTH",
"460 -6 OFFCURVE",
"493 15 OFFCURVE",
"493 66 CURVE SMOOTH",
"493 289 LINE SMOOTH",
"493 439 OFFCURVE",
"419 501 OFFCURVE",
"279 501 CURVE SMOOTH",
"208 501 OFFCURVE",
"136 482 OFFCURVE",
"93 460 CURVE SMOOTH",
"65 446 OFFCURVE",
"55 429 OFFCURVE",
"55 403 CURVE SMOOTH",
"55 373 OFFCURVE",
"71 345 OFFCURVE",
"104 345 CURVE SMOOTH",
"115 345 OFFCURVE",
"128 349 OFFCURVE",
"143 355 CURVE SMOOTH",
"175 367 OFFCURVE",
"223 385 OFFCURVE",
"267 385 CURVE SMOOTH",
"320 385 OFFCURVE",
"345 367 OFFCURVE",
"345 310 CURVE SMOOTH",
"345 202 LINE SMOOTH",
"345 137 OFFCURVE",
"300 101 OFFCURVE",
"250 101 CURVE SMOOTH",
"214 101 OFFCURVE",
"187 126 OFFCURVE",
"187 161 CURVE SMOOTH",
"187 199 OFFCURVE",
"214 218 OFFCURVE",
"328 218 CURVE SMOOTH",
"361 218 LINE",
"361 293 LINE",
"319 293 LINE SMOOTH",
"107 293 OFFCURVE",
"37 252 OFFCURVE",
"37 150 CURVE SMOOTH",
"37 67 OFFCURVE",
"106 -6 OFFCURVE",
"217 -6 CURVE SMOOTH"
);
},
{
closed = 1;
nodes = (
"460 -197 OFFCURVE",
"489 -191 OFFCURVE",
"518 -174 CURVE SMOOTH",
"551 -155 OFFCURVE",
"536 -98 OFFCURVE",
"500 -109 CURVE SMOOTH",
"478 -115 OFFCURVE",
"467 -117 OFFCURVE",
"452 -117 CURVE SMOOTH",
"424 -117 OFFCURVE",
"400 -99 OFFCURVE",
"400 -64 CURVE SMOOTH",
"400 -27 OFFCURVE",
"424 -3 OFFCURVE",
"469 10 CURVE",
"452 46 LINE",
"351 33 OFFCURVE",
"301 -22 OFFCURVE",
"301 -87 CURVE SMOOTH",
"301 -154 OFFCURVE",
"357 -197 OFFCURVE",
"429 -197 CURVE SMOOTH"
);
}
);
};
layerId = "E1B555A7-F4E1-459C-9C1A-AE952106EEF9";
paths = (
{
closed = 1;
nodes = (
"478 -115 OFFCURVE",
"467 -117 OFFCURVE",
"452 -117 CURVE SMOOTH",
"424 -117 OFFCURVE",
"400 -99 OFFCURVE",
"400 -64 CURVE SMOOTH",
"400 -27 OFFCURVE",
"430 -9 OFFCURVE",
"457 4 CURVE SMOOTH",
"485 17 OFFCURVE",
"493 40 OFFCURVE",
"493 66 CURVE SMOOTH",
"493 289 LINE SMOOTH",
"493 439 OFFCURVE",
"419 501 OFFCURVE",
"279 501 CURVE SMOOTH",
"208 501 OFFCURVE",
"136 482 OFFCURVE",
"93 460 CURVE SMOOTH",
"65 446 OFFCURVE",
"55 429 OFFCURVE",
"55 403 CURVE SMOOTH",
"55 373 OFFCURVE",
"71 345 OFFCURVE",
"104 345 CURVE SMOOTH",
"115 345 OFFCURVE",
"128 349 OFFCURVE",
"143 355 CURVE SMOOTH",
"175 367 OFFCURVE",
"223 385 OFFCURVE",
"267 385 CURVE SMOOTH",
"320 385 OFFCURVE",
"345 367 OFFCURVE",
"345 310 CURVE SMOOTH",
"345 202 LINE SMOOTH",
"345 137 OFFCURVE",
"300 101 OFFCURVE",
"250 101 CURVE SMOOTH",
"214 101 OFFCURVE",
"187 126 OFFCURVE",
"187 161 CURVE SMOOTH",
"187 199 OFFCURVE",
"214 218 OFFCURVE",
"328 218 CURVE SMOOTH",
"361 218 LINE",
"361 293 LINE",
"319 293 LINE SMOOTH",
"107 293 OFFCURVE",
"37 252 OFFCURVE",
"37 150 CURVE SMOOTH",
"37 67 OFFCURVE",
"106 -6 OFFCURVE",
"217 -6 CURVE SMOOTH",
"285 -6 OFFCURVE",
"341 31 OFFCURVE",
"354 100 CURVE",
"346 103 LINE",
"346 66 LINE SMOOTH",
"346 33 OFFCURVE",
"363 13 OFFCURVE",
"382 2 CURVE",
"395 37 LINE",
"331 11 OFFCURVE",
"301 -35 OFFCURVE",
"301 -84 CURVE SMOOTH",
"301 -154 OFFCURVE",
"357 -197 OFFCURVE",
"429 -197 CURVE SMOOTH",
"460 -197 OFFCURVE",
"489 -191 OFFCURVE",
"518 -174 CURVE SMOOTH",
"551 -155 OFFCURVE",
"536 -98 OFFCURVE",
"500 -109 CURVE SMOOTH"
);
}
);
width = 547;
}
);
leftKerningGroup = a;
leftMetricsKey = a;
widthMetricsKey = a;
rightKerningGroup = n;
unicode = 0105;
userData = {
com.typemytype.robofont.layerData = {
b = {
anchors = (
);
components = (
);
contours = (
);
lib = {
};
name = aogonek;
unicodes = (
);
width = 1040;
};
};
};
},
{
glyphname = aringacute;
lastChange = "2016-08-30 21:23:21 +0000";
layers = (
{
background = {
components = (
{
name = acute;
transform = "{1, 0, 0, 1, 191, 192}";
},
{
name = aring;
transform = "{1, 0, 0, 1, 3, 0}";
}
);
};
layerId = "9E718F8A-2CEA-4931-B05D-987794BD97DA";
paths = (
{
closed = 1;
nodes = (
"321 555 OFFCURVE",
"365 597 OFFCURVE",
"365 651 CURVE SMOOTH",
"365 705 OFFCURVE",
"321 747 OFFCURVE",
"267 747 CURVE SMOOTH",
"213 747 OFFCURVE",
"169 705 OFFCURVE",
"169 651 CURVE SMOOTH",
"169 597 OFFCURVE",
"213 555 OFFCURVE",
"267 555 CURVE SMOOTH"
);
},
{
closed = 1;
nodes = (
"238 599 OFFCURVE",
"217 622 OFFCURVE",
"217 651 CURVE SMOOTH",
"217 680 OFFCURVE",
"238 703 OFFCURVE",
"267 703 CURVE SMOOTH",
"296 703 OFFCURVE",
"317 680 OFFCURVE",
"317 651 CURVE SMOOTH",
"317 622 OFFCURVE",
"296 599 OFFCURVE",
"267 599 CURVE SMOOTH"
);
},
{
closed = 1;
nodes = (
"461 791 LINE SMOOTH",
"505 825 OFFCURVE",
"450 880 OFFCURVE",
"416 839 CURVE SMOOTH",
"317 722 LINE SMOOTH",
"303 705 OFFCURVE",
"323 685 OFFCURVE",
"340 698 CURVE SMOOTH"
);
},
{
closed = 1;
nodes = (
"310 -5 OFFCURVE",
"375 42 OFFCURVE",
"397 111 CURVE",
"385 129 LINE",
"385 24 LINE SMOOTH",
"385 6 OFFCURVE",
"397 -4 OFFCURVE",
"412 -4 CURVE SMOOTH",
"428 -4 OFFCURVE",
"439 6 OFFCURVE",
"439 24 CURVE SMOOTH",
"439 312 LINE SMOOTH",
"439 445 OFFCURVE",
"372 495 OFFCURVE",
"267 495 CURVE SMOOTH",
"212 495 OFFCURVE",
"152 480 OFFCURVE",
"105 452 CURVE SMOOTH",
"78 436 OFFCURVE",
"70 424 OFFCURVE",
"70 410 CURVE SMOOTH",
"70 397 OFFCURVE",
"80 387 OFFCURVE",
"91 387 CURVE SMOOTH",
"101 387 OFFCURVE",
"112 395 OFFCURVE",
"128 406 CURVE SMOOTH",
"155 423 OFFCURVE",
"204 446 OFFCURVE",
"271 446 CURVE SMOOTH",
"344 446 OFFCURVE",
"385 413 OFFCURVE",
"385 316 CURVE SMOOTH",
"385 204 LINE SMOOTH",
"385 105 OFFCURVE",
"316 44 OFFCURVE",
"233 44 CURVE SMOOTH",
"164 44 OFFCURVE",
"119 89 OFFCURVE",
"119 142 CURVE SMOOTH",
"119 208 OFFCURVE",
"153 236 OFFCURVE",
"366 236 CURVE SMOOTH",
"396 236 LINE",
"396 279 LINE",
"364 279 LINE SMOOTH",
"136 279 OFFCURVE",
"60 246 OFFCURVE",
"61 137 CURVE SMOOTH",
"62 60 OFFCURVE",
"133 -5 OFFCURVE",
"230 -5 CURVE SMOOTH"
);
}
);
width = 516;
},
{
background = {
components = (
{
name = acute;
transform = "{1, 0, 0, 1, 199, 252}";
},
{
name = aring;
}
);
};
layerId = "E1B555A7-F4E1-459C-9C1A-AE952106EEF9";
paths = (
{
closed = 1;
nodes = (
"340 550 OFFCURVE",
"389 597 OFFCURVE",
"389 658 CURVE SMOOTH",
"389 719 OFFCURVE",
"340 766 OFFCURVE",
"279 766 CURVE SMOOTH",
"218 766 OFFCURVE",
"169 719 OFFCURVE",
"169 658 CURVE SMOOTH",
"169 597 OFFCURVE",
"218 550 OFFCURVE",
"279 550 CURVE SMOOTH"
);
},
{
closed = 1;
nodes = (
"254 613 OFFCURVE",
"236 633 OFFCURVE",
"236 658 CURVE SMOOTH",
"236 683 OFFCURVE",
"254 703 OFFCURVE",
"279 703 CURVE SMOOTH",
"304 703 OFFCURVE",
"322 683 OFFCURVE",
"322 658 CURVE SMOOTH",
"322 633 OFFCURVE",
"304 613 OFFCURVE",
"279 613 CURVE SMOOTH"
);
},
{
closed = 1;
nodes = (
"476 749 LINE SMOOTH",
"569 793 OFFCURVE",
"483 908 OFFCURVE",
"410 836 CURVE SMOOTH",
"325 753 LINE SMOOTH",
"292 721 OFFCURVE",
"328 679 OFFCURVE",
"367 697 CURVE SMOOTH"
);
},
{
closed = 1;
nodes = (
"285 -6 OFFCURVE",
"341 31 OFFCURVE",
"354 100 CURVE",
"346 103 LINE",
"346 66 LINE SMOOTH",
"346 14 OFFCURVE",
"385 -6 OFFCURVE",
"419 -6 CURVE SMOOTH",
"460 -6 OFFCURVE",
"493 15 OFFCURVE",
"493 66 CURVE SMOOTH",
"493 289 LINE SMOOTH",
"493 439 OFFCURVE",
"419 501 OFFCURVE",
"279 501 CURVE SMOOTH",
"208 501 OFFCURVE",
"136 482 OFFCURVE",
"93 460 CURVE SMOOTH",
"65 446 OFFCURVE",
"55 429 OFFCURVE",
"55 403 CURVE SMOOTH",
"55 373 OFFCURVE",
"71 345 OFFCURVE",
"104 345 CURVE SMOOTH",
"115 345 OFFCURVE",
"128 349 OFFCURVE",
"143 355 CURVE SMOOTH",
"175 367 OFFCURVE",
"223 385 OFFCURVE",
"267 385 CURVE SMOOTH",
"320 385 OFFCURVE",
"345 367 OFFCURVE",
"345 310 CURVE SMOOTH",
"345 202 LINE SMOOTH",
"345 137 OFFCURVE",
"300 101 OFFCURVE",
"250 101 CURVE SMOOTH",
"214 101 OFFCURVE",
"187 126 OFFCURVE",
"187 161 CURVE SMOOTH",
"187 199 OFFCURVE",
"214 218 OFFCURVE",
"328 218 CURVE SMOOTH",
"361 218 LINE",
"361 293 LINE",
"319 293 LINE SMOOTH",
"107 293 OFFCURVE",
"37 252 OFFCURVE",
"37 150 CURVE SMOOTH",
"37 67 OFFCURVE",
"106 -6 OFFCURVE",
"217 -6 CURVE SMOOTH"
);
}
);
width = 547;
}
);
leftKerningGroup = a;
leftMetricsKey = a;
widthMetricsKey = a;
rightKerningGroup = n;
unicode = 01FB;
},
{
glyphname = ae;
lastChange = "2016-08-30 21:23:21 +0000";
layers = (
{
anchors = (
{
name = bottom;
position = "{417, 0}";
},
{
name = top;
position = "{417, 490}";
}
);
background = {
paths = (
{
closed = 1;
nodes = (
"665 -5 OFFCURVE",
"718 8 OFFCURVE",
"768 38 CURVE SMOOTH",
"793 53 OFFCURVE",
"802 66 OFFCURVE",
"802 80 CURVE SMOOTH",
"802 93 OFFCURVE",
"793 103 OFFCURVE",
"782 103 CURVE SMOOTH",
"759 103 OFFCURVE",
"717 44 OFFCURVE",
"620 44 CURVE SMOOTH",
"516 44 OFFCURVE",
"444 106 OFFCURVE",
"444 246 CURVE SMOOTH",
"444 381 OFFCURVE",
"515 449 OFFCURVE",
"609 449 CURVE SMOOTH",
"697 449 OFFCURVE",
"760 390 OFFCURVE",
"756 256 CURVE",
"776 279 LINE",
"424 279 LINE",
"425 236 LINE",
"773 236 LINE SMOOTH",
"797 236 OFFCURVE",
"806 247 OFFCURVE",
"806 271 CURVE SMOOTH",
"806 396 OFFCURVE",
"740 495 OFFCURVE",
"609 495 CURVE SMOOTH",
"484 495 OFFCURVE",
"390 396 OFFCURVE",
"395 241 CURVE SMOOTH",
"400 82 OFFCURVE",
"487 -5 OFFCURVE",
"621 -5 CURVE SMOOTH"
);
},
{
closed = 1;
nodes = (
"314 -5 OFFCURVE",
"411 42 OFFCURVE",
"433 171 CURVE",
"442 171 LINE",
"442 317 LINE",
"442 443 OFFCURVE",
"376 495 OFFCURVE",
"269 495 CURVE SMOOTH",
"205 495 OFFCURVE",
"152 480 OFFCURVE",
"105 452 CURVE SMOOTH",
"80 437 OFFCURVE",
"70 424 OFFCURVE",
"70 410 CURVE SMOOTH",
"70 397 OFFCURVE",
"79 387 OFFCURVE",
"90 387 CURVE SMOOTH",
"113 387 OFFCURVE",
"155 446 OFFCURVE",
"274 446 CURVE SMOOTH",
"348 446 OFFCURVE",
"389 414 OFFCURVE",
"389 312 CURVE SMOOTH",
"389 204 LINE SMOOTH",
"389 105 OFFCURVE",
"320 44 OFFCURVE",
"238 44 CURVE SMOOTH",
"164 44 OFFCURVE",
"119 89 OFFCURVE",
"119 142 CURVE SMOOTH",
"119 208 OFFCURVE",
"153 236 OFFCURVE",
"370 236 CURVE SMOOTH",
"400 236 LINE",
"400 279 LINE",
"368 279 LINE SMOOTH",
"136 279 OFFCURVE",
"60 246 OFFCURVE",
"61 137 CURVE SMOOTH",
"62 60 OFFCURVE",
"132 -5 OFFCURVE",
"235 -5 CURVE SMOOTH"
);
}
);
};
layerId = "9E718F8A-2CEA-4931-B05D-987794BD97DA";
paths = (
{
closed = 1;
nodes = (
"665 -5 OFFCURVE",
"718 8 OFFCURVE",
"768 38 CURVE SMOOTH",
"793 53 OFFCURVE",
"802 66 OFFCURVE",
"802 80 CURVE SMOOTH",
"802 93 OFFCURVE",
"793 103 OFFCURVE",
"782 103 CURVE SMOOTH",
"759 103 OFFCURVE",
"717 44 OFFCURVE",
"620 44 CURVE SMOOTH",
"516 44 OFFCURVE",
"444 106 OFFCURVE",
"444 246 CURVE SMOOTH",
"444 381 OFFCURVE",
"515 449 OFFCURVE",
"609 449 CURVE SMOOTH",
"697 449 OFFCURVE",
"760 390 OFFCURVE",
"756 256 CURVE",
"776 279 LINE",
"424 279 LINE",
"425 236 LINE",
"773 236 LINE SMOOTH",
"797 236 OFFCURVE",
"806 247 OFFCURVE",
"806 271 CURVE SMOOTH",
"806 396 OFFCURVE",
"740 495 OFFCURVE",
"609 495 CURVE SMOOTH",
"484 495 OFFCURVE",
"390 396 OFFCURVE",
"395 241 CURVE SMOOTH",
"400 82 OFFCURVE",
"487 -5 OFFCURVE",
"621 -5 CURVE SMOOTH"
);
},
{
closed = 1;
nodes = (
"314 -5 OFFCURVE",
"411 40 OFFCURVE",
"431 171 CURVE",
"442 171 LINE",
"442 317 LINE",
"442 443 OFFCURVE",
"376 495 OFFCURVE",
"269 495 CURVE SMOOTH",
"205 495 OFFCURVE",
"152 480 OFFCURVE",
"105 452 CURVE SMOOTH",
"80 437 OFFCURVE",
"70 424 OFFCURVE",
"70 410 CURVE SMOOTH",
"70 397 OFFCURVE",
"79 387 OFFCURVE",
"90 387 CURVE SMOOTH",
"113 387 OFFCURVE",
"155 446 OFFCURVE",
"274 446 CURVE SMOOTH",
"348 446 OFFCURVE",
"389 414 OFFCURVE",
"389 312 CURVE SMOOTH",
"389 208 LINE SMOOTH",
"389 105 OFFCURVE",
"320 44 OFFCURVE",
"238 44 CURVE SMOOTH",
"164 44 OFFCURVE",
"119 89 OFFCURVE",
"119 142 CURVE SMOOTH",
"119 208 OFFCURVE",
"153 236 OFFCURVE",
"370 236 CURVE SMOOTH",
"400 236 LINE",
"400 279 LINE",
"368 279 LINE SMOOTH",
"136 279 OFFCURVE",
"60 246 OFFCURVE",
"61 137 CURVE SMOOTH",
"62 60 OFFCURVE",
"132 -5 OFFCURVE",
"235 -5 CURVE SMOOTH"
);
}
);
width = 851;
},
{
anchors = (
{
name = bottom;
position = "{417, 0}";
},
{
name = top;
position = "{417, 495}";
}
);
background = {
paths = (
{
closed = 1;
nodes = (
"658 -6 OFFCURVE",
"723 13 OFFCURVE",
"763 35 CURVE SMOOTH",
"785 47 OFFCURVE",
"801 66 OFFCURVE",
"801 92 CURVE SMOOTH",
"801 122 OFFCURVE",
"786 150 OFFCURVE",
"755 150 CURVE SMOOTH",
"718 150 OFFCURVE",
"675 110 OFFCURVE",
"606 110 CURVE SMOOTH",
"529 110 OFFCURVE",
"491 150 OFFCURVE",
"491 263 CURVE SMOOTH",
"491 353 OFFCURVE",
"530 394 OFFCURVE",
"589 394 CURVE SMOOTH",
"642 394 OFFCURVE",
"673 353 OFFCURVE",
"673 278 CURVE",
"711 293 LINE",
"481 293 LINE",
"480 216 LINE",
"764 216 LINE SMOOTH",
"791 216 OFFCURVE",
"804 234 OFFCURVE",
"804 262 CURVE SMOOTH",
"804 399 OFFCURVE",
"723 501 OFFCURVE",
"592 501 CURVE SMOOTH",
"454 501 OFFCURVE",
"363 399 OFFCURVE",
"363 247 CURVE SMOOTH",
"363 92 OFFCURVE",
"448 -6 OFFCURVE",
"603 -6 CURVE SMOOTH"
);
},
{
closed = 1;
nodes = (
"367 -6 OFFCURVE",
"444 74 OFFCURVE",
"444 193 CURVE",
"475 202 LINE",
"475 289 LINE SMOOTH",
"475 439 OFFCURVE",
"409 501 OFFCURVE",
"275 501 CURVE SMOOTH",
"198 501 OFFCURVE",
"133 482 OFFCURVE",
"93 460 CURVE SMOOTH",
"71 448 OFFCURVE",
"55 429 OFFCURVE",
"55 403 CURVE SMOOTH",
"55 373 OFFCURVE",
"70 345 OFFCURVE",
"101 345 CURVE SMOOTH",
"140 345 OFFCURVE",
"177 385 OFFCURVE",
"266 385 CURVE SMOOTH",
"317 385 OFFCURVE",
"343 365 OFFCURVE",
"343 310 CURVE SMOOTH",
"343 202 LINE SMOOTH",
"343 136 OFFCURVE",
"298 101 OFFCURVE",
"255 101 CURVE SMOOTH",
"214 101 OFFCURVE",
"187 126 OFFCURVE",
"187 161 CURVE SMOOTH",
"187 199 OFFCURVE",
"214 218 OFFCURVE",
"326 218 CURVE SMOOTH",
"349 218 LINE",
"349 293 LINE",
"317 293 LINE SMOOTH",
"107 293 OFFCURVE",
"37 252 OFFCURVE",
"37 150 CURVE SMOOTH",
"37 67 OFFCURVE",
"110 -6 OFFCURVE",
"236 -6 CURVE SMOOTH"
);
}
);
};
layerId = "E1B555A7-F4E1-459C-9C1A-AE952106EEF9";
paths = (
{
closed = 1;
nodes = (
"658 -6 OFFCURVE",
"723 13 OFFCURVE",
"763 35 CURVE SMOOTH",
"785 47 OFFCURVE",
"801 66 OFFCURVE",
"801 92 CURVE SMOOTH",
"801 122 OFFCURVE",
"786 150 OFFCURVE",
"755 150 CURVE SMOOTH",
"718 150 OFFCURVE",
"675 110 OFFCURVE",
"606 110 CURVE SMOOTH",
"529 110 OFFCURVE",
"491 150 OFFCURVE",
"491 263 CURVE SMOOTH",
"491 353 OFFCURVE",
"530 394 OFFCURVE",
"589 394 CURVE SMOOTH",
"642 394 OFFCURVE",
"673 353 OFFCURVE",
"673 278 CURVE",
"711 293 LINE",
"481 293 LINE",
"480 216 LINE",
"764 216 LINE SMOOTH",
"791 216 OFFCURVE",
"804 234 OFFCURVE",
"804 262 CURVE SMOOTH",
"804 399 OFFCURVE",
"723 501 OFFCURVE",
"592 501 CURVE SMOOTH",
"456 501 OFFCURVE",
"363 399 OFFCURVE",
"363 247 CURVE SMOOTH",
"363 92 OFFCURVE",
"445 -6 OFFCURVE",
"603 -6 CURVE SMOOTH"
);
},
{
closed = 1;
nodes = (
"367 -6 OFFCURVE",
"434 77 OFFCURVE",
"444 193 CURVE",
"475 202 LINE",
"475 289 LINE SMOOTH",
"475 439 OFFCURVE",
"407 501 OFFCURVE",
"275 501 CURVE SMOOTH",
"198 501 OFFCURVE",
"133 482 OFFCURVE",
"93 460 CURVE SMOOTH",
"71 448 OFFCURVE",
"55 429 OFFCURVE",
"55 403 CURVE SMOOTH",
"55 373 OFFCURVE",
"70 345 OFFCURVE",
"101 345 CURVE SMOOTH",
"140 345 OFFCURVE",
"177 385 OFFCURVE",
"266 385 CURVE SMOOTH",
"317 385 OFFCURVE",
"343 365 OFFCURVE",
"343 310 CURVE SMOOTH",
"343 202 LINE SMOOTH",
"343 136 OFFCURVE",
"298 101 OFFCURVE",
"255 101 CURVE SMOOTH",
"214 101 OFFCURVE",
"187 126 OFFCURVE",
"187 161 CURVE SMOOTH",
"187 199 OFFCURVE",
"214 218 OFFCURVE",
"326 218 CURVE SMOOTH",
"349 218 LINE",
"349 293 LINE",
"317 293 LINE SMOOTH",
"107 293 OFFCURVE",
"37 252 OFFCURVE",
"37 150 CURVE SMOOTH",
"37 67 OFFCURVE",
"110 -6 OFFCURVE",
"236 -6 CURVE SMOOTH"
);
}
);
width = 836;
}
);
leftKerningGroup = a;
leftMetricsKey = a;
rightKerningGroup = e;
rightMetricsKey = e;
unicode = 00E6;
userData = {
com.typemytype.robofont.layerData = {
b = {
anchors = (
);
components = (
);
contours = (
);
lib = {
};
name = ae;
unicodes = (
);
width = 1734;
};
};
};
},
{
glyphname = b;
lastChange = "2016-08-30 22:30:02 +0000";
layers = (
{
anchors = (
{
name = bottom;
position = "{300, 0}";
},
{
name = top;
position = "{303, 490}";
}
);
background = {
paths = (
{
closed = 1;
nodes = (
"460 -12 OFFCURVE",
"523 107 OFFCURVE",
"523 244 CURVE SMOOTH",
"523 369 OFFCURVE",
"452 495 OFFCURVE",
"307 495 CURVE SMOOTH",
"235 495 OFFCURVE",
"166 454 OFFCURVE",
"140 385 CURVE",
"140 667 LINE SMOOTH",
"140 683 OFFCURVE",
"126 692 OFFCURVE",
"112 692 CURVE SMOOTH",
"98 692 OFFCURVE",
"83 683 OFFCURVE",
"83 667 CURVE SMOOTH",
"83 26 LINE SMOOTH",
"83 9 OFFCURVE",
"96 2 OFFCURVE",
"110 2 CURVE SMOOTH",
"138 2 OFFCURVE",
"140 21 OFFCURVE",
"140 26 CURVE SMOOTH",
"140 97 LINE",
"171 25 OFFCURVE",
"241 -12 OFFCURVE",
"315 -12 CURVE SMOOTH"
);
},
{
closed = 1;
nodes = (
"181 27 OFFCURVE",
"141 137 OFFCURVE",
"141 244 CURVE SMOOTH",
"141 349 OFFCURVE",
"188 455 OFFCURVE",
"306 455 CURVE SMOOTH",
"425 455 OFFCURVE",
"467 339 OFFCURVE",
"467 239 CURVE SMOOTH",
"467 143 OFFCURVE",
"432 30 OFFCURVE",
"315 27 CURVE SMOOTH"
);
}
);
};
layerId = "9E718F8A-2CEA-4931-B05D-987794BD97DA";
paths = (
{
closed = 1;
nodes = (
"124 -4 OFFCURVE",
"135 6 OFFCURVE",
"135 24 CURVE SMOOTH",
"135 135 LINE",
"124 117 LINE",
"147 40 OFFCURVE",
"213 -5 OFFCURVE",
"303 -5 CURVE SMOOTH",
"427 -5 OFFCURVE",
"519 90 OFFCURVE",
"519 247 CURVE SMOOTH",
"519 404 OFFCURVE",
"427 495 OFFCURVE",
"303 495 CURVE SMOOTH",
"213 495 OFFCURVE",
"147 450 OFFCURVE",
"124 373 CURVE",
"135 355 LINE",
"135 682 LINE SMOOTH",
"135 700 OFFCURVE",
"124 710 OFFCURVE",
"108 710 CURVE SMOOTH",
"92 710 OFFCURVE",
"81 700 OFFCURVE",
"81 682 CURVE SMOOTH",
"81 24 LINE SMOOTH",
"81 6 OFFCURVE",
"92 -4 OFFCURVE",
"108 -4 CURVE SMOOTH"
);
},
{
closed = 1;
nodes = (
"188 44 OFFCURVE",
"135 122 OFFCURVE",
"135 245 CURVE SMOOTH",
"135 368 OFFCURVE",
"188 446 OFFCURVE",
"297 446 CURVE SMOOTH",
"404 446 OFFCURVE",
"462 370 OFFCURVE",
"462 247 CURVE SMOOTH",
"462 124 OFFCURVE",
"404 44 OFFCURVE",
"298 44 CURVE SMOOTH"
);
}
);
width = 566;
},
{
anchors = (
{
name = bottom;
position = "{308, 0}";
},
{
name = top;
position = "{365, 495}";
}
);
background = {
paths = (
{
closed = 1;
nodes = (
"236 607 LINE SMOOTH",
"236 674 OFFCURVE",
"212 711 OFFCURVE",
"155 711 CURVE SMOOTH",
"101 711 OFFCURVE",
"81 674 OFFCURVE",
"81 607 CURVE SMOOTH",
"81 110 LINE SMOOTH",
"81 43 OFFCURVE",
"106 0 OFFCURVE",
"160 0 CURVE SMOOTH",
"210 0 OFFCURVE",
"235 33 OFFCURVE",
"235 76 CURVE SMOOTH",
"235 82 LINE",
"266 17 OFFCURVE",
"327 -9 OFFCURVE",
"398 -9 CURVE SMOOTH",
"517 -9 OFFCURVE",
"609 75 OFFCURVE",
"609 247 CURVE SMOOTH",
"609 417 OFFCURVE",
"509 497 OFFCURVE",
"391 497 CURVE SMOOTH",
"318 497 OFFCURVE",
"261 466 OFFCURVE",
"236 413 CURVE"
);
},
{
closed = 1;
nodes = (
"425 396 OFFCURVE",
"461 333 OFFCURVE",
"461 241 CURVE SMOOTH",
"461 170 OFFCURVE",
"434 86 OFFCURVE",
"352 86 CURVE SMOOTH",
"269 86 OFFCURVE",
"236 149 OFFCURVE",
"236 243 CURVE SMOOTH",
"236 347 OFFCURVE",
"279 396 OFFCURVE",
"349 396 CURVE SMOOTH"
);
}
);
};
layerId = "E1B555A7-F4E1-459C-9C1A-AE952106EEF9";
paths = (
{
closed = 1;
nodes = (
"174 -6 OFFCURVE",
"211 16 OFFCURVE",
"211 67 CURVE SMOOTH",
"211 118 LINE",
"200 96 LINE",
"224 29 OFFCURVE",
"294 -6 OFFCURVE",
"365 -6 CURVE SMOOTH",
"459 -6 OFFCURVE",
"582 62 OFFCURVE",
"582 250 CURVE SMOOTH",
"582 438 OFFCURVE",
"459 501 OFFCURVE",
"365 501 CURVE SMOOTH",
"294 501 OFFCURVE",
"224 466 OFFCURVE",
"200 399 CURVE",
"213 380 LINE",
"213 642 LINE SMOOTH",
"213 687 OFFCURVE",
"178 710 OFFCURVE",
"137 710 CURVE SMOOTH",
"96 710 OFFCURVE",
"57 687 OFFCURVE",
"57 639 CURVE SMOOTH",
"57 67 LINE SMOOTH",
"57 16 OFFCURVE",
"94 -6 OFFCURVE",
"134 -6 CURVE SMOOTH"
);
},
{
closed = 1;
nodes = (
"257 112 OFFCURVE",
"211 152 OFFCURVE",
"211 248 CURVE SMOOTH",
"211 343 OFFCURVE",
"257 383 OFFCURVE",
"319 383 CURVE SMOOTH",
"389 383 OFFCURVE",
"427 334 OFFCURVE",
"427 250 CURVE SMOOTH",
"427 166 OFFCURVE",
"389 112 OFFCURVE",
"319 112 CURVE SMOOTH"
);
}
);
width = 615;
}
);
leftKerningGroup = h;
leftMetricsKey = n;
rightKerningGroup = o;
rightMetricsKey = o;
unicode = 0062;
userData = {
anchors = (
);
b = {
};
com.typemytype.robofont.layerData = {
b = {
anchors = (
);
components = (
);
contours = (
{
points = (
{
segmentType = curve;
smooth = 1;
x = 238;
y = 1425;
},
{
smooth = 0;
x = 198;
y = 1425;
},
{
smooth = 0;
x = 158;
y = 1400;
},
{
segmentType = curve;
smooth = 1;
x = 158;
y = 1351;
},
{
segmentType = line;
smooth = 1;
x = 158;
y = 76;
},
{
smooth = 0;
x = 158;
y = 27;
},
{
smooth = 0;
x = 197;
y = 3;
},
{
segmentType = curve;
smooth = 1;
x = 237;
y = 3;
},
{
smooth = 0;
x = 297;
y = 3;
},
{
smooth = 0;
x = 318;
y = 38;
},
{
segmentType = curve;
smooth = 1;
x = 318;
y = 76;
},
{
segmentType = line;
smooth = 0;
x = 318;
y = 183;
},
{
smooth = 0;
x = 384;
y = 46;
},
{
smooth = 0;
x = 516;
y = "-20";
},
{
segmentType = curve;
smooth = 1;
x = 666;
y = "-20";
},
{
smooth = 0;
x = 957;
y = "-20";
},
{
smooth = 0;
x = 1095;
y = 225;
},
{
segmentType = curve;
smooth = 1;
x = 1095;
y = 502;
},
{
smooth = 0;
x = 1095;
y = 777;
},
{
smooth = 0;
x = 939;
y = 1013;
},
{
segmentType = curve;
smooth = 1;
x = 650;
y = 1013;
},
{
smooth = 0;
x = 503;
y = 1013;
},
{
smooth = 0;
x = 376;
y = 942;
},
{
segmentType = curve;
smooth = 0;
x = 318;
y = 814;
},
{
segmentType = line;
smooth = 1;
x = 318;
y = 1351;
},
{
smooth = 0;
x = 318;
y = 1400;
},
{
smooth = 0;
x = 278;
y = 1425;
}
);
},
{
points = (
{
segmentType = curve;
smooth = 1;
x = 632;
y = 903;
},
{
smooth = 0;
x = 859;
y = 903;
},
{
smooth = 0;
x = 935;
y = 685;
},
{
segmentType = curve;
smooth = 1;
x = 935;
y = 496;
},
{
smooth = 0;
x = 935;
y = 316;
},
{
smooth = 0;
x = 869;
y = 93;
},
{
segmentType = curve;
smooth = 0;
x = 645;
y = 90;
},
{
smooth = 0;
x = 395;
y = 90;
},
{
smooth = 0;
x = 319;
y = 279;
},
{
segmentType = curve;
smooth = 1;
x = 319;
y = 501;
},
{
smooth = 0;
x = 319;
y = 701;
},
{
smooth = 0;
x = 407;
y = 903;
}
);
}
);
lib = {
};
name = b;
unicodes = (
);
width = 1181;
};
};
components = (
);
contours = (
);
lib = {
};
name = b;
unicodes = (
);
width = 1203;
};
},
{
glyphname = c;
lastChange = "2016-08-31 07:41:57 +0000";
layers = (
{
anchors = (
{
name = bottom;
position = "{270, 0}";
},
{
name = top;
position = "{272, 490}";
}
);
background = {
paths = (
{
closed = 1;
nodes = (
"920 -5 OFFCURVE",
"975 12 OFFCURVE",
"1011 38 CURVE SMOOTH",
"1037 57 OFFCURVE",
"1045 66 OFFCURVE",
"1045 81 CURVE SMOOTH",
"1045 93 OFFCURVE",
"1036 103 OFFCURVE",
"1025 103 CURVE SMOOTH",
"1002 103 OFFCURVE",
"963 44 OFFCURVE",
"873 44 CURVE SMOOTH",
"777 44 OFFCURVE",
"704 111 OFFCURVE",
"704 243 CURVE SMOOTH",
"704 382 OFFCURVE",
"784 446 OFFCURVE",
"874 446 CURVE SMOOTH",
"964 446 OFFCURVE",
"998 387 OFFCURVE",
"1022 387 CURVE SMOOTH",
"1033 387 OFFCURVE",
"1042 397 OFFCURVE",
"1042 409 CURVE SMOOTH",
"1042 424 OFFCURVE",
"1034 436 OFFCURVE",
"1008 455 CURVE SMOOTH",
"971 482 OFFCURVE",
"920 495 OFFCURVE",
"872 495 CURVE SMOOTH",
"749 495 OFFCURVE",
"647 407 OFFCURVE",
"647 243 CURVE SMOOTH",
"647 98 OFFCURVE",
"725 -5 OFFCURVE",
"870 -5 CURVE SMOOTH"
);
},
{
closed = 1;
nodes = (
"396 -5 OFFCURVE",
"489 88 OFFCURVE",
"489 245 CURVE SMOOTH",
"489 402 OFFCURVE",
"396 495 OFFCURVE",
"268 495 CURVE SMOOTH",
"140 495 OFFCURVE",
"47 402 OFFCURVE",
"47 245 CURVE SMOOTH",
"47 88 OFFCURVE",
"140 -5 OFFCURVE",
"268 -5 CURVE SMOOTH"
);
},
{
closed = 1;
nodes = (
"162 44 OFFCURVE",
"104 117 OFFCURVE",
"104 245 CURVE SMOOTH",
"104 368 OFFCURVE",
"162 446 OFFCURVE",
"268 446 CURVE SMOOTH",
"374 446 OFFCURVE",
"432 368 OFFCURVE",
"432 245 CURVE SMOOTH",
"432 117 OFFCURVE",
"374 44 OFFCURVE",
"267 44 CURVE SMOOTH"
);
}
);
};
layerId = "9E718F8A-2CEA-4931-B05D-987794BD97DA";
paths = (
{
closed = 1;
nodes = (
"320 -5 OFFCURVE",
"375 12 OFFCURVE",
"411 38 CURVE SMOOTH",
"437 57 OFFCURVE",
"445 66 OFFCURVE",
"445 81 CURVE SMOOTH",
"445 93 OFFCURVE",
"436 103 OFFCURVE",
"425 103 CURVE SMOOTH",
"402 103 OFFCURVE",
"363 44 OFFCURVE",
"273 44 CURVE SMOOTH",
"179 44 OFFCURVE",
"104 104 OFFCURVE",
"104 243 CURVE SMOOTH",
"104 382 OFFCURVE",
"179 446 OFFCURVE",
"274 446 CURVE SMOOTH",
"364 446 OFFCURVE",
"398 387 OFFCURVE",
"422 387 CURVE SMOOTH",
"433 387 OFFCURVE",
"442 397 OFFCURVE",
"442 409 CURVE SMOOTH",
"442 424 OFFCURVE",
"434 436 OFFCURVE",
"408 455 CURVE SMOOTH",
"371 482 OFFCURVE",
"320 495 OFFCURVE",
"272 495 CURVE SMOOTH",
"151 495 OFFCURVE",
"47 407 OFFCURVE",
"47 243 CURVE SMOOTH",
"47 79 OFFCURVE",
"151 -5 OFFCURVE",
"270 -5 CURVE SMOOTH"
);
}
);
width = 467;
},
{
anchors = (
{
name = bottom;
position = "{286, 0}";
},
{
name = top;
position = "{295, 495}";
}
);
background = {
paths = (
{
closed = 1;
nodes = (
"946 -6 OFFCURVE",
"1004 8 OFFCURVE",
"1049 36 CURVE SMOOTH",
"1068 48 OFFCURVE",
"1080 66 OFFCURVE",
"1080 92 CURVE SMOOTH",
"1080 123 OFFCURVE",
"1065 153 OFFCURVE",
"1034 153 CURVE SMOOTH",
"991 153 OFFCURVE",
"965 115 OFFCURVE",
"895 115 CURVE SMOOTH",
"827 115 OFFCURVE",
"793 160 OFFCURVE",
"793 248 CURVE SMOOTH",
"793 336 OFFCURVE",
"829 380 OFFCURVE",
"897 380 CURVE SMOOTH",
"965 380 OFFCURVE",
"991 342 OFFCURVE",
"1034 342 CURVE SMOOTH",
"1065 342 OFFCURVE",
"1080 372 OFFCURVE",
"1080 403 CURVE SMOOTH",
"1080 429 OFFCURVE",
"1068 447 OFFCURVE",
"1049 459 CURVE SMOOTH",
"1004 487 OFFCURVE",
"946 501 OFFCURVE",
"895 501 CURVE SMOOTH",
"734 501 OFFCURVE",
"633 393 OFFCURVE",
"633 245 CURVE SMOOTH",
"633 100 OFFCURVE",
"723 -6 OFFCURVE",
"886 -6 CURVE SMOOTH"
);
},
{
closed = 1;
nodes = (
"466 -6 OFFCURVE",
"557 104 OFFCURVE",
"557 248 CURVE SMOOTH",
"557 392 OFFCURVE",
"466 501 OFFCURVE",
"295 501 CURVE SMOOTH",
"124 501 OFFCURVE",
"33 392 OFFCURVE",
"33 248 CURVE SMOOTH",
"33 104 OFFCURVE",
"124 -6 OFFCURVE",
"295 -6 CURVE SMOOTH"
);
},
{
closed = 1;
nodes = (
"218 112 OFFCURVE",
"188 161 OFFCURVE",
"188 248 CURVE SMOOTH",
"188 335 OFFCURVE",
"218 384 OFFCURVE",
"295 384 CURVE SMOOTH",
"372 384 OFFCURVE",
"402 335 OFFCURVE",
"402 248 CURVE SMOOTH",
"402 161 OFFCURVE",
"372 112 OFFCURVE",
"295 112 CURVE SMOOTH"
);
}
);
};
layerId = "E1B555A7-F4E1-459C-9C1A-AE952106EEF9";
paths = (
{
closed = 1;
nodes = (
"346 -6 OFFCURVE",
"404 8 OFFCURVE",
"449 36 CURVE SMOOTH",
"468 48 OFFCURVE",
"480 66 OFFCURVE",
"480 92 CURVE SMOOTH",
"480 123 OFFCURVE",
"465 153 OFFCURVE",
"434 153 CURVE SMOOTH",
"391 153 OFFCURVE",
"362 113 OFFCURVE",
"305 113 CURVE SMOOTH",
"232 113 OFFCURVE",
"193 162 OFFCURVE",
"193 248 CURVE SMOOTH",
"193 334 OFFCURVE",
"232 382 OFFCURVE",
"305 382 CURVE SMOOTH",
"362 382 OFFCURVE",
"391 342 OFFCURVE",
"434 342 CURVE SMOOTH",
"465 342 OFFCURVE",
"480 372 OFFCURVE",
"480 403 CURVE SMOOTH",
"480 429 OFFCURVE",
"468 447 OFFCURVE",
"449 459 CURVE SMOOTH",
"404 487 OFFCURVE",
"346 501 OFFCURVE",
"295 501 CURVE SMOOTH",
"134 501 OFFCURVE",
"33 393 OFFCURVE",
"33 245 CURVE SMOOTH",
"33 100 OFFCURVE",
"123 -6 OFFCURVE",
"286 -6 CURVE SMOOTH"
);
}
);
width = 495;
}
);
leftKerningGroup = o;
leftMetricsKey = o;
rightKerningGroup = c;
unicode = 0063;
userData = {
anchors = (
);
b = {
};
com.typemytype.robofont.layerData = {
b = {
anchors = (
);
components = (
);
contours = (
);
lib = {
};
name = c;
unicodes = (
);
width = 956.1410;
};
};
components = (
);
contours = (
);
lib = {
};
name = c;
unicodes = (
);
width = 992;
};
},
